<?xml version="1.0" encoding="utf-8"?>
<!-- Generator: Adobe Illustrator 22.1.0, SVG Export Plug-In . SVG Version: 6.00 Build 0)  -->
<svg version="1.1" id="Layer_1" xmlns="http://www.w3.org/2000/svg" xmlns:xlink="http://www.w3.org/1999/xlink" x="0px" y="0px"
	 viewBox="0 0 595.3 419.5" style="enable-background:new 0 0 595.3 419.5;" xml:space="preserve">
<style type="text/css">
	.st0{fill:#A97B48;}
</style>
<path class="st0" d="M254,207.4C254,207.4,254.1,207.4,254,207.4C254.1,207.3,254.1,207.3,254,207.4c-0.1-0.2-0.5,0.2-0.5,0.2
	c0,0,0.1,0,0.2,0C253.8,207.5,253.9,207.5,254,207.4z"/>
<path class="st0" d="M241.8,297c-0.1,0-0.2,0-0.3,0c-0.1,0-0.2,0-0.3,0c-0.6,0-1,0.1-1.1,0.4c-0.1,0.2-0.2,0.5-0.2,0.9v10.2
	c0.6-0.3,1.1-0.6,1.5-0.9c0.4-0.3,0.8-0.6,1.1-1c0.3-0.4,0.5-0.8,0.7-1.3c0.1-0.5,0.2-1.1,0.2-1.7v-5.3c0-0.3-0.2-0.6-0.5-0.9
	C242.5,297.1,242.2,297,241.8,297z"/>
<path class="st0" d="M344.6,297c-0.1,0-0.2,0-0.3,0c-0.1,0-0.2,0-0.3,0c-0.6,0-1,0.1-1.1,0.4c-0.1,0.2-0.2,0.5-0.2,0.9v10.2
	c0.6-0.3,1.1-0.6,1.5-0.9c0.4-0.3,0.8-0.6,1.1-1c0.3-0.4,0.5-0.8,0.7-1.3c0.1-0.5,0.2-1.1,0.2-1.7v-5.3c0-0.3-0.2-0.6-0.5-0.9
	C345.3,297.1,345,297,344.6,297z"/>
<path class="st0" d="M187.2,297c-0.1,0-0.2,0-0.3,0c-0.1,0-0.2,0-0.3,0c-0.6,0-1,0.1-1.2,0.4c-0.1,0.2-0.2,0.5-0.2,0.9v10.2
	c0.6-0.3,1.1-0.6,1.5-0.9c0.4-0.3,0.8-0.6,1.1-1c0.3-0.4,0.5-0.8,0.7-1.3c0.1-0.5,0.2-1.1,0.2-1.7v-5.3c0-0.3-0.2-0.6-0.5-0.9
	C187.9,297.1,187.6,297,187.2,297z"/>
<path class="st0" d="M171.9,297.1c-0.7,0-1.1,0.1-1.3,0.4c-0.2,0.3-0.2,0.7-0.2,1.2v21.1c0,0.2,0,0.3,0,0.5c0,0.2,0.1,0.4,0.2,0.5
	c0.1,0.2,0.3,0.3,0.5,0.4c0.2,0.1,0.5,0.2,0.8,0.2c0.4,0,0.6-0.1,0.8-0.2c0.2-0.1,0.3-0.2,0.4-0.4c0.1-0.2,0.2-0.4,0.2-0.5
	c0-0.2,0-0.4,0-0.5v-21.1c0-0.5-0.1-0.9-0.2-1.2C173,297.2,172.6,297.1,171.9,297.1z"/>
<path class="st0" d="M226.5,297.1c-0.7,0-1.1,0.1-1.3,0.4c-0.2,0.3-0.2,0.7-0.2,1.2v21.1c0,0.2,0,0.3,0,0.5c0,0.2,0.1,0.4,0.2,0.5
	c0.1,0.2,0.3,0.3,0.5,0.4c0.2,0.1,0.5,0.2,0.8,0.2c0.4,0,0.6-0.1,0.8-0.2c0.2-0.1,0.3-0.2,0.4-0.4c0.1-0.2,0.2-0.4,0.2-0.5
	c0-0.2,0-0.4,0-0.5v-21.1c0-0.5-0.1-0.9-0.2-1.2C227.6,297.2,227.2,297.1,226.5,297.1z"/>
<path class="st0" d="M414,288h-78c-0.6,0-1.1-0.1-1.5-0.2c-0.5-0.2-1-0.5-1.3-0.9c-0.3-0.4-0.5-0.8-0.7-1.4c-0.1-0.6-0.2-1.3-0.2-2
	v-47.3h13.1c0.1,0,0.2,0,0.2,0s0.1,0,0.2,0c10.6-0.1,19.7-4.2,27.2-12.3c7.5-8.1,11.3-17.8,11.3-29.3c0-11.5-3.8-21.3-11.3-29.3
	c-7.5-8.1-16.6-12.2-27.2-12.3h-13.8H307v1.7c1.4,0,2.5,0.4,3,1.2c0.5,0.8,0.8,1.9,0.8,3.5v49.4c-2.4-2.1-5-4-7.8-5.6
	c-6.1-3.5-13-5.6-20.1-6.1c-0.3,0-0.6,0-0.9,0v-33h14.9v-2H282v-1.3v-47.5c0.1-4.5,1-7.7,2.5-9.5c1.6-1.9,4-2.8,7.2-2.8
	c4,0,8,1.7,11.7,5.2c5.3,4.9,8.6,11.6,9.8,20c-2-4.1-5-6.1-9-6.1c-3,0-5.5,1.2-7.5,3.5c-2,2.3-3.1,5.2-3.1,8.6c0,3.4,1,6.2,3.1,8.6
	c2,2.4,4.5,3.6,7.4,3.6c2.9,0,5.4-1.2,7.5-3.6c2.1-2.4,3.1-5.3,3.1-8.6c0-0.1,0-0.2-0.1-0.3c-0.1-0.1-0.1-0.2-0.1-0.2h0.2
	c0-8.9-2.4-16.4-7.2-22.8c-4.8-6.4-11.1-9.6-18.8-9.6c-8.6,0-15.8,3-21.6,8.9c-5.8,5.9-8.8,13.6-8.9,23v23.2v6.3v41.6
	c-4.5,2.3-8.6,5.3-12.1,9c0,0,0,0.1-0.1,0.1v-51.2c0-1.4,0.3-2.5,0.8-3.2c0.5-0.7,1.4-1.5,2.7-2.3V153l-15.4,9c-6.6-6-14.3-9-23-9
	c-9.8,0-18.2,3.8-25.2,11.3c-7,7.5-10.5,16.5-10.5,27.2c0,0.1,0,0.4,0,0.9c0.1,5.8,1.4,11.2,3.8,16.3c2.4,5.1,5.7,9.3,9.7,12.8
	c-4.1,2.4-6.5,6.2-7.5,11.5c-0.9,5.3,0.1,9.9,3,13.8c1.9-2,4.1-3,6.8-3c2.9,0,5.3,1.1,7.2,3.2c1.9,2.1,2.9,4.7,2.9,7.6
	c0,1.1-0.1,2.1-0.3,3.2l14.4,8.7l5.1,3l15.2,8.9c-4,4.4-8.7,7.3-14,8.9c-1.7,0.5-3.5,0.7-5.2,0.9h-5.7c-6.2-0.6-11.7-3.1-16.5-7.5
	c-5.7-5.1-9.2-11.6-10.5-19.3c1.8,2.4,4.1,3.5,6.9,3.5c2.5,0,4.7-0.9,6.4-2.7c1.7-1.8,2.5-4.1,2.5-6.7c0-2.7-0.8-5-2.5-6.8
	c-1.7-1.9-3.8-2.8-6.3-2.8c-2.5,0-4.6,0.9-6.4,2.8c-1.8,1.9-2.6,4.1-2.6,6.7c0,9.6,3.1,17.7,9.4,24.5c3.7,3.9,7.8,6.7,12.4,8.3
	h-57.5v41.4H414V288z M332.5,159.3c0-1,0.1-1.9,0.4-2.5c0.2-0.6,0.7-1.2,1.2-1.5c0.6-0.4,1.4-0.6,2.3-0.6h9.3
	c4.8,0.1,8.7,1.6,11.6,4.4c2.9,2.8,4.4,7,4.4,12.9v45.1c0,5.9-1.4,10.2-4.4,13c-2.9,2.8-6.8,4.2-11.4,4.3h-13.4V159.3z M299.5,274.5
	c-0.1-0.1-0.2-0.1-0.4-0.2c-0.5-0.2-1.1-0.3-1.6-0.3h-0.2c0.4-0.8,0.8-1.7,1.1-2.6c1.7-0.5,3.4-1.1,5.2-1.8c-1,2-2.1,3.8-3.3,5.5
	C300,274.9,299.8,274.6,299.5,274.5z M252.2,231.7c0,0.3,0,0.7,0.1,1.1c0.1,0.2,0.2,0.3,0.4,0.3c0.1,0,0.1,0,0.2,0
	c0.1,0,0.2,0,0.3-0.1c1-0.5,1.4-1.3,1.6-2c0.7-0.2,1.5-0.3,2.2-0.5c-0.2,1.7-0.4,3.3-0.6,5.1c-0.7,0.1-1.4,0.1-2,0.2
	c0,0,0-0.1,0-0.1c-0.1-0.1-0.2-0.3-0.2-0.4c-0.1-0.2-0.2-0.3-0.2-0.5c0-0.1-0.3-0.3-0.3-0.4c-0.1,0-0.2-0.1-0.3-0.1c0,0,0,0-0.1,0
	c0-0.3-0.2-0.5-0.4-0.5c-0.1,0-0.2-0.1-0.3-0.1c-0.2-0.1-0.4-0.2-0.8-0.2c-0.3,0-0.6,0.1-0.7,0.3c-0.1,0.1-0.2,0.2-0.2,0.4
	c-0.1,0.1-0.2,0.2-0.2,0.2c0.1,0,0.1,0,0.2,0c0,0,0,0,0,0c0.2,0.6,0.5,0.8,1,1.2c0.2,0.1,0.3,0.2,0.3,0.2c0,0.2,0,0.3,0,0.3
	c-0.6,0.1-1.1,0.1-1.7,0.2c0.1-1.5,0.3-2.9,0.6-4.4C251.4,231.9,251.8,231.8,252.2,231.7z M251.3,230.4c0.1-0.6,0.2-1.1,0.4-1.6
	c0.3,0.2,0.8,0.6,1.1,0.8c0,0.1,0,0.3-0.1,0.5C252.2,230.1,251.8,230.2,251.3,230.4z M265.3,243.7h6.1c0,2,0,4,0.1,5.9
	c-2-0.1-4-0.1-6-0.3C265.3,247.5,265.3,245.6,265.3,243.7z M271.4,242.2h-6.1c0-1.9,0.1-3.8,0.2-5.6c2-0.1,4-0.2,6-0.3
	C271.4,238.3,271.4,240.2,271.4,242.2z M264.6,227.9c-2,0.2-3.9,0.5-5.8,0.8c0.2-1.2,0.4-2.3,0.7-3.4c0.1-0.3,0.2-0.5,0.4-0.7
	c1.8-1.5,1.8-1.5,2.1-1.7c0,0,0.1,0,0.3-0.1c1-0.2,2.1-0.4,3.2-0.6C265.1,224.1,264.8,226,264.6,227.9z M264.4,229.5
	c-0.2,1.8-0.3,3.7-0.5,5.6c-2.1,0.1-4.1,0.3-6,0.4c0.1-1.8,0.4-3.5,0.6-5.2C260.5,230,262.5,229.7,264.4,229.5z M263.9,236.6
	c-0.1,1.9-0.1,3.7-0.2,5.6h-6.1c0-1.7,0.1-3.4,0.2-5.1C259.8,236.9,261.8,236.8,263.9,236.6z M263.8,243.7c0,1.9,0.1,3.7,0.1,5.6
	c-0.6,0-1.2-0.1-1.9-0.1c-0.2-0.2-0.3-0.4-0.4-0.6c-0.2-0.3-0.4-0.7-0.8-1c-0.4-0.4-0.5-0.4-0.5-0.5c-0.3-1.6-1.7-1.8-2.6-1.9
	l-0.1,0c0-0.4,0-0.9,0-1.3H263.8z M239.9,247.4c0.4,0.1,0.8,0.2,1.3,0.3c0.1,0.8,0.2,1.7,0.3,2.5c-2.6-1.4-4.4-2.8-5.5-4.4
	C236.9,246.4,238.2,246.9,239.9,247.4z M235.4,243.7l5.6,0c0,0.8,0,1.6,0.1,2.4c-0.3-0.1-0.5-0.1-0.7-0.2
	C237.5,245.1,236,244.3,235.4,243.7z M241.7,252.1c0.2,0.9,0.3,1.8,0.5,2.8c-2.5-1.9-4.4-3.9-5.6-6
	C237.9,250,239.6,251.1,241.7,252.1z M242.8,257.2c0.3,1.2,0.7,2.3,1.1,3.4c-2.8-2.5-5.1-5.3-6.6-8.2
	C238.8,254.1,240.6,255.7,242.8,257.2z M248.8,258.7c-1.7-0.8-3.3-1.6-4.6-2.5c-0.3-1.1-0.5-2.2-0.7-3.3c1.4,0.6,3,1.2,4.8,1.7
	c0.1,0.1,0.1,0.2,0.2,0.4C248.1,256,248.2,257.3,248.8,258.7z M244.9,263.4c0.7,1.8,1.6,3.5,2.5,5.2c-4.1-3.5-7.3-7.7-9.5-12.2
	C239.8,259,242.2,261.3,244.9,263.4z M247.4,265.1c2,1.3,4.1,2.4,6.4,3.5c0.8,1.9,1.8,3.7,2.8,5.3c-0.3,0-0.6,0.1-0.9,0.2
	c-1.7-0.9-3.3-1.8-4.7-2.8C249.6,269.4,248.4,267.3,247.4,265.1z M257.2,229c-0.7,0.1-1.3,0.3-2,0.4c0.2-0.6,0.3-1.2,0.7-1.6
	c0.3-0.3,0.8-0.5,1.3-0.7c0.1,0,0.2-0.1,0.3-0.1C257.5,227.7,257.4,228.4,257.2,229z M256.2,208.7c-0.3,0.3-0.7,0.5-1,0.8
	c-0.1,0.1-0.1,0.3-0.1,0.4c-0.2,0.3-0.5,0.5-0.7,0.7c-0.2,0.1-0.4,0.2-0.7,0.4c1.1-1.2,2.2-2.4,3.4-3.5c0.1,0,0.2,0.1,0.3,0.1
	C257.1,208.1,256.7,208.4,256.2,208.7z M253.3,237.6c0.4,0.1,0.6,0.1,0.7,0.1c0.1,0,0.3-0.1,0.5-0.2c0,0.2-0.1,0.3-0.1,0.4
	c0,0,0,0,0,0c-0.3,0-0.7,0.4-0.7,0.8c0,0.2,0.1,0.4,0.2,0.5c0.1,0.1,0.3,0.1,0.4,0.1c0,0,0.1,0,0.1,0c0.1,0,0.1,0,0.3,0.2
	c0.1,0.1,0.4,0.2,0.6,0.2c0.3,0,0.5-0.1,0.7-0.3c0.1,0,0.1,0,0.2,0c0,0.9-0.1,1.8-0.1,2.8h-6.1c0-1.4,0.1-2.8,0.2-4.2
	C251.2,237.8,252.3,237.7,253.3,237.6z M252.5,243.7c-0.4,0.2-0.9,0.5-1,0.9c-0.2,0.3-0.3,0.5-0.3,0.5c-0.1-0.1-0.2-0.2-0.3-0.3
	c-0.1-0.1-0.3-0.1-0.5-0.1c0,0-0.1,0-0.1,0c0,0-0.1-0.1-0.1-0.1c0-0.3,0-0.6,0-0.9L252.5,243.7z M252.1,264.5c0.2,0.7,0.5,1.4,0.8,2
	c-2.4-1.2-4.7-2.6-6.7-4c-0.5-1.3-1-2.7-1.5-4.1c1.5,0.9,3.2,1.7,5,2.5C250.6,262.4,251.5,263.7,252.1,264.5z M248.1,253
	c-1.9-0.6-3.6-1.3-5.1-1.9c-0.2-1-0.3-2-0.4-3c1.8,0.4,3.9,0.8,6.1,1.1c0.1,0.7,0.1,1.3,0.2,1.9C248.6,252,248.3,252.6,248.1,253z
	 M242.6,246.5c-0.1-0.9-0.1-1.9-0.1-2.8h4l0,0.1c0,0.2,0.1,0.4,0.3,0.5c0.3,0.2,0.4,0.4,0.6,1.3c0,0.2,0.2,0.4,0.4,0.4
	c0.1,0,0.2,0.2,0.3,0.3c0.1,0.2,0.3,0.5,0.7,0.7c0,0.2,0,0.5,0,0.7C246.4,247.4,244.4,247,242.6,246.5z M242.5,242.2
	c0-0.9,0.1-1.9,0.1-2.8c0.6-0.2,1.3-0.3,2-0.4l1.6,2.5c0.1,0.3,0.2,0.4,0.2,0.8H242.5z M244.2,220.5c-0.4,0.6-0.6,1.2-0.7,1.9
	c-0.2,0.5-0.3,1-0.6,1.5l-0.2,0.4l0,0.1c-1.1,1-2.1,2-3,3c-0.6,0.7-1.2,1.4-1.7,2.1c0.8-1.7,1.8-3.4,2.9-5c1.1-1.5,2.3-3,3.6-4.4
	C244.4,220.2,244.3,220.3,244.2,220.5z M240.8,228.3c0.3-0.3,0.5-0.6,0.8-0.9l-0.1,0.3c0,0-0.2,0.5-0.3,0.6l0.5,0.3l-0.6-0.1
	c-0.1,0.4-0.1,0.4-0.1,1.4c-0.5,0.4-0.9,0.7-1.3,1.1c-0.9,0.8-1.8,1.6-2.5,2.4C238.2,231.7,239.4,230,240.8,228.3z M240.8,232.2
	c0.4-0.3,0.8-0.6,1.2-0.9c-0.3,1-0.3,1.2-0.3,1.3c-0.3,0.6-0.3,1-0.3,1.1c0,0.1,0,0.2,0,0.3c-0.5,0.3-1,0.5-1.5,0.8
	c-1.3,0.7-2.4,1.5-3.3,2.3C237.6,235.4,239,233.7,240.8,232.2z M240.6,236.1c0,0,0.5-0.3,0.8-0.4c-0.1,0.8-0.2,1.7-0.3,2.5
	c-0.4,0.1-0.7,0.2-1.1,0.3c-1.7,0.5-3.1,1-4.1,1.5C236.9,238.6,238.5,237.3,240.6,236.1z M240.5,239.9c0.2-0.1,0.4-0.1,0.5-0.2
	c0,0.8-0.1,1.6-0.1,2.4h-5.6C236,241.6,237.5,240.7,240.5,239.9z M238.7,260.8c2.8,4.4,6.5,8.4,11.1,11.5c1,1.5,2.2,2.9,3.4,4.2
	c-0.2,0.5-0.3,0.9-0.3,1.5c0,0.2,0,0.4,0.1,0.7C246.7,273.9,241.8,267.9,238.7,260.8z M253.5,274.7c0.2,0.1,0.4,0.2,0.6,0.3
	c-0.1,0-0.1,0.1-0.2,0.1C253.8,275,253.7,274.9,253.5,274.7z M267.7,255.3c0,0-0.3,0-0.3,0l0,0.6l-0.1-0.3l0.1-0.2
	c-0.4-0.2-1.3-2.3-1.7-3.1c0,0-0.1-1.1-0.1-1.4c2,0.1,4,0.2,6,0.3c0.1,2,0.1,4,0.3,5.9l-0.2,0l-0.3,0c-0.9-0.5-1.9-1-3.1-1.6
	C268,255.4,267.8,255.3,267.7,255.3z M271.5,234.8c-2,0.1-4,0.1-6,0.3c0.1-2,0.3-3.9,0.5-5.7c1.9-0.2,3.8-0.4,5.8-0.5
	C271.6,230.8,271.6,232.8,271.5,234.8z M265.6,211.6c0.3-0.8,0.9-1.3,3-2c-0.3,0.9-0.6,1.9-0.9,2.9c-0.2,0.2-0.5,0.4-0.9,0.8
	c-0.1,0-0.2,0-0.3,0.1c0-0.1,0-0.2-0.1-0.2C266.2,212.6,265.8,212,265.6,211.6z M266.2,227.8c0.2-1.9,0.5-3.9,0.9-5.8
	c1.7-0.2,3.5-0.5,5.2-0.6c-0.2,1.9-0.3,3.9-0.5,6C269.9,227.4,268,227.6,266.2,227.8z M269,220.2c0.5-0.2,0.6-0.4,0.6-0.5
	c0.1-0.2,0.1-0.4,0-0.6c-0.1-0.2-0.3-0.4-0.5-0.4c0,0-0.2,0-0.2,0c-0.2,0-0.3,0.1-0.4,0.1c0,0-0.1-0.1-0.1-0.1c0,0,0,0,0,0.1
	c0-0.1,0.1-0.2,0.3-0.4c0.2-0.2,0.4-0.4,0.5-0.8c0-0.1,0-0.2,0-0.3c0,0,0.1,0,0.1,0c0.3,0,0.6,0,1.1-0.1c-0.3,0.3-0.7,0.6-0.8,1.1
	c-0.1,0.3,0.1,0.6,0.3,0.7c0.3,0.2,0.7,0.2,1,0.3c0.3,0.1,0.6,0.2,0.9,0.3c0.1,0.1,0.2,0.1,0.3,0.1c0,0,0.1,0,0.1,0
	c0.1,0,0.2-0.1,0.3-0.1c0,0.1,0,0.2,0,0.2C271.3,219.9,270.1,220,269,220.2z M280.5,257.3v-6c2,0,4,0,6-0.1c-0.1,2-0.1,4-0.3,6
	C284.3,257.2,282.4,257.3,280.5,257.3z M286.1,258.7c-0.1,2-0.3,4-0.5,6c-1.7,0.1-3.5,0.2-5.2,0.2v-6
	C282.4,258.8,284.3,258.8,286.1,258.7z M287.9,206.5c0.8,1.6,1.5,3.5,2.1,5.5c0-0.1-0.1-0.1-0.1-0.2c-0.1-0.1-0.1-0.1-0.8-0.5
	c-0.1,0-0.2-0.1-0.3-0.1c-0.1,0-0.4,0.1-0.5,0.1c-0.3,0.2-0.4,0.4-0.5,0.9c0,0,0,0,0,0c-0.6-0.1-1.2-0.1-1.8-0.2
	c-0.1-0.9-0.3-1.8-0.4-2.6c0.1-0.2,0.2-0.3,0.3-0.5c0.1-0.4-0.1-0.7-0.2-0.8c-0.1-0.2-0.3-0.3-0.5-0.4c-0.1-0.6-0.2-1.1-0.4-1.7
	C286,206.3,286.9,206.4,287.9,206.5z M288.1,215.1c0.1,0.1,0.1,0.1,0.1,0.2c0,0.2-0.1,0.3-0.1,0.5c0,0.2,0.1,0.2,0.1,0.2
	c0.2,0.1,0.4,0.1,0.6-0.2c0.2-0.2,0.3-0.2,0.4-0.2h0h0h0h0c0,0,0,0,0,0v0c-0.1-0.3-0.1-0.7-0.1-1c0-0.1,0-0.1,0-0.2
	c0.2,0.1,0.3,0.1,0.4,0.2c0,0.1-0.1,0.1-0.1,0.3c-0.1,0.2,0,0.5,0.1,0.7c0,0.2,0,0.4,0,0.5c0,0,0.1,0.2,0.2,0.3
	c0,0.5,0.2,0.7,0.5,0.9c0.1,0,0.2,0.1,0.3,0.1c0,0,0,0,0.1,0c-0.2,0.1-0.3,0.3-0.2,0.5l0,0.4c0,0.2,0.1,0.4,0.3,0.5
	c1.1,0.6,1.3,1.2,1.4,1.7c-1.6-0.2-3.3-0.4-4.9-0.5c-0.2-2.1-0.5-4.2-0.7-6c0.7,0.1,1.3,0.1,2,0.2c0,0,0,0,0,0.1c0,0-0.1,0-0.1,0.1
	c0,0,0,0.1,0,0.2c-0.1,0.1-0.3,0-0.4,0.1C287.9,214.6,287.9,214.9,288.1,215.1z M289.1,221.5c-0.1,0.1-0.2,0.3-0.2,0.4
	c-0.7,1.5,0.7,3.6,1,4c0.3,0.4,0.8,0.6,1.1,0.7c0.2,0.1,0.4,0.1,0.4,0.2c-0.1,0.3-0.1,0.5-0.2,0.8c-1.2-0.1-2.4-0.2-3.5-0.3
	c-0.1-2-0.3-4-0.5-6C287.8,221.4,288.5,221.5,289.1,221.5z M290.7,229c-0.1,0.2-0.1,0.3-0.2,0.5c-0.2,0.6-0.5,1.2-0.6,1.9
	c-0.3,1-0.9,1.8-1.6,2.7c-0.1,0.1-0.2,0.3-0.3,0.4c-0.1-1.9-0.1-3.8-0.2-5.7C288.7,228.9,289.7,229,290.7,229z M289.3,249.6
	c-0.4,0-0.9,0-1.3,0c0-0.5,0-1.1,0-1.6C288.4,248.5,288.8,249.1,289.3,249.6z M288,251.2c1,0,2-0.1,2.9-0.1c1,0.7,1.9,1.1,2.9,1.3
	c-0.1,1.4-0.2,2.9-0.4,4.3c-1.9,0.2-3.8,0.4-5.8,0.5C287.8,255.1,287.9,253.1,288,251.2z M286.1,227.2c-1.9-0.1-3.7-0.1-5.6-0.1v-6
	c1.7,0,3.4,0.1,5.1,0.2C285.8,223.2,286,225.2,286.1,227.2z M286.2,228.8c0.1,2,0.2,3.9,0.3,6c-2,0-4-0.1-6-0.1v-6
	C282.4,228.6,284.3,228.7,286.2,228.8z M286.5,236.2l0,1c-0.2,0.8-0.1,1.7,0,2.3c0,0,0,2.1,0,2.6h-6.1v-6
	C282.5,236.2,284.5,236.2,286.5,236.2z M286.4,243.7c0,0.3,0.1,0.6,0.2,1.1c0,1.6,0,3.3-0.1,4.9c-2,0.1-4,0.1-6,0.1v-6H286.4z
	 M287.1,266.1c1.7-0.1,3.5-0.3,5.1-0.6v0c-0.4,2.1-0.9,4.1-1.4,6c-1.5,0.2-3,0.4-4.4,0.6C286.6,270.3,286.8,268.3,287.1,266.1z
	 M287.2,264.6c0.2-1.9,0.3-3.9,0.5-6c1.9-0.1,3.8-0.3,5.7-0.5c-0.2,1.9-0.5,3.9-0.9,5.8C290.8,264.2,289,264.4,287.2,264.6z
	 M293.7,265.8l0.1-0.5c1.8-0.3,3.6-0.6,5.3-1c-0.1,0.4-0.2,0.8-0.3,1.2c-0.5,1.6-1,3.2-1.5,4.6c-1.6,0.4-3.2,0.8-4.8,1.1
	C292.9,269.5,293.3,267.7,293.7,265.8z M297.5,251.2c0.3-0.2,0.6-0.4,0.8-0.6c0.8-0.1,1.5-0.1,2.3-0.2c0.2,0.2,0.4,0.4,0.7,0.7
	c0,0,0.1,0.1,0.1,0.1c-0.1,1.5-0.3,2.9-0.5,4.4c-1.9,0.3-3.9,0.6-5.9,0.8c0.1-1.4,0.3-2.8,0.3-4.2
	C296.1,252.1,296.9,251.7,297.5,251.2z M300.7,257.2c-0.3,1.9-0.7,3.7-1.1,5.4c-1.8,0.4-3.6,0.8-5.5,1.1c0.3-1.9,0.6-3.8,0.8-5.7
	C296.8,257.8,298.8,257.5,300.7,257.2z M300.2,265.9c0.2-0.7,0.4-1.3,0.6-2c1.2-0.3,2.5-0.7,3.9-1.1c0,0.1,0,0.2,0,0.2
	c-0.7,1-1.8,3.2-1.5,5.2c-1.4,0.6-2.8,1.1-4.1,1.5C299.5,268.4,299.9,267.1,300.2,265.9z M301.2,262.2c0.4-1.7,0.7-3.5,1-5.3
	c0.4-0.1,1.3-0.3,1.3-0.3c0.2,0.3,0.4,0.7,0.5,1c0.4,0.8,0.8,1.5,1,2.2c0,0.1,0,0.6-0.1,1.3C303.6,261.5,302.4,261.9,301.2,262.2z
	 M302.5,255.3c0.2-1.3,0.3-2.7,0.5-4.1l0.2,0c0.5,0.5,0.4,1.1,0.1,2.1c-0.2,0.6-0.4,1.3-0.3,2C302.8,255.2,302.7,255.3,302.5,255.3z
	 M285.5,219.7c-1.7-0.1-3.4-0.2-5-0.2v-6c1.4,0,2.8,0.1,4.3,0.2C285,215.6,285.3,217.6,285.5,219.7z M274.2,258.7
	c1.6,0.1,3.2,0.1,4.8,0.1v6c-1.4,0-2.8-0.1-4.3-0.1c0.1-0.1,0.1-0.2,0.2-0.3c0.5-0.6,1.1-1.3,1.2-2.4
	C276.2,260.5,276,259.8,274.2,258.7z M272.9,243.7h6.1v6c-2,0-4,0-6-0.1C272.9,247.7,272.9,245.7,272.9,243.7z M274.7,213.7
	c1.4-0.1,2.8-0.2,4.3-0.2v6c-1.6,0-3.3,0.1-5,0.2C274.2,217.6,274.4,215.5,274.7,213.7z M276.2,207.2c0-0.2-0.1-0.4,0-0.5
	c0.1-0.1,0-0.3-0.1-0.5l0-0.2c0.5,0,0.9,0,1.4-0.1c0,0.1,0,0.2,0,0.3c-0.4,0.3-0.5,0.6-0.4,0.9c0,0,0,0,0,0.1
	c-0.3,0.4-0.4,0.7-0.5,1.2c-0.3,1.7-0.1,2.3,0.1,2.8c0.1,0.2,0.4,0.4,0.6,0.4c0.1,0.1,0.2,0.2,0.2,0.3c-0.9,0-1.8,0.1-2.7,0.1
	c0.2-1,0.3-2,0.5-3c0.2-0.1,0.3-0.2,0.5-0.4C276.4,208.2,276.3,207.6,276.2,207.2z M279,221v6c-1.9,0-3.8,0.1-5.6,0.1
	c0.1-2,0.3-4,0.5-6C275.6,221.1,277.3,221.1,279,221z M279,228.6v6c-2,0-4,0-6,0.1c0.1-2,0.1-4,0.3-6
	C275.2,228.7,277.1,228.6,279,228.6z M279,236.2v6h-6.1c0-2,0-4,0.1-5.9C275,236.2,277,236.2,279,236.2z M273,251.2c2,0,4,0.1,6,0.1
	v6c-1.8,0-3.8-0.1-5.7-0.2C273.2,255.2,273.1,253.2,273,251.2z M274,266.2c1.7,0.1,3.4,0.2,5,0.2v6c-1.4,0-2.9-0.1-4.3-0.2
	c-0.3-1.9-0.5-3.9-0.7-5.9C274,266.3,274,266.2,274,266.2z M275,274.1c0-0.1,0-0.2-0.1-0.3c1.2,0.1,2.4,0.1,3.6,0.1h-2.1
	C275.9,273.9,275.4,274,275,274.1z M280.5,266.4c1.7,0,3.3-0.1,5-0.2c-0.2,2.2-0.5,4.2-0.7,6c-1.4,0.1-2.9,0.2-4.3,0.2V266.4z
	 M286.1,273.7c1.4-0.1,2.8-0.3,4.2-0.5c-0.1,0.3-0.2,0.5-0.3,0.8h-3.6h-0.4C286.1,273.8,286.1,273.7,286.1,273.7z M292,272.9
	c1.5-0.3,3.1-0.6,4.5-1c-0.3,0.7-0.7,1.4-1,2.1h-2.4h-0.4h-1C291.8,273.6,291.9,273.2,292,272.9z M301.4,277
	c0.4-0.2,0.8-0.3,1.2-0.5c0,0.1,0.1,0.1,0.1,0.1l0.3,0.3c0.1,0.1,0.3,0.2,0.4,0.2c0.1,0,0.2,0,0.3-0.1c0.1,0,0.2-0.1,0.2-0.1
	c-0.7,0.8-1.5,1.4-2.3,2.1v-0.1v-0.6C301.6,277.8,301.6,277.4,301.4,277z M301.6,281c2.4-2,4.7-4.2,6.6-6.8c1.1-0.9,2.2-2,3.2-3.1
	c1.1-0.9,2.2-1.8,3.2-2.8c0,0,0,0,0,0c0.1,0.1,0.4,0.3,0.6,0.3c0.5,0,1.2-0.3,3.3-4.5c0.5-0.6,1-1.3,1.5-1.9
	c0.3-0.4,0.6-0.8,0.9-1.3c-0.7,1.5-1.4,2.9-2.2,4.3c-2,3.5-4.5,6.7-7.4,9.5c-2.9,2.8-6.1,5.1-9.6,7V281z M283.6,207.2
	C283.6,207.2,283.6,207.2,283.6,207.2c0.1,0.2,0.1,0.4,0.2,0.6c-0.1,0-0.2-0.1-0.3-0.1c-0.2,0-0.4,0.1-0.5,0.3
	c-0.1,0.1-0.2,0.5-0.1,0.7c0,0,0.2,0.9,0.7,1.2c0,0,0.1,0.1,0.2,0.1c0,0,0.3,0.1,0.3,0.1c0,0,0.1,0.1,0.2,0.1
	c0.1,0.6,0.2,1.3,0.3,1.9c-1.4-0.1-2.7-0.1-4-0.2v-2.7c0.4-0.1,0.4-0.1,0.6-0.2c0.1,0,0.4-0.2,0.4-0.2c0.2-0.2,0.2-0.3,0.4-0.7
	l0.1,0C282.7,208.2,283.5,207.4,283.6,207.2z M247.3,212.2c4.2-4.4,9.2-7.8,14.7-10.1c-1.3,0.8-2.5,1.7-3.7,2.7
	c-0.7,0.2-1.4,0.6-3.9,2c-0.2,0.1-0.3,0.4-0.3,0.6c0,0.2,0.2,0.4,0.5,0.5c0,0,0.1,0,0.1,0c-1.8,1.8-3.3,3.6-4.6,5.5
	c-4.2,2.9-7.7,6.4-10.4,10.3c-0.3,0.5-0.7,1-1,1.5c0.7-1.5,1.4-3,2.3-4.4C242.7,217.6,244.8,214.8,247.3,212.2z M196.6,170.5
	c0-5.4,1.4-9.4,4.1-12c2.7-2.6,6.2-3.9,10.6-3.9c3.9,0,7.3,1.2,10.4,3.5c3,2.4,4.5,5.3,4.5,8.9v61.3l-10.4,6l-12.6-7.4
	c-4.4-2.5-6.6-7.4-6.6-14.7V170.5z M216.1,242.3l-21.5-12.6c-1.3-0.8-2.2-1.7-2.7-2.7c-0.5-1-0.5-2.2,0.1-3.5
	c0.2,0.1,0.5,0.4,0.8,0.7h0.2c0.7,0.5,1.4,0.9,2.1,1.2l20.6,12.1l20-11.7l1.3-0.7c-2.4,5.6-3.7,11.7-3.7,17.9
	c0,3.4,0.4,6.8,1.2,10.1L216.1,242.3z M163.5,298.2c0,0.3-0.1,0.6-0.3,0.8c-0.2,0.2-0.6,0.3-1.2,0.3c-0.5,0-0.9-0.1-1.2-0.4
	c-0.3-0.2-0.5-0.5-0.7-0.8c-0.3-0.3-0.6-0.6-0.9-0.9c-0.3-0.3-0.8-0.4-1.4-0.4c-0.4,0-0.7,0.1-0.9,0.4c-0.2,0.3-0.3,0.6-0.3,0.9v4.1
	h0.5c0.1,0,0.2,0,0.3,0c0.1,0,0.2,0,0.3,0c0.1,0,0.2,0,0.3,0c0.1,0,0.2,0,0.3,0c0.5,0,0.9,0,1.2,0c0.3,0,0.6-0.1,0.8-0.1
	c0.2-0.1,0.4-0.1,0.5-0.2c0.1-0.1,0.2-0.1,0.3-0.2c0.1-0.1,0.2-0.1,0.3-0.2c0.1,0,0.2-0.1,0.4-0.1c0.3,0,0.5,0.2,0.5,0.6v3.5
	c0,0.4-0.2,0.6-0.5,0.6c-0.1,0-0.3,0-0.4-0.1c-0.1-0.1-0.2-0.1-0.3-0.2c-0.2-0.1-0.5-0.2-0.8-0.3c-0.4-0.1-1-0.2-2-0.2
	c-0.1,0-0.3,0-0.4,0c-0.1,0-0.2,0-0.3,0c-0.1,0-0.2,0-0.2,0c-0.1,0-0.1,0-0.2,0c-0.1,0-0.2,0-0.3,0c-0.1,0-0.2,0-0.3,0.1V322
	c0,0.8,0.1,1.3,0.2,1.5c0.2,0.3,0.3,0.5,0.4,0.6v0c0.1,0.1,0.1,0.1,0.2,0.2c0.1,0.1,0.1,0.2,0.1,0.4c0,0.3-0.3,0.4-0.8,0.4h-4.7
	c-0.5,0-0.8-0.1-0.8-0.4c0-0.2,0-0.3,0.1-0.4c0.1-0.1,0.1-0.1,0.2-0.2v0c0.1-0.1,0.3-0.3,0.4-0.6c0.2-0.3,0.2-0.8,0.2-1.5v-25.7
	c0-0.8-0.1-1.3-0.2-1.5c-0.2-0.3-0.3-0.5-0.4-0.6v0c-0.1-0.1-0.1-0.1-0.2-0.2c-0.1-0.1-0.1-0.2-0.1-0.4c0-0.3,0.3-0.4,0.8-0.4h10.7
	c0.2,0,0.4,0.1,0.6,0.2c0.2,0.1,0.2,0.3,0.2,0.5V298.2z M177.7,321c0,0.8-0.2,1.5-0.5,2.1c-0.3,0.6-0.8,1.1-1.4,1.4
	c-0.6,0.4-1.2,0.6-1.9,0.8c-0.7,0.2-1.4,0.2-2.1,0.2c-0.7,0-1.4-0.1-2.1-0.2c-0.7-0.2-1.3-0.4-1.9-0.8c-0.6-0.4-1-0.8-1.4-1.4
	c-0.4-0.6-0.5-1.3-0.5-2.1v-23.5c0-0.8,0.2-1.5,0.5-2.1c0.3-0.6,0.8-1,1.4-1.4c0.6-0.4,1.2-0.6,1.9-0.8c0.7-0.2,1.4-0.3,2.1-0.3
	c0.7,0,1.4,0.1,2.1,0.3c0.7,0.2,1.3,0.4,1.9,0.8c0.6,0.4,1,0.8,1.4,1.4c0.4,0.6,0.5,1.3,0.5,2.1V321z M193.7,325.1h-5
	c-0.5,0-0.8-0.1-0.8-0.4c0-0.2,0.1-0.3,0.2-0.5c0.4-0.3,0.7-0.9,0.8-1.6c0.1-0.8,0.1-1.5,0.1-2.2c0-0.9-0.1-1.8-0.2-2.5
	c-0.1-0.7-0.3-1.4-0.5-2c-0.2-0.6-0.5-1.1-0.8-1.6c-0.3-0.5-0.6-0.9-0.9-1.3c-0.2,0.1-0.4,0.3-0.6,0.4c-0.2,0.1-0.4,0.2-0.6,0.4v6.3
	c0,2,0,3.1,0.2,3.4c0.1,0.2,0.3,0.4,0.4,0.6v0c0.1,0.1,0.1,0.1,0.2,0.2c0.1,0.1,0.1,0.2,0.1,0.4c0,0.3-0.3,0.4-0.8,0.4h-4.6
	c-0.5,0-0.8-0.1-0.8-0.4c0-0.2,0-0.3,0.1-0.4c0.1-0.1,0.1-0.1,0.2-0.2v0c0.1-0.1,0.3-0.3,0.4-0.6c0.2-0.3,0.2-0.8,0.2-1.5v-25.7
	c0-0.8-0.1-1.3-0.2-1.5c-0.2-0.3-0.3-0.5-0.4-0.6v0c-0.1-0.1-0.1-0.1-0.2-0.2c-0.1-0.1-0.1-0.2-0.1-0.4c0-0.3,0.3-0.4,0.8-0.4h7.5
	c0.9,0,1.7,0.1,2.3,0.4c0.6,0.3,1.1,0.6,1.6,1c0.4,0.4,0.7,1,0.9,1.6c0.2,0.6,0.3,1.3,0.3,2v6.5c0,1.4-0.3,2.7-0.9,3.6
	c-0.6,1-1.4,1.8-2.3,2.5c0.8,1.2,1.5,2.1,1.9,2.8c0.4,0.7,0.7,1.4,0.9,2.2c0.2,0.7,0.3,1.5,0.3,2.5c0,0.9,0.1,2.2,0.1,3.8
	c0.1,0.5,0.2,1,0.3,1.3c0.2,0.3,0.3,0.5,0.5,0.7c0.1,0.1,0.2,0.2,0.2,0.3c0.1,0.1,0.1,0.2,0.1,0.4
	C194.4,325,194.2,325.1,193.7,325.1z M209.6,298.2c0,0.2-0.1,0.4-0.2,0.7c-0.1,0.3-0.4,0.4-0.8,0.4c-0.5,0-0.9-0.1-1.1-0.3
	c-0.2-0.2-0.4-0.5-0.5-0.7h0c-0.1-0.2-0.3-0.4-0.4-0.5c-0.1-0.1-0.4-0.2-0.7-0.2c-0.4,0-0.6,0-0.7,0.1c-0.1,0.1-0.1,0.2-0.1,0.6V322
	c0,0.8,0.1,1.3,0.2,1.5c0.2,0.3,0.3,0.5,0.4,0.6v0c0.1,0.1,0.1,0.1,0.2,0.2c0.1,0.1,0.1,0.2,0.1,0.4c0,0.3-0.3,0.4-0.8,0.4h-4.6
	c-0.5,0-0.8-0.1-0.8-0.4c0-0.2,0-0.3,0.1-0.4c0-0.1,0.1-0.1,0.2-0.2v0c0.1-0.1,0.3-0.3,0.4-0.6c0.2-0.3,0.2-0.8,0.2-1.5v-23.8
	c0-0.3,0-0.5-0.1-0.6c-0.1-0.1-0.3-0.1-0.6-0.1c-0.4,0-0.6,0.1-0.8,0.2c-0.2,0.2-0.3,0.3-0.4,0.5c-0.1,0.2-0.3,0.4-0.5,0.7
	c-0.2,0.2-0.6,0.4-1,0.4c-0.4,0-0.6-0.1-0.8-0.4c-0.1-0.3-0.2-0.5-0.2-0.7v-4.4c0-0.5,0.3-0.7,0.8-0.7h11.4c0.2,0,0.4,0.1,0.6,0.2
	c0.2,0.1,0.2,0.3,0.2,0.5V298.2z M217.3,294.8c-0.2,0.3-0.2,0.8-0.2,1.5V322c0,0.8,0.1,1.3,0.2,1.5c0.2,0.3,0.3,0.5,0.4,0.6v0
	c0.1,0.1,0.1,0.1,0.2,0.2c0.1,0.1,0.1,0.2,0.1,0.4c0,0.3-0.3,0.4-0.8,0.4h-4.6c-0.5,0-0.8-0.1-0.8-0.4c0-0.2,0-0.3,0.1-0.4
	c0.1-0.1,0.1-0.1,0.2-0.2v0c0.1-0.1,0.3-0.3,0.4-0.6c0.2-0.3,0.2-0.8,0.2-1.5v-25.7c0-0.8-0.1-1.3-0.2-1.5c-0.2-0.3-0.3-0.5-0.4-0.6
	v0c-0.1-0.1-0.1-0.1-0.2-0.2c-0.1-0.1-0.1-0.2-0.1-0.4c0-0.2,0.2-0.3,0.6-0.4c0.1,0,0.1,0,0.1,0c0,0,0,0,0.1,0h4.6
	c0.5,0,0.8,0.1,0.8,0.4c0,0.2,0,0.3-0.1,0.4c-0.1,0.1-0.1,0.1-0.2,0.2v0C217.6,294.3,217.4,294.5,217.3,294.8z M232.4,321
	c0,0.8-0.2,1.5-0.5,2.1c-0.3,0.6-0.8,1.1-1.4,1.4c-0.6,0.4-1.2,0.6-1.9,0.8c-0.7,0.2-1.4,0.2-2.1,0.2c-0.7,0-1.4-0.1-2.1-0.2
	c-0.7-0.2-1.3-0.4-1.9-0.8c-0.6-0.4-1-0.8-1.4-1.4c-0.4-0.6-0.5-1.3-0.5-2.1v-23.5c0-0.8,0.2-1.5,0.5-2.1c0.3-0.6,0.8-1,1.4-1.4
	c0.6-0.4,1.2-0.6,1.9-0.8c0.7-0.2,1.4-0.3,2.1-0.3c0.7,0,1.4,0.1,2.1,0.3c0.7,0.2,1.3,0.4,1.9,0.8c0.6,0.4,1,0.8,1.4,1.4
	c0.3,0.6,0.5,1.3,0.5,2.1V321z M248.3,325.1h-5c-0.5,0-0.8-0.1-0.8-0.4c0-0.2,0.1-0.3,0.2-0.5c0.4-0.3,0.7-0.9,0.8-1.6
	c0.1-0.8,0.1-1.5,0.1-2.2c0-0.9-0.1-1.8-0.2-2.5c-0.1-0.7-0.3-1.4-0.5-2c-0.2-0.6-0.5-1.1-0.8-1.6c-0.3-0.5-0.6-0.9-0.9-1.3
	c-0.2,0.1-0.4,0.3-0.6,0.4c-0.2,0.1-0.4,0.2-0.6,0.4v6.3c0,2,0,3.1,0.2,3.4c0.1,0.2,0.3,0.4,0.4,0.6v0c0.1,0.1,0.1,0.1,0.2,0.2
	c0.1,0.1,0.1,0.2,0.1,0.4c0,0.3-0.3,0.4-0.8,0.4h-4.6c-0.5,0-0.8-0.1-0.8-0.4c0-0.2,0-0.3,0.1-0.4c0.1-0.1,0.1-0.1,0.2-0.2v0
	c0.1-0.1,0.3-0.3,0.4-0.6c0.2-0.3,0.2-0.8,0.2-1.5v-25.7c0-0.8-0.1-1.3-0.2-1.5c-0.2-0.3-0.3-0.5-0.4-0.6v0
	c-0.1-0.1-0.1-0.1-0.2-0.2c-0.1-0.1-0.1-0.2-0.1-0.4c0-0.3,0.3-0.4,0.8-0.4h7.5c0.9,0,1.7,0.1,2.3,0.4c0.6,0.3,1.1,0.6,1.6,1
	c0.4,0.4,0.7,1,0.9,1.6c0.2,0.6,0.3,1.3,0.3,2v6.5c0,1.4-0.3,2.7-0.9,3.6c-0.6,1-1.4,1.8-2.3,2.5c0.8,1.2,1.5,2.1,1.9,2.8
	c0.4,0.7,0.7,1.4,0.9,2.2c0.2,0.7,0.3,1.5,0.3,2.5c0,0.9,0.1,2.2,0.1,3.8c0.1,0.5,0.2,1,0.3,1.3c0.2,0.3,0.3,0.5,0.5,0.7
	c0.1,0.1,0.2,0.2,0.2,0.3c0.1,0.1,0.1,0.2,0.1,0.4C249.1,325,248.8,325.1,248.3,325.1z M253.8,283v0.6v0v4.4h-29.4
	c4.8-1.7,9.1-4.7,12.8-9c2.3-2.5,4.1-5.3,5.5-8.3c3.1,4.1,6.8,7.6,11.1,10.5c0,0.2,0,0.4,0,0.7V283z M268.5,284.8
	c0,0.4-0.1,0.8-0.3,1.2c-0.2,0.3-0.6,0.5-1.2,0.5c-0.5,0-0.9-0.2-1.2-0.5c-0.3-0.4-0.5-0.8-0.7-1.2c-0.3-0.4-0.6-0.9-0.9-1.3
	c-0.3-0.4-0.8-0.6-1.4-0.6c-0.4,0-0.7,0.2-0.9,0.6c-0.2,0.4-0.3,0.8-0.3,1.3v6.7c0.6-1.1,1.2-1.7,1.9-1.8c0.7-0.1,1.3,0.2,1.9,0.9
	c0.2,0.3,0.5,0.6,0.7,0.8c0.3,0.2,0.5,0.2,0.8,0c0.3-0.4,0.5-0.5,0.6-0.4c0.1,0.1,0.2,0.4,0.2,0.8c0,0.4,0,0.9-0.1,1.4
	c-0.1,0.5-0.2,1-0.3,1.3c-0.3,1.1-0.6,1.8-1,2.2c-0.4,0.4-0.9,0.6-1.4,0.6c-0.3,0-0.7-0.2-0.9-0.6c-0.3-0.4-0.6-0.7-0.8-1.1
	c-0.3-0.3-0.5-0.6-0.8-0.7c-0.3-0.1-0.6,0.1-0.8,0.7v22c0,0.5,0.1,0.9,0.3,1.3c0.2,0.4,0.5,0.6,0.9,0.6c0.6,0,1.1-0.2,1.4-0.6
	c0.3-0.4,0.6-0.9,0.9-1.3c0.2-0.4,0.5-0.8,0.7-1.2c0.3-0.4,0.7-0.5,1.2-0.5c0.6,0,1,0.2,1.2,0.5c0.2,0.3,0.3,0.7,0.3,1.2v6.6
	c0,0.3-0.1,0.6-0.2,0.7c-0.2,0.2-0.4,0.2-0.6,0.2H257c-0.5,0-0.8-0.2-0.8-0.6c0-0.2,0-0.4,0.1-0.5c0.1-0.1,0.1-0.2,0.2-0.3v0.1
	c0.1-0.2,0.3-0.5,0.4-0.9c0.2-0.4,0.2-1.2,0.2-2.3v-38.6c0-1.1-0.1-1.9-0.2-2.3c-0.2-0.4-0.3-0.7-0.4-0.9v0.1
	c-0.1-0.1-0.1-0.2-0.2-0.3c-0.1-0.1-0.1-0.3-0.1-0.5c0-0.4,0.3-0.7,0.8-0.7h10.7c0.2,0,0.4,0.1,0.6,0.3c0.2,0.2,0.2,0.4,0.2,0.8
	V284.8z M269.7,274.4c-0.1-1.1,0-1.1,0.5-1.2c1.1,0.1,2.1,0.3,3.2,0.4c0,0.3,0.1,0.6,0.1,0.8c-0.1,0-0.1,0-0.2,0.1
	c-0.1,0.1-0.3,0.1-0.4,0.2c-0.6,0.3-1.2,0.7-1.7,1.1c-0.1-0.2-0.3-0.4-0.4-0.5C270.5,275,270.1,274.7,269.7,274.4z M282.7,285.4
	c0,0.4-0.1,0.8-0.3,1.2c-0.2,0.3-0.6,0.5-1.2,0.5c-0.5,0-0.9-0.2-1.2-0.6c-0.3-0.4-0.5-0.9-0.8-1.5c-0.3-0.6-0.6-1.1-0.9-1.5
	c-0.3-0.5-0.8-0.7-1.4-0.7c-0.4,0-0.7,0.2-0.9,0.6c-0.2,0.4-0.3,0.8-0.3,1.3v4.7c0,1.3,0.1,2.6,0.3,3.7c0.2,1.1,0.5,2.2,0.8,3.2
	c0.3,1,0.7,2,1.1,2.9c0.4,0.9,0.9,1.8,1.3,2.7c0.8,1.6,1.6,3.2,2.2,4.8c0.6,1.7,0.9,3.5,0.9,5.6v5.3c0,1.1-0.1,2.1-0.3,3
	c-0.2,0.9-0.5,1.7-0.9,2.4c-0.4,0.7-0.9,1.2-1.6,1.6c-0.6,0.4-1.4,0.6-2.3,0.6h-5.4c-0.5,0-0.8-0.3-0.8-1v-7.2
	c0-0.4,0.1-0.8,0.3-1.2c0.2-0.3,0.6-0.5,1.2-0.5c0.5,0,0.9,0.2,1.2,0.6c0.3,0.4,0.5,0.9,0.8,1.5c0.3,0.6,0.6,1.1,0.9,1.5
	c0.3,0.5,0.8,0.7,1.4,0.7c0.4,0,0.7-0.2,0.9-0.6c0.2-0.4,0.3-0.8,0.3-1.3V313c0-1.5-0.3-3-0.8-4.4c-0.6-1.5-1.2-2.9-2-4.4
	c-0.5-0.9-0.9-1.9-1.4-2.9c-0.5-1-0.9-2.1-1.3-3.3c-0.4-1.1-0.7-2.4-0.9-3.7c-0.2-1.3-0.4-2.7-0.4-4.2v-5.3c0-2.1,0.4-3.9,1.2-5.4
	c0.8-1.4,2.1-2.1,3.9-2.1h5.4c0.5,0,0.8,0.3,0.8,1V285.4z M281.8,273.9h-0.9c1.2,0,2.4-0.1,3.6-0.1c0,0.2-0.1,0.3-0.1,0.5
	c-0.2,0.1-0.4,0.1-0.5,0.2C283.3,274.1,282.6,273.9,281.8,273.9z M298.3,284.8c0,0.2-0.1,0.6-0.2,1c-0.2,0.4-0.4,0.7-0.8,0.7
	c-0.5,0-0.9-0.2-1.1-0.5c-0.2-0.3-0.4-0.7-0.5-1.1h0c-0.1-0.3-0.3-0.6-0.4-0.8c-0.1-0.2-0.4-0.3-0.7-0.3c-0.4,0-0.6,0-0.7,0.1
	c-0.1,0.1-0.1,0.4-0.1,0.8v35.8c0,1.1,0.1,1.9,0.2,2.3c0.2,0.4,0.3,0.7,0.4,0.9v-0.1c0.1,0.1,0.1,0.2,0.2,0.3
	c0.1,0.1,0.1,0.3,0.1,0.5c0,0.4-0.3,0.6-0.8,0.6h-4.6c-0.5,0-0.8-0.2-0.8-0.6c0-0.2,0-0.4,0.1-0.5c0.1-0.1,0.1-0.2,0.2-0.3v0.1
	c0.1-0.2,0.3-0.5,0.4-0.9c0.2-0.4,0.2-1.2,0.2-2.3v-35.8c0-0.5,0-0.8-0.1-0.8c-0.1-0.1-0.3-0.1-0.6-0.1c-0.3,0-0.6,0.1-0.8,0.4
	c-0.2,0.2-0.3,0.5-0.4,0.8c-0.1,0.3-0.3,0.7-0.5,1c-0.2,0.4-0.6,0.5-1,0.5c-0.4,0-0.6-0.2-0.8-0.7c-0.1-0.4-0.2-0.8-0.2-1v-6.5
	c0-0.7,0.3-1,0.8-1h11.4c0.2,0,0.4,0.1,0.6,0.3c0.2,0.2,0.2,0.4,0.2,0.8V284.8z M301.2,286.9c0.2-0.6,0.3-1.1,0.3-1.6
	c0-0.2,0-0.3,0-0.5v-0.1v-1.2c1.8-0.9,3.5-1.9,5.2-3.1c1.4-1,2.7-2.1,4-3.2v6.2c0,1.7-0.2,2.9-0.8,3.6c-0.5,0.6-1.4,1-2.7,1h-6.6
	C300.9,287.7,301.1,287.3,301.2,286.9z M320.8,298.2c0,0.3-0.1,0.6-0.3,0.8c-0.2,0.2-0.6,0.3-1.2,0.3c-0.5,0-0.9-0.1-1.2-0.4
	c-0.3-0.2-0.5-0.5-0.7-0.8c-0.3-0.3-0.6-0.6-0.9-0.9c-0.3-0.3-0.8-0.4-1.4-0.4c-0.4,0-0.7,0.1-0.9,0.4c-0.2,0.3-0.3,0.6-0.3,0.9v4.1
	h0.5c0.1,0,0.2,0,0.3,0c0.1,0,0.2,0,0.3,0c0.1,0,0.2,0,0.3,0c0.1,0,0.2,0,0.3,0c0.5,0,0.9,0,1.2,0c0.3,0,0.6-0.1,0.8-0.1
	c0.2-0.1,0.4-0.1,0.5-0.2c0.1-0.1,0.2-0.1,0.3-0.2c0.1-0.1,0.2-0.1,0.3-0.2c0.1,0,0.2-0.1,0.4-0.1c0.3,0,0.5,0.2,0.5,0.6v3.5
	c0,0.4-0.2,0.6-0.5,0.6c-0.1,0-0.3,0-0.4-0.1c-0.1-0.1-0.2-0.1-0.3-0.2c-0.2-0.1-0.5-0.2-0.8-0.3c-0.4-0.1-1-0.2-2-0.2
	c-0.1,0-0.3,0-0.4,0c-0.1,0-0.2,0-0.3,0c-0.1,0-0.2,0-0.2,0c-0.1,0-0.1,0-0.2,0c-0.1,0-0.2,0-0.3,0c-0.1,0-0.2,0-0.3,0.1V322
	c0,0.8,0.1,1.3,0.2,1.5c0.2,0.3,0.3,0.5,0.4,0.6v0c0.1,0.1,0.1,0.1,0.2,0.2c0.1,0.1,0.1,0.2,0.1,0.4c0,0.3-0.3,0.4-0.8,0.4h-4.7
	c-0.5,0-0.8-0.1-0.8-0.4c0-0.2,0-0.3,0.1-0.4c0.1-0.1,0.1-0.1,0.2-0.2v0c0.1-0.1,0.3-0.3,0.4-0.6c0.2-0.3,0.2-0.8,0.2-1.5v-25.7
	c0-0.8-0.1-1.3-0.2-1.5c-0.2-0.3-0.3-0.5-0.4-0.6v0c-0.1-0.1-0.1-0.1-0.2-0.2c-0.1-0.1-0.1-0.2-0.1-0.4c0-0.3,0.3-0.4,0.8-0.4H320
	c0.2,0,0.4,0.1,0.6,0.2c0.2,0.1,0.2,0.3,0.2,0.5V298.2z M335.3,298.2c0,0.3-0.1,0.6-0.3,0.8c-0.2,0.2-0.6,0.3-1.2,0.3
	c-0.5,0-0.9-0.1-1.2-0.4c-0.3-0.2-0.5-0.5-0.7-0.8c-0.3-0.3-0.6-0.6-0.9-0.9c-0.3-0.3-0.8-0.4-1.4-0.4c-0.4,0-0.7,0.1-0.9,0.4
	c-0.2,0.3-0.3,0.6-0.3,0.9v4.5c0.6-0.7,1.2-1.1,1.9-1.2c0.7-0.1,1.3,0.1,1.9,0.6c0.2,0.2,0.5,0.4,0.7,0.5c0.3,0.1,0.5,0.1,0.8,0
	c0.3-0.3,0.5-0.4,0.6-0.3c0.1,0.1,0.2,0.3,0.2,0.5c0,0.3,0,0.6-0.1,0.9c-0.1,0.3-0.2,0.6-0.3,0.9c-0.3,0.7-0.6,1.2-1,1.5
	c-0.4,0.3-0.9,0.4-1.4,0.4c-0.4,0-0.7-0.1-0.9-0.4c-0.3-0.3-0.6-0.5-0.8-0.7c-0.3-0.2-0.5-0.4-0.8-0.4c-0.3-0.1-0.6,0.1-0.8,0.5
	v14.6c0,0.3,0.1,0.6,0.3,0.9c0.2,0.3,0.5,0.4,0.9,0.4c0.6,0,1.1-0.1,1.4-0.4c0.3-0.3,0.6-0.6,0.9-0.9c0.2-0.3,0.5-0.6,0.7-0.8
	c0.3-0.2,0.7-0.4,1.2-0.4c0.6,0,1,0.1,1.2,0.3c0.2,0.2,0.3,0.5,0.3,0.8v4.4c0,0.2-0.1,0.4-0.2,0.5c-0.2,0.1-0.4,0.2-0.6,0.2h-10.7
	c-0.5,0-0.8-0.1-0.8-0.4c0-0.2,0-0.3,0.1-0.4c0.1-0.1,0.1-0.1,0.2-0.2v0c0.1-0.1,0.3-0.3,0.4-0.6c0.2-0.3,0.2-0.8,0.2-1.5v-25.7
	c0-0.8-0.1-1.3-0.2-1.5c-0.2-0.3-0.3-0.5-0.4-0.6v0c-0.1-0.1-0.1-0.1-0.2-0.2c-0.1-0.1-0.1-0.2-0.1-0.4c0-0.3,0.3-0.4,0.8-0.4h10.7
	c0.2,0,0.4,0.1,0.6,0.2c0.2,0.1,0.2,0.3,0.2,0.5V298.2z M351.1,325.1h-5c-0.5,0-0.8-0.1-0.8-0.4c0-0.2,0.1-0.3,0.2-0.5
	c0.4-0.3,0.7-0.9,0.8-1.6c0.1-0.8,0.1-1.5,0.1-2.2c0-0.9-0.1-1.8-0.2-2.5c-0.1-0.7-0.3-1.4-0.5-2c-0.2-0.6-0.5-1.1-0.8-1.6
	c-0.3-0.5-0.6-0.9-0.9-1.3c-0.2,0.1-0.4,0.3-0.6,0.4c-0.2,0.1-0.4,0.2-0.6,0.4v6.3c0,2,0,3.1,0.2,3.4c0.1,0.2,0.3,0.4,0.4,0.6v0
	c0.1,0.1,0.1,0.1,0.2,0.2c0.1,0.1,0.1,0.2,0.1,0.4c0,0.3-0.3,0.4-0.8,0.4h-4.6c-0.5,0-0.8-0.1-0.8-0.4c0-0.2,0-0.3,0.1-0.4
	c0.1-0.1,0.1-0.1,0.2-0.2v0c0.1-0.1,0.3-0.3,0.4-0.6c0.2-0.3,0.2-0.8,0.2-1.5v-25.7c0-0.8-0.1-1.3-0.2-1.5c-0.2-0.3-0.3-0.5-0.4-0.6
	v0c-0.1-0.1-0.1-0.1-0.2-0.2c-0.1-0.1-0.1-0.2-0.1-0.4c0-0.3,0.3-0.4,0.8-0.4h7.5c0.9,0,1.7,0.1,2.3,0.4c0.6,0.3,1.1,0.6,1.6,1
	c0.4,0.4,0.7,1,0.9,1.6c0.2,0.6,0.3,1.3,0.3,2v6.5c0,1.4-0.3,2.7-0.9,3.6c-0.6,1-1.4,1.8-2.3,2.5c0.8,1.2,1.5,2.1,1.9,2.8
	c0.4,0.7,0.7,1.4,0.9,2.2c0.2,0.7,0.3,1.5,0.3,2.5c0,0.9,0.1,2.2,0.1,3.8c0.1,0.5,0.2,1,0.3,1.3c0.2,0.3,0.3,0.5,0.5,0.7
	c0.1,0.1,0.2,0.2,0.2,0.3c0.1,0.1,0.1,0.2,0.1,0.4C351.9,325,351.6,325.1,351.1,325.1z M367.5,325.1h-5c-0.5,0-0.8-0.1-0.8-0.4
	c0-0.2,0.1-0.3,0.2-0.5c0.4-0.3,0.7-0.9,0.8-1.6c0.1-0.8,0.1-1.5,0.1-2.2c0-0.9-0.1-1.8-0.2-2.5c-0.1-0.7-0.3-1.4-0.5-2
	c-0.2-0.6-0.5-1.1-0.8-1.6c-0.3-0.5-0.6-0.9-0.9-1.3c-0.2,0.1-0.4,0.3-0.6,0.4c-0.2,0.1-0.4,0.2-0.6,0.4v6.3c0,2,0,3.1,0.2,3.4
	c0.1,0.2,0.3,0.4,0.4,0.6v0c0.1,0.1,0.1,0.1,0.2,0.2c0.1,0.1,0.1,0.2,0.1,0.4c0,0.3-0.3,0.4-0.8,0.4h-4.6c-0.5,0-0.8-0.1-0.8-0.4
	c0-0.2,0-0.3,0.1-0.4c0.1-0.1,0.1-0.1,0.2-0.2v0c0.1-0.1,0.3-0.3,0.4-0.6c0.2-0.3,0.2-0.8,0.2-1.5v-25.7c0-0.8-0.1-1.3-0.2-1.5
	c-0.2-0.3-0.3-0.5-0.4-0.6v0c-0.1-0.1-0.1-0.1-0.2-0.2c-0.1-0.1-0.1-0.2-0.1-0.4c0-0.3,0.3-0.4,0.8-0.4h7.5c0.9,0,1.7,0.1,2.3,0.4
	c0.6,0.3,1.1,0.6,1.6,1c0.4,0.4,0.7,1,0.9,1.6c0.2,0.6,0.3,1.3,0.3,2v6.5c0,1.4-0.3,2.7-0.9,3.6c-0.6,1-1.4,1.8-2.3,2.5
	c0.8,1.2,1.5,2.1,1.9,2.8c0.4,0.7,0.7,1.4,0.9,2.2c0.2,0.7,0.3,1.5,0.3,2.5c0,0.9,0.1,2.2,0.1,3.8c0.1,0.5,0.2,1,0.3,1.3
	c0.2,0.3,0.3,0.5,0.5,0.7c0.1,0.1,0.2,0.2,0.2,0.3c0.1,0.1,0.1,0.2,0.1,0.4C368.2,325,368,325.1,367.5,325.1z M385,294
	c-0.1,0.1-0.1,0.1-0.2,0.2v0c-0.1,0.1-0.3,0.3-0.4,0.6c-0.2,0.3-0.2,0.8-0.2,1.5V319c0,1-0.2,1.9-0.5,2.7c-0.3,0.8-0.8,1.4-1.4,1.9
	c-0.6,0.5-1.3,0.9-2.1,1.2c-0.8,0.3-1.6,0.4-2.4,0.4c-0.8,0-1.6-0.1-2.4-0.3c-0.8-0.2-1.4-0.5-2-0.9c-0.6-0.4-1.1-1-1.4-1.7
	c-0.4-0.7-0.5-1.6-0.5-2.6v-23.3c0-0.8-0.1-1.3-0.2-1.5c-0.2-0.3-0.3-0.5-0.4-0.6v0c-0.1-0.1-0.1-0.1-0.2-0.2
	c-0.1-0.1-0.1-0.2-0.1-0.4c0-0.2,0.2-0.3,0.6-0.4c0.1,0,0.1,0,0.1,0c0,0,0,0,0.1,0h4.7c0.5,0,0.8,0.1,0.8,0.4c0,0.2,0,0.3-0.1,0.4
	c-0.1,0.1-0.1,0.1-0.2,0.2v0c-0.1,0.1-0.3,0.3-0.4,0.6c-0.2,0.3-0.2,0.8-0.2,1.5v22.3c0,0.5,0,0.9,0,1.3c0,0.4,0.1,0.8,0.2,1
	c0.1,0.3,0.3,0.5,0.6,0.7c0.3,0.2,0.7,0.2,1.1,0.2c0.5,0,0.9-0.1,1.2-0.2c0.3-0.2,0.5-0.4,0.6-0.7c0.1-0.3,0.2-0.6,0.2-1
	c0-0.4,0-0.8,0-1.3v-22.3c0-0.8-0.1-1.3-0.2-1.5c-0.2-0.3-0.3-0.5-0.4-0.6v0c-0.1-0.1-0.1-0.1-0.2-0.2c-0.1-0.1-0.1-0.2-0.1-0.4
	c0-0.2,0.2-0.3,0.6-0.4c0.1,0,0.1,0,0.1,0c0,0,0,0,0.1,0h4.7c0.5,0,0.8,0.1,0.8,0.4C385.1,293.8,385.1,293.9,385,294z M408.6,294.8
	c-0.2,0.3-0.2,0.8-0.2,1.5V322c0,0.8,0.1,1.3,0.2,1.5c0.2,0.3,0.3,0.5,0.5,0.6v0c0.1,0.1,0.1,0.1,0.2,0.2c0.1,0.1,0.1,0.2,0.1,0.4
	c0,0.3-0.3,0.4-0.8,0.4h-4.6c-0.5,0-0.8-0.1-0.8-0.4c0-0.2,0-0.3,0.1-0.4c0.1-0.1,0.1-0.1,0.2-0.2v0c0.1-0.1,0.3-0.3,0.4-0.6
	c0.2-0.3,0.2-0.8,0.2-1.5v-24.1c0-0.3-0.2-0.4-0.6-0.3c-0.4,0.1-0.8,0.3-1.2,0.8c-0.4,0.4-0.9,1.1-1.2,1.9c-0.4,0.8-0.6,1.9-0.6,3.2
	V322c0,0.8,0.1,1.3,0.2,1.5c0.2,0.3,0.3,0.5,0.4,0.6v0c0.1,0.1,0.1,0.1,0.2,0.2c0.1,0.1,0.1,0.2,0.1,0.4c0,0.3-0.3,0.4-0.8,0.4h-4.6
	c-0.5,0-0.8-0.1-0.8-0.4c0-0.2,0-0.3,0.1-0.4c0.1-0.1,0.1-0.1,0.2-0.2v0c0.1-0.1,0.3-0.3,0.4-0.6c0.2-0.3,0.2-0.8,0.2-1.5v-18.6
	c0-1.2-0.2-2.3-0.6-3.2c-0.4-0.9-0.8-1.6-1.2-2c-0.4-0.5-0.9-0.8-1.2-0.9c-0.4-0.1-0.6-0.1-0.6,0.2V322c0,0.8,0.1,1.3,0.2,1.5
	c0.2,0.3,0.3,0.5,0.4,0.6v0c0.1,0.1,0.1,0.1,0.2,0.2c0.1,0.1,0.1,0.2,0.1,0.4c0,0.3-0.3,0.4-0.8,0.4H388c-0.5,0-0.8-0.1-0.8-0.4
	c0-0.2,0-0.3,0.1-0.4c0.1-0.1,0.1-0.1,0.2-0.2v0c0.2-0.1,0.3-0.3,0.5-0.6c0.2-0.3,0.2-0.8,0.2-1.5v-25.7c0-0.8-0.1-1.3-0.2-1.5
	c-0.2-0.3-0.3-0.5-0.5-0.6v0c-0.1-0.1-0.1-0.1-0.2-0.2c-0.1-0.1-0.1-0.2-0.1-0.4c0-0.2,0.2-0.4,0.6-0.4c0.1,0,0.1,0,0.1,0
	c0,0,0,0,0.1,0h4.6c0.5,0,0.9,0.1,1.5,0.4c0.5,0.2,1,0.5,1.5,0.9c0.5,0.4,0.9,0.8,1.2,1.2c0.3,0.5,0.6,0.9,0.8,1.3
	c0,0,0,0.1,0.1,0.2c0.2,0.2,0.4,0.4,0.6,0.4c0.4,0,0.6-0.1,0.6-0.3c0,0,0-0.1,0-0.2c0.2-0.5,0.4-0.9,0.8-1.4
	c0.4-0.5,0.8-0.9,1.2-1.2c0.5-0.4,0.9-0.7,1.5-0.9c0.5-0.2,1-0.3,1.5-0.3h4.6c0.5,0,0.8,0.1,0.8,0.4c0,0.2,0,0.3-0.1,0.4
	c-0.1,0.1-0.1,0.1-0.2,0.2v0C408.9,294.3,408.7,294.5,408.6,294.8z"/>
<path class="st0" d="M361,297c-0.1,0-0.2,0-0.3,0c-0.1,0-0.2,0-0.3,0c-0.6,0-1,0.1-1.1,0.4c-0.1,0.2-0.2,0.5-0.2,0.9v10.2
	c0.6-0.3,1.1-0.6,1.5-0.9c0.4-0.3,0.8-0.6,1.1-1c0.3-0.4,0.5-0.8,0.7-1.3c0.1-0.5,0.2-1.1,0.2-1.7v-5.3c0-0.3-0.2-0.6-0.5-0.9
	C361.7,297.1,361.4,297,361,297z"/>
<path class="st0" d="M144.6,200.5l15.7,1.2c0.8,0.1,1.6,0,2.3-0.2c0.7-0.2,1.4-0.6,2-1c0.6-0.4,1-1,1.4-1.6c0.3-0.6,0.5-1.2,0.6-1.9
	l0.3-3.4c0-0.4,0-0.7-0.1-0.9c-0.1-0.2-0.4-0.3-0.8-0.3l-16.8-1.2c-0.2,0-0.3,0-0.4,0.2c-0.1,0.1-0.2,0.3-0.2,0.5l-0.2,3.3
	c0,0.5,0.1,0.7,0.5,0.7l1.7,0.1c0.2,0,0.3,0,0.4-0.2c0.1-0.1,0.1-0.3,0.2-0.4c0-0.3,0.1-0.4,0.2-0.5c0.1,0,0.2,0,0.4,0l10.8,0.8
	c0.3,0,0.5,0.1,0.7,0.1c0.2,0.1,0.3,0.2,0.3,0.5c0,0.3-0.1,0.5-0.3,0.7c-0.2,0.2-0.4,0.4-0.7,0.6c-0.3,0.2-0.5,0.3-0.8,0.4
	c-0.3,0.1-0.5,0.1-0.7,0.1l-15.9-1.2c-0.3,0-0.5-0.1-0.6-0.2c-0.1-0.1-0.2-0.3-0.3-0.5c-0.1-0.2-0.1-0.4-0.1-0.6c0-0.2,0-0.4,0-0.5
	c0-0.5,0.2-0.9,0.5-1.1c0.3-0.2,0.6-0.4,1-0.6c0.3-0.1,0.6-0.3,0.9-0.6c0.3-0.2,0.4-0.5,0.5-1c0-0.5,0-0.8-0.2-1
	c-0.2-0.2-0.4-0.3-0.6-0.3l-3.3-0.2c-0.5,0-0.9,0.1-1.2,0.5c-0.3,0.3-0.5,0.8-0.5,1.4l-0.3,3.8c-0.1,1.4,0.2,2.5,0.9,3.2
	C142.5,200,143.4,200.4,144.6,200.5z"/>
<path class="st0" d="M141.8,186.4c0,0.3,0.1,0.5,0.2,0.5c0.1,0,0.2,0,0.3,0c0.1,0,0.1-0.1,0.2-0.1l0,0c0.1-0.1,0.3-0.2,0.5-0.3
	c0.2-0.1,0.7-0.1,1.2,0l20.4,3.5c0.6,0.1,1,0.2,1.2,0.4c0.2,0.2,0.3,0.3,0.4,0.4l0,0c0,0.1,0.1,0.1,0.1,0.2c0.1,0.1,0.1,0.1,0.3,0.1
	c0.2,0,0.4-0.1,0.4-0.6l1.5-8.6c0-0.2,0-0.4,0-0.5c-0.1-0.1-0.2-0.2-0.4-0.3l-9.2-1.6c-0.2,0-0.3,0-0.4,0.1
	c-0.1,0.1-0.2,0.3-0.2,0.5l-0.5,2.9c0,0.1,0,0.3,0.1,0.4c0.1,0.1,0.2,0.2,0.3,0.2c0.2,0,0.3,0,0.4,0c0.1,0,0.1-0.1,0.1-0.1
	c0.1-0.1,0.1-0.2,0.3-0.3c0.1-0.1,0.3-0.1,0.6,0l4.9,0.8c0.2,0,0.3,0.1,0.4,0.3c0.1,0.2,0.1,0.4,0.1,0.7l-0.1,0.4
	c0,0.3-0.1,0.5-0.3,0.6c-0.1,0.2-0.3,0.2-0.5,0.2l-19.3-3.3c-0.6-0.1-1-0.2-1.2-0.4c-0.2-0.2-0.3-0.3-0.4-0.4l0,0
	c0,0-0.1-0.1-0.1-0.2c-0.1-0.1-0.1-0.1-0.3-0.1c-0.2,0-0.4,0.1-0.5,0.5l-0.6,3.7C141.8,186.3,141.8,186.3,141.8,186.4
	C141.8,186.3,141.8,186.3,141.8,186.4z"/>
<path class="st0" d="M146.1,173.3c0.4,0.4,0.9,0.7,1.5,0.9l18.2,5c0.6,0.2,1.2,0.2,1.8,0c0.5-0.2,1-0.4,1.4-0.8
	c0.4-0.4,0.7-0.8,1-1.3c0.3-0.5,0.5-1,0.6-1.5c0.1-0.5,0.2-1.1,0.3-1.7c0-0.6,0-1.1-0.2-1.6c-0.2-0.5-0.4-1-0.8-1.4
	c-0.4-0.4-0.9-0.7-1.5-0.9l-18.2-5c-0.6-0.2-1.2-0.2-1.8,0c-0.5,0.1-1,0.4-1.4,0.8c-0.4,0.4-0.7,0.8-1,1.3c-0.3,0.5-0.5,1-0.7,1.6
	c-0.2,0.6-0.2,1.1-0.3,1.7c0,0.6,0.1,1.1,0.2,1.6C145.4,172.5,145.7,172.9,146.1,173.3z M148.5,169.5c0.1-0.5,0.4-0.8,0.6-0.9
	c0.3-0.1,0.6,0,1,0.1l16.4,4.5c0.1,0,0.3,0.1,0.4,0.1c0.1,0.1,0.3,0.2,0.4,0.3c0.1,0.1,0.2,0.3,0.2,0.4c0,0.2,0,0.4,0,0.7
	c-0.1,0.3-0.2,0.5-0.3,0.6c-0.1,0.1-0.3,0.2-0.4,0.3c-0.2,0-0.3,0.1-0.5,0c-0.2,0-0.3,0-0.4-0.1l-16.4-4.5c-0.4-0.1-0.7-0.3-0.9-0.4
	C148.4,170.4,148.4,170,148.5,169.5z"/>
<path class="st0" d="M148.5,160.8c0.1,0,0.1,0,0.2-0.1l0,0c0.1-0.1,0.3-0.1,0.6-0.2c0.2,0,0.7,0,1.2,0.3l19.3,7.5
	c0.6,0.2,0.9,0.4,1.1,0.6c0.2,0.2,0.3,0.4,0.3,0.5l0,0c0,0.1,0.1,0.1,0.1,0.2c0,0.1,0.1,0.1,0.2,0.2c0.2,0.1,0.4-0.1,0.5-0.5
	l2.4-6.3c0.3-0.7,0.4-1.4,0.4-1.9c0-0.6-0.1-1-0.4-1.5c-0.2-0.4-0.6-0.8-1-1.1c-0.4-0.3-0.9-0.6-1.4-0.8c-1-0.4-1.9-0.6-2.7-0.8
	c-0.8-0.2-1.6-0.3-2.4-0.3c-0.8,0-1.5,0-2.2,0.1c-0.7,0.1-1.5,0.1-2.3,0.2c-0.3,0.1-0.7,0.1-1,0.1c-0.2-0.4-0.5-0.8-0.9-1.4
	c-0.4-0.5-0.9-1.1-1.5-1.7c-0.6-0.6-1.3-1.1-2-1.6c-0.7-0.5-1.5-0.9-2.3-1.2c-0.4-0.1-0.8-0.2-1.2-0.1c-0.4,0.1-0.8,0.2-1.2,0.4
	c-0.4,0.2-0.8,0.5-1.1,0.9c-0.3,0.4-0.6,0.8-0.8,1.3l-2.4,6.3c-0.1,0.4-0.1,0.6,0.1,0.7C148.3,160.8,148.4,160.8,148.5,160.8z
	 M164.7,160.4c0.6,0,1.2,0,1.8,0.1c0.6,0.1,1.2,0.2,1.9,0.3c0.6,0.1,1.3,0.3,1.9,0.6c0.2,0.1,0.4,0.2,0.5,0.2
	c0.2,0.1,0.3,0.2,0.4,0.4c0.1,0.1,0.2,0.3,0.2,0.6c0,0.2-0.1,0.5-0.2,0.8c-0.2,0.4-0.3,0.8-0.6,1.1c-0.2,0.3-0.6,0.4-1,0.2l-5.7-2.2
	l-0.7-1.8C163.6,160.4,164.1,160.4,164.7,160.4z M152.7,156.6c0.1-0.3,0.3-0.5,0.5-0.6c0.2-0.1,0.4-0.2,0.6-0.3c0.2,0,0.5,0,0.7,0
	c0.2,0,0.5,0.1,0.7,0.2c0.6,0.2,1.1,0.5,1.7,0.9c0.5,0.4,1,0.8,1.4,1.2c0.4,0.4,0.8,0.9,1.1,1.4c0.3,0.5,0.6,1,0.8,1.4l-6.9-2.7
	c-0.3-0.1-0.5-0.3-0.6-0.5C152.4,157.4,152.5,157,152.7,156.6z"/>
<path class="st0" d="M156.8,147.7c0.1,0.1,0.2,0.1,0.4,0.1c0.1,0,0.2,0,0.3-0.2c0.1-0.1,0.1-0.2,0.1-0.3c0-0.1-0.1-0.1-0.1-0.2
	c-0.1-0.1-0.1-0.2-0.1-0.3c0-0.1,0-0.3,0.1-0.5c0.1-0.2,0.3-0.4,0.4-0.4c0.2,0,0.3,0,0.5,0.1l16.2,10.4c0.5,0.3,0.8,0.6,0.9,0.9
	c0.1,0.3,0.2,0.5,0.2,0.7c0,0.2,0.1,0.4,0.2,0.5c0.2,0.1,0.4,0,0.6-0.4l1.7-3.3c0.2-0.4,0.2-0.6,0-0.7c-0.1,0-0.2-0.1-0.2-0.1
	c-0.1,0-0.1,0-0.2,0l0,0c-0.1,0-0.3,0-0.5,0c-0.2,0-0.6-0.2-1.1-0.5l-8.3-5.3c-0.4-0.2-0.5-0.6-0.3-0.9l0.3-0.6
	c0.2-0.3,0.5-0.4,0.9-0.2l8.7,4.5c0.5,0.3,0.9,0.5,1,0.7c0.1,0.2,0.2,0.4,0.3,0.5l0,0c0,0.1,0,0.1,0.1,0.2c0,0.1,0.1,0.1,0.2,0.2
	c0.2,0.1,0.4,0,0.6-0.4l1.7-3.3c0.2-0.4,0.2-0.6,0-0.7c-0.1-0.1-0.2-0.1-0.3-0.1c-0.1,0-0.1,0-0.2,0l0,0c-0.1,0-0.3,0.1-0.6,0.1
	c-0.3,0-0.6-0.1-1.2-0.4l-17.9-9.3c-0.3-0.2-0.6-0.4-0.7-0.6c-0.1-0.2-0.2-0.4-0.3-0.7c-0.1-0.2-0.1-0.3-0.2-0.5
	c-0.1-0.2-0.2-0.3-0.5-0.4c-0.1-0.1-0.3-0.1-0.4,0c-0.2,0-0.3,0.1-0.3,0.3l-4.7,9c-0.1,0.2-0.1,0.3-0.1,0.5c0,0.2,0.1,0.3,0.3,0.4
	L156.8,147.7z M159.6,142.3l0.1-0.1c0.2-0.3,0.5-0.4,0.9-0.2l4.4,2.3c0.4,0.2,0.5,0.5,0.3,0.8l-0.3,0.6c-0.2,0.4-0.5,0.5-0.9,0.2
	l-4.2-2.6C159.5,143,159.4,142.7,159.6,142.3z"/>
<path class="st0" d="M161.3,133.4c0.1,0,0.1,0,0.2,0l0,0c0.1,0,0.4,0,0.6,0c0.3,0,0.6,0.2,1.1,0.5l17.3,11.4
	c0.5,0.3,0.8,0.6,0.9,0.8c0.1,0.2,0.2,0.4,0.2,0.6l0,0c0,0.1,0,0.1,0.1,0.2c0,0.1,0.1,0.1,0.2,0.2c0.2,0.1,0.4,0,0.6-0.3l4.8-7.3
	c0.1-0.2,0.2-0.3,0.2-0.5c0-0.2-0.1-0.3-0.2-0.4l-7.8-5.1c-0.1-0.1-0.3-0.1-0.4-0.1c-0.1,0.1-0.3,0.2-0.4,0.3l-1.6,2.5
	c-0.1,0.1-0.1,0.3-0.1,0.4c0,0.2,0.1,0.3,0.2,0.3c0.2,0.1,0.3,0.2,0.3,0.1c0.1,0,0.1,0,0.2-0.1c0.1-0.1,0.2-0.1,0.3-0.1
	c0.1,0,0.3,0,0.6,0.2l4.1,2.7c0.2,0.1,0.2,0.3,0.2,0.5c0,0.2-0.1,0.4-0.2,0.7l-0.2,0.4c-0.1,0.2-0.3,0.4-0.5,0.4
	c-0.2,0.1-0.4,0.1-0.5,0L165.2,131c-0.5-0.3-0.8-0.6-0.9-0.8c-0.1-0.2-0.2-0.4-0.2-0.6l0,0c0-0.1,0-0.1-0.1-0.2
	c0-0.1-0.1-0.1-0.2-0.2c-0.2-0.1-0.4,0-0.6,0.3l-2.1,3.1c0,0,0,0.1,0,0.1c0,0,0,0,0,0.1c-0.1,0.3-0.1,0.5,0,0.6
	C161.2,133.4,161.3,133.4,161.3,133.4z"/>
<path class="st0" d="M173.4,116.6c0.1,0,0.1,0,0.2,0l0,0c0.2,0,0.4,0,0.6,0.1c0.2,0,0.6,0.3,1,0.7l15.4,13.9c0.5,0.4,0.7,0.7,0.8,1
	c0.1,0.2,0.1,0.4,0.1,0.6l0,0c0,0.1,0,0.1,0,0.2c0,0.1,0.1,0.2,0.2,0.2c0.2,0.1,0.4,0.1,0.7-0.2l2.5-2.8c0.3-0.3,0.3-0.5,0.2-0.7
	c-0.1-0.1-0.2-0.1-0.3-0.1c-0.1,0-0.1,0-0.2,0l0,0c-0.2,0-0.4,0-0.6-0.1c-0.2,0-0.6-0.3-1-0.7l-9.7-8.7c0-0.1,0.1-0.2,0.1-0.2
	c0,0,0.1-0.1,0.2-0.2c0,0,0.1-0.1,0.1-0.1c0,0,0.1-0.1,0.1-0.1c0-0.1,0.1-0.2,0.2-0.2c0.1-0.1,0.1-0.1,0.2-0.2
	c0.5-0.6,0.9-1,1.2-1.1c0.3-0.2,0.5-0.3,0.6-0.3c0.1,0,0.2-0.1,0.3-0.1c0.1,0,0.2-0.1,0.3-0.2c0.2-0.2,0.1-0.4-0.1-0.6l-2.1-1.9
	c-0.3-0.2-0.5-0.2-0.7,0c-0.1,0.1-0.2,0.2-0.2,0.3c0,0.1,0,0.2,0,0.3c0,0.1,0,0.2-0.1,0.3c0,0.1-0.1,0.2-0.2,0.4
	c-0.1,0.2-0.2,0.3-0.4,0.5c-0.2,0.2-0.4,0.5-0.7,0.7c-0.1,0.1-0.2,0.1-0.2,0.2c-0.1,0.1-0.1,0.1-0.2,0.2c-0.1,0.1-0.1,0.1-0.2,0.2
	c-0.1,0-0.1,0.1-0.2,0.2l-0.3,0.3l-2.4-2.2c-0.2-0.2-0.3-0.4-0.4-0.7c-0.1-0.3,0-0.5,0.2-0.8c0.3-0.4,0.7-0.6,1-0.6
	c0.3,0,0.7-0.1,1-0.1c0.3,0,0.6,0,0.9,0c0.3,0,0.6-0.2,0.9-0.5c0.3-0.3,0.4-0.6,0.4-0.9c0-0.3-0.1-0.5-0.3-0.6l-2.6-2.3
	c-0.1-0.1-0.3-0.2-0.4-0.1c-0.2,0-0.3,0.1-0.4,0.3l-5.8,6.4c-0.3,0.3-0.3,0.5-0.1,0.7C173.2,116.6,173.3,116.6,173.4,116.6z"/>
<path class="st0" d="M182.4,106.9c0.1,0,0.1,0,0.2,0l0,0c0.2,0,0.4,0,0.6,0.1c0.2,0.1,0.6,0.3,1,0.8l14,15.3c0.4,0.4,0.6,0.8,0.7,1
	c0.1,0.2,0.1,0.4,0.1,0.6l0,0c0,0.1,0,0.1,0,0.2c0,0.1,0.1,0.2,0.2,0.3c0.1,0.2,0.4,0.1,0.7-0.2l6.3-5.8c0.1-0.1,0.2-0.3,0.3-0.4
	c0-0.2,0-0.3-0.1-0.4l-2.4-2.6c-0.2-0.2-0.4-0.3-0.6-0.3c-0.3,0-0.6,0.1-0.9,0.4c-0.3,0.3-0.5,0.6-0.5,0.9c0,0.3,0,0.6,0,0.9
	c0,0.3,0,0.7-0.1,1c0,0.3-0.2,0.7-0.6,1c-0.2,0.2-0.5,0.3-0.8,0.3s-0.5-0.2-0.7-0.4l-7.7-8.4c0.1-0.1,0.1-0.2,0.1-0.2
	c0,0,0.1-0.1,0.2-0.2c0,0,0.1-0.1,0.1-0.1c0,0,0.1-0.1,0.1-0.1c0-0.1,0.1-0.1,0.2-0.2c0.1-0.1,0.1-0.1,0.2-0.2c0.6-0.5,1-0.9,1.3-1
	c0.3-0.1,0.5-0.2,0.7-0.2c0.1,0,0.2,0,0.3-0.1c0.1,0,0.2-0.1,0.3-0.2c0.2-0.2,0.2-0.4-0.1-0.6l-1.9-2.1c-0.2-0.3-0.5-0.3-0.7-0.1
	c-0.1,0.1-0.2,0.2-0.2,0.3s0,0.2-0.1,0.3c0,0.1,0,0.2-0.1,0.3c0,0.1-0.1,0.2-0.2,0.4c-0.1,0.1-0.2,0.3-0.4,0.5
	c-0.2,0.2-0.4,0.4-0.7,0.7c-0.1,0.1-0.2,0.1-0.2,0.2c-0.1,0.1-0.1,0.1-0.2,0.2c-0.1,0.1-0.1,0.1-0.2,0.2c-0.1,0-0.1,0.1-0.2,0.2
	l-0.3,0.3l-2.2-2.4c-0.2-0.2-0.3-0.4-0.3-0.7c0-0.3,0.1-0.5,0.3-0.7c0.4-0.3,0.7-0.5,1.1-0.5c0.3,0,0.7,0,1,0
	c0.3,0.1,0.6,0.1,0.9,0.1c0.3,0,0.6-0.2,0.9-0.5c0.3-0.3,0.5-0.6,0.5-0.9c0-0.3-0.1-0.5-0.2-0.7l-2.4-2.6c-0.1-0.1-0.3-0.2-0.4-0.2
	c-0.2,0-0.3,0.1-0.5,0.2l-6.3,5.8c-0.3,0.3-0.4,0.5-0.2,0.7C182.2,106.8,182.3,106.9,182.4,106.9z"/>
<path class="st0" d="M192.5,97.8c0.1,0,0.1,0,0.2,0.1l0,0c0.2,0,0.3,0.1,0.6,0.2c0.2,0.1,0.5,0.4,0.9,0.9l12.4,16.6
	c0.4,0.5,0.6,0.9,0.6,1.1c0,0.3,0,0.5,0,0.6l0,0c0,0.1,0,0.1,0,0.2c0,0.1,0,0.2,0.1,0.3c0.1,0.2,0.4,0.1,0.7-0.1l4.7-3.5
	c0.6-0.4,0.8-1.1,0.9-2.1c0-1-0.3-2.2-0.9-3.7c-0.6-1.5-1.6-3.3-2.9-5.4c-1.3-2.1-3-4.5-5-7.3c-0.5-0.6-1-1.2-1.5-1.8
	c-0.5-0.5-1.1-0.9-1.7-1.2c-0.6-0.3-1.2-0.4-1.9-0.3c-0.6,0.1-1.3,0.4-2,0.9l-5.1,3.8c0,0-0.1,0-0.1,0.1c0,0,0,0-0.1,0.1
	c-0.2,0.2-0.3,0.4-0.2,0.5C192.4,97.7,192.4,97.7,192.5,97.8z M197.7,97c0.1-0.3,0.4-0.5,0.7-0.8c0.6-0.4,1.1-0.5,1.7-0.2
	c0.5,0.3,1.1,0.9,1.7,1.7c0.7,0.9,1.3,1.8,2.1,2.9c0.7,1,1.4,2.1,2,3.1c0.7,1,1.3,2.1,1.8,3c0.6,1,1,1.9,1.4,2.7
	c0.4,0.8,0.6,1.5,0.7,2c0.1,0.6,0.1,0.9-0.1,1.1c-0.3,0.2-0.5,0.3-0.7,0.2c-0.1-0.1-0.3-0.2-0.4-0.4l-10.7-14.3
	C197.6,97.6,197.6,97.3,197.7,97z"/>
<path class="st0" d="M204.5,89.1c0.1,0,0.1,0.1,0.2,0.1l0,0c0.1,0,0.3,0.1,0.6,0.2c0.2,0.1,0.5,0.4,0.8,1l10.6,17.8
	c0.3,0.5,0.5,0.9,0.5,1.2c0,0.3,0,0.5-0.1,0.6l0,0c0,0.1,0,0.1,0,0.2c0,0.1,0,0.2,0.1,0.3c0.1,0.2,0.3,0.2,0.7,0l7.4-4.4
	c0.2-0.1,0.3-0.2,0.4-0.4c0.1-0.1,0.1-0.3,0-0.4l-1.8-3c-0.1-0.2-0.3-0.3-0.6-0.4c-0.3-0.1-0.6,0-1,0.3c-0.4,0.2-0.6,0.5-0.7,0.8
	c-0.1,0.3-0.2,0.6-0.2,0.9c-0.1,0.3-0.1,0.6-0.3,1c-0.1,0.3-0.4,0.6-0.8,0.9c-0.3,0.2-0.5,0.2-0.8,0.1c-0.2-0.1-0.4-0.3-0.6-0.5
	l-5.9-9.8c0.1-0.1,0.1-0.2,0.2-0.2c0.1,0,0.1-0.1,0.2-0.1c0.1,0,0.1-0.1,0.1-0.1c0,0,0.1-0.1,0.1-0.1c0.1-0.1,0.1-0.1,0.2-0.2
	c0.1,0,0.2-0.1,0.3-0.2c0.7-0.4,1.2-0.7,1.5-0.7c0.3-0.1,0.5-0.1,0.7-0.1c0.1,0,0.2,0,0.3,0c0.1,0,0.2,0,0.3-0.1
	c0.2-0.1,0.2-0.3,0.1-0.6l-1.5-2.5c-0.2-0.3-0.4-0.4-0.6-0.2c-0.1,0.1-0.2,0.1-0.3,0.2c0,0.1-0.1,0.1-0.1,0.2c0,0.1-0.1,0.2-0.1,0.3
	c-0.1,0.1-0.1,0.2-0.3,0.3c-0.1,0.1-0.3,0.3-0.5,0.4c-0.2,0.2-0.5,0.3-0.9,0.5c-0.1,0-0.2,0.1-0.3,0.1c-0.1,0-0.1,0.1-0.2,0.1
	c-0.1,0-0.1,0.1-0.2,0.1c-0.1,0-0.1,0.1-0.2,0.1l-0.4,0.2l-1.7-2.8c-0.1-0.2-0.2-0.5-0.2-0.7c0-0.3,0.2-0.5,0.5-0.7
	c0.4-0.3,0.8-0.4,1.2-0.3c0.3,0.1,0.7,0.1,1,0.2c0.3,0.1,0.6,0.2,0.8,0.2c0.3,0.1,0.6,0,1-0.3c0.4-0.2,0.6-0.5,0.7-0.7
	c0.1-0.3,0-0.5-0.1-0.7l-1.8-3c-0.1-0.1-0.2-0.2-0.4-0.2c-0.2,0-0.3,0-0.5,0.1l-7.4,4.4c-0.4,0.2-0.5,0.4-0.3,0.6
	C204.4,89,204.5,89,204.5,89.1z"/>
<path class="st0" d="M216.4,82.3L216.4,82.3c0.1,0,0.3,0.1,0.5,0.3c0.2,0.1,0.4,0.5,0.7,1l8.7,18.8c0.3,0.5,0.4,1,0.3,1.2
	c0,0.3-0.1,0.4-0.1,0.6l0,0c0,0.1-0.1,0.2-0.1,0.2c0,0.1,0,0.2,0.1,0.3c0.1,0.2,0.3,0.2,0.7,0l3.4-1.6c0.4-0.2,0.5-0.4,0.4-0.6
	c-0.1-0.1-0.1-0.2-0.2-0.2c-0.1,0-0.1-0.1-0.2-0.1l0,0c-0.1-0.1-0.3-0.1-0.5-0.3c-0.2-0.1-0.4-0.5-0.7-1l-3.2-7
	c0.1-0.1,0.2-0.2,0.2-0.4c0.1-0.1,0.1-0.3,0.2-0.6c0-0.1,0.1-0.2,0.1-0.3s0.1-0.3,0.1-0.4l5.1,7.4c0.3,0.5,0.5,0.8,0.5,1.1
	c0,0.3,0,0.5-0.1,0.7c0,0.1,0,0.1,0,0.2c0,0.1,0,0.2,0,0.2c0.1,0.2,0.3,0.2,0.7,0l3.5-1.6c0.4-0.2,0.5-0.4,0.4-0.6
	c-0.1-0.1-0.1-0.2-0.2-0.3c-0.1,0-0.2-0.1-0.3-0.1c-0.2-0.1-0.4-0.2-0.6-0.3c-0.2-0.2-0.4-0.4-0.7-0.8c-1.1-1.7-2.2-3.3-3.4-4.9
	c-1.1-1.6-2.3-3.3-3.4-4.9c0.2-0.5,0.2-1.1,0.3-1.7c0-0.7,0-1.4-0.1-2.2c-0.1-0.8-0.3-1.6-0.5-2.4c-0.2-0.8-0.5-1.6-0.9-2.3
	c-0.2-0.4-0.4-0.7-0.8-0.9c-0.3-0.2-0.7-0.4-1.2-0.5c-0.4-0.1-0.9-0.1-1.4-0.1c-0.5,0-1,0.2-1.5,0.4l-6.1,2.8
	c-0.4,0.2-0.5,0.4-0.4,0.6c0.1,0.1,0.1,0.2,0.2,0.2C216.3,82.3,216.4,82.3,216.4,82.3z M221.4,82.8c0.1-0.3,0.4-0.5,0.8-0.7
	c0.3-0.1,0.5-0.2,0.8-0.1c0.2,0,0.4,0.1,0.6,0.2c0.2,0.1,0.4,0.3,0.5,0.5c0.1,0.2,0.3,0.4,0.3,0.6c0.3,0.6,0.5,1.2,0.6,1.8
	c0.1,0.6,0.2,1.3,0.1,1.9c0,0.6-0.1,1.2-0.2,1.8c-0.1,0.6-0.3,1-0.4,1.4l-3.1-6.7C221.3,83.3,221.3,83,221.4,82.8z"/>
<path class="st0" d="M231.6,78.8c0.1,0.1,0.2,0.1,0.4,0.1c0.1,0,0.2-0.1,0.3-0.2c0-0.1,0.1-0.2,0.1-0.2c0-0.1,0.1-0.2,0.1-0.3
	c0.1-0.1,0.2-0.2,0.4-0.3c0.3-0.1,0.5-0.1,0.6,0c0.1,0.1,0.2,0.3,0.3,0.4l4.5,18.7c0.1,0.5,0.2,1,0.1,1.2c-0.1,0.3-0.2,0.5-0.3,0.7
	c-0.2,0.2-0.2,0.3-0.1,0.5c0.1,0.2,0.3,0.2,0.7,0.1l3.6-1.2c0.4-0.1,0.6-0.3,0.5-0.5c0-0.1-0.1-0.2-0.1-0.2c0,0-0.1-0.1-0.1-0.1l0,0
	c-0.1-0.1-0.2-0.2-0.3-0.4c-0.1-0.2-0.3-0.6-0.4-1.2l-2.3-9.6c-0.1-0.4,0-0.7,0.5-0.9l0.6-0.2c0.4-0.1,0.6,0,0.8,0.5l3.1,9.3
	c0.2,0.6,0.3,1,0.2,1.2c-0.1,0.2-0.1,0.4-0.2,0.6l0,0c0,0.1-0.1,0.1-0.1,0.2c0,0.1,0,0.2,0,0.3c0.1,0.2,0.3,0.2,0.7,0.1l3.6-1.2
	c0.4-0.1,0.5-0.3,0.5-0.5c0-0.1-0.1-0.2-0.2-0.3c-0.1,0-0.1-0.1-0.2-0.1l0,0c-0.1-0.1-0.3-0.2-0.5-0.3c-0.2-0.2-0.4-0.5-0.6-1.1
	L241,74.8c-0.1-0.4-0.2-0.7-0.1-0.9c0.1-0.2,0.1-0.5,0.2-0.7c0.1-0.2,0.1-0.3,0.2-0.5c0-0.2,0-0.4-0.1-0.6c0-0.1-0.1-0.2-0.3-0.3
	c-0.1-0.1-0.3-0.1-0.4,0l-9.6,3.3c-0.2,0.1-0.3,0.2-0.4,0.3c-0.1,0.1-0.1,0.3-0.1,0.4l0.9,2.7C231.4,78.6,231.5,78.7,231.6,78.8z
	 M237.2,76.5l0.2-0.1c0.4-0.1,0.6,0,0.8,0.5l1.6,4.6c0.1,0.4,0,0.7-0.3,0.8l-0.6,0.2c-0.4,0.1-0.7,0-0.8-0.5l-1.2-4.8
	C236.7,77,236.8,76.7,237.2,76.5z"/>
<path class="st0" d="M245.5,75.2c0.2,0.2,0.4,0.3,0.7,0.2c0.4-0.1,0.6-0.2,0.7-0.5c0.1-0.2,0.2-0.4,0.3-0.6c0.1-0.2,0.1-0.3,0.2-0.5
	c0.1-0.2,0.3-0.3,0.6-0.3c0.3-0.1,0.4-0.1,0.5,0c0.1,0,0.1,0.2,0.2,0.4l4.2,18.7c0.1,0.6,0.2,1,0.1,1.2c-0.1,0.2-0.2,0.4-0.2,0.6
	l0,0c0,0.1-0.1,0.1-0.1,0.2c0,0.1,0,0.2,0,0.3c0,0.2,0.3,0.3,0.7,0.2l3.6-0.8c0.4-0.1,0.6-0.2,0.5-0.5c0-0.1-0.1-0.2-0.1-0.3
	c-0.1-0.1-0.1-0.1-0.2-0.1l0,0c-0.1-0.1-0.3-0.2-0.5-0.4c-0.2-0.2-0.3-0.6-0.5-1.2L252,73.1c-0.1-0.3-0.1-0.4,0-0.5
	c0-0.1,0.2-0.1,0.5-0.2c0.2-0.1,0.4,0,0.6,0.1c0.1,0.1,0.3,0.2,0.4,0.4l0,0c0.1,0.2,0.3,0.3,0.5,0.5c0.2,0.1,0.5,0.2,0.9,0.1
	c0.3-0.1,0.5-0.2,0.5-0.5c0.1-0.3,0.1-0.5,0.1-0.6l-0.8-3.4c0-0.2-0.1-0.3-0.3-0.4c-0.1-0.1-0.3-0.1-0.5,0l-9,2
	c-0.4,0.1-0.6,0.3-0.5,0.7l0.8,3.4C245.3,74.8,245.4,75,245.5,75.2z"/>
<path class="st0" d="M257.8,68.8L257.8,68.8c0.1,0.1,0.3,0.2,0.4,0.4c0.2,0.2,0.3,0.6,0.4,1.2l2.9,20.5c0.1,0.6,0.1,1,0,1.2
	c-0.1,0.2-0.2,0.4-0.3,0.5l0,0c0,0-0.1,0.1-0.1,0.2c0,0.1,0,0.2,0,0.3c0,0.2,0.2,0.3,0.7,0.2l3.7-0.5c0.4-0.1,0.6-0.2,0.6-0.4
	c0-0.1-0.1-0.2-0.1-0.3c-0.1-0.1-0.1-0.1-0.2-0.1l0,0c-0.1-0.1-0.3-0.2-0.4-0.4c-0.2-0.2-0.3-0.6-0.4-1.2L262,69.9
	c-0.1-0.6-0.1-1,0-1.2c0.1-0.2,0.2-0.4,0.3-0.5l0,0c0,0,0.1-0.1,0.1-0.2c0-0.1,0-0.2,0-0.3c0-0.2-0.3-0.3-0.7-0.3l-3.7,0.5
	c0,0-0.1,0-0.1,0c0,0,0,0-0.1,0c-0.3,0.1-0.4,0.2-0.4,0.4c0,0.1,0.1,0.2,0.1,0.3C257.7,68.7,257.8,68.8,257.8,68.8z"/>
<path class="st0" d="M267.7,90.9c0.3,0.5,0.7,0.8,1.2,1.1c0.5,0.3,1,0.4,1.6,0.5c0.6,0.1,1.1,0.1,1.7,0.1c0.6,0,1.1-0.1,1.7-0.3
	c0.6-0.2,1-0.4,1.5-0.7c0.4-0.3,0.8-0.7,1-1.2c0.2-0.5,0.3-1.1,0.3-1.7l-1.3-18.9c0-0.7-0.2-1.2-0.5-1.7c-0.3-0.4-0.7-0.8-1.2-1.1
	s-1-0.4-1.6-0.5c-0.6-0.1-1.1-0.1-1.7-0.1c-0.6,0-1.2,0.1-1.7,0.3c-0.6,0.2-1,0.4-1.5,0.8c-0.4,0.3-0.8,0.7-1,1.2
	c-0.2,0.5-0.4,1.1-0.3,1.7l1.3,18.9C267.2,89.9,267.4,90.4,267.7,90.9z M269.6,70.1c0.1-0.2,0.5-0.4,1-0.4c0.6,0,0.9,0.1,1,0.3
	c0.1,0.2,0.2,0.5,0.2,1l1.2,16.9c0,0.1,0,0.3,0,0.4c0,0.2-0.1,0.3-0.1,0.4c-0.1,0.1-0.2,0.3-0.3,0.4c-0.1,0.1-0.4,0.2-0.6,0.2
	c-0.3,0-0.5,0-0.7-0.1c-0.2-0.1-0.3-0.2-0.4-0.3c-0.1-0.1-0.2-0.3-0.2-0.4c0-0.2-0.1-0.3-0.1-0.4l-1.2-16.9
	C269.4,70.7,269.5,70.3,269.6,70.1z"/>
<path class="st0" d="M278.4,91.8l3.8,0.1c0.4,0,0.6-0.1,0.6-0.3c0-0.1,0-0.2-0.1-0.3c0-0.1-0.1-0.1-0.1-0.2l0,0
	c-0.1-0.1-0.2-0.3-0.3-0.5c-0.1-0.2-0.2-0.6-0.2-1.2l0.3-10.1c0-0.5,0.1-0.8,0.1-0.7c0.1,0.1,0.1,0.2,0.2,0.4l0,0c0,0,0,0.1,0.1,0.1
	c0,0,0,0,0,0.1c0,0,0,0,0,0c0,0,0,0,0,0c0.4,1.7,0.9,3.4,1.4,5.1c0.5,1.7,0.9,3.4,1.4,5.1c0.1,0.3,0.1,0.6,0,0.8
	c-0.1,0.2-0.2,0.4-0.4,0.6c-0.1,0.1-0.2,0.2-0.2,0.3c-0.1,0.1-0.1,0.2-0.1,0.4c0,0.2,0.2,0.3,0.6,0.3l3.8,0.1c0.4,0,0.6-0.1,0.6-0.3
	c0-0.1,0-0.2-0.1-0.3c0-0.1-0.1-0.1-0.1-0.2v0c-0.1-0.1-0.2-0.3-0.3-0.5c-0.1-0.2-0.2-0.6-0.2-1.2l0.7-20.7c0-0.6,0.1-1,0.2-1.2
	c0.1-0.2,0.3-0.4,0.4-0.5l0,0c0,0,0.1-0.1,0.1-0.2c0-0.1,0.1-0.2,0.1-0.3c0-0.2-0.2-0.4-0.6-0.4l-3.8-0.1c0,0-0.1,0-0.1,0
	c0,0,0,0-0.1,0c-0.3,0-0.5,0.1-0.5,0.3c0,0.1,0,0.2,0.1,0.3c0,0.1,0.1,0.1,0.1,0.2v0c0.1,0.1,0.2,0.3,0.3,0.5
	c0.1,0.2,0.2,0.6,0.2,1.2L286,79c0,0.4-0.1,0.6-0.1,0.6c-0.1,0-0.1-0.1-0.2-0.3l0.1,0l-0.1-0.1c0,0-0.1-0.1-0.1-0.2l-2.7-10.3
	c-0.1-0.2-0.1-0.4-0.1-0.5c0.1-0.4,0.1-0.6,0.3-0.8c0.1-0.2,0.2-0.3,0.3-0.4c0,0,0.1-0.1,0.1-0.2s0.1-0.2,0.1-0.3
	c0-0.2-0.2-0.4-0.6-0.4l-3.8-0.1c0,0-0.1,0-0.1,0c0,0,0,0-0.1,0c-0.3,0-0.5,0.1-0.5,0.3c0,0.1,0,0.2,0.1,0.3c0,0.1,0.1,0.1,0.1,0.2
	l0,0c0.1,0.1,0.2,0.3,0.3,0.5c0.1,0.2,0.2,0.6,0.2,1.2l-0.7,20.7c0,0.6-0.1,1-0.2,1.2c-0.1,0.2-0.3,0.4-0.4,0.5l0,0
	c0,0-0.1,0.1-0.1,0.2c0,0.1-0.1,0.2-0.1,0.3C277.8,91.7,278,91.8,278.4,91.8z"/>
<path class="st0" d="M298,92.9c0.4,0.4,0.9,0.7,1.4,0.9c0.5,0.2,1.1,0.4,1.6,0.5c0.6,0.1,1.1,0.1,1.7,0.1c0.6,0,1.1-0.1,1.6-0.3
	c0.5-0.2,0.9-0.5,1.3-0.9c0.4-0.4,0.6-1,0.7-1.6l3.5-18.6c0.1-0.7,0.1-1.2-0.1-1.8c-0.2-0.5-0.5-1-0.9-1.3c-0.4-0.4-0.9-0.7-1.4-0.9
	c-0.5-0.2-1.1-0.4-1.6-0.5c-0.6-0.1-1.2-0.1-1.7-0.1c-0.6,0-1.1,0.2-1.6,0.4c-0.5,0.2-0.9,0.5-1.3,0.9c-0.4,0.4-0.6,0.9-0.7,1.6
	L297,89.7c-0.1,0.7-0.1,1.3,0.1,1.8C297.3,92,297.6,92.5,298,92.9z M300.7,89.4l3.1-16.7c0.1-0.4,0.2-0.7,0.4-0.9
	c0.2-0.2,0.5-0.3,1.1-0.2c0.6,0.1,0.9,0.3,0.9,0.5c0.1,0.3,0.1,0.6,0,1l-3.1,16.7c0,0.1-0.1,0.3-0.1,0.4c-0.1,0.1-0.1,0.3-0.2,0.4
	c-0.1,0.1-0.2,0.2-0.4,0.3c-0.2,0.1-0.4,0.1-0.7,0c-0.3-0.1-0.5-0.1-0.6-0.2s-0.2-0.2-0.3-0.4c-0.1-0.2-0.1-0.3-0.1-0.5
	C300.6,89.7,300.6,89.6,300.7,89.4z"/>
<path class="st0" d="M313.9,71.1c0.1,0.1,0.1,0.3,0.2,0.6c0.1,0.2,0,0.7-0.2,1.2l-5.7,19.9c-0.2,0.6-0.3,1-0.5,1.1
	c-0.2,0.2-0.3,0.3-0.5,0.4l0,0c-0.1,0-0.1,0.1-0.2,0.1c-0.1,0.1-0.1,0.1-0.1,0.3c-0.1,0.2,0.1,0.4,0.5,0.5l3.6,1
	c0.4,0.1,0.6,0.1,0.7-0.1c0-0.1,0-0.2,0-0.3c0-0.1-0.1-0.1-0.1-0.2l0,0c-0.1-0.1-0.1-0.3-0.2-0.6c-0.1-0.2,0-0.7,0.2-1.2l3.6-12.5
	c0.1,0,0.2,0,0.3,0c0.1,0,0.1,0,0.2,0.1c0.1,0,0.1,0,0.2,0c0.1,0,0.1,0,0.2,0c0.1,0,0.2,0,0.3,0c0.1,0,0.2,0.1,0.3,0.1
	c0.8,0.2,1.3,0.4,1.5,0.6c0.2,0.2,0.4,0.3,0.6,0.4c0.1,0.1,0.1,0.1,0.2,0.2c0.1,0.1,0.2,0.1,0.3,0.1c0.2,0.1,0.4-0.1,0.5-0.4
	l0.8-2.7c0.1-0.3,0-0.5-0.3-0.6c-0.1,0-0.3-0.1-0.3,0c-0.1,0-0.2,0-0.3,0.1c-0.1,0-0.2,0-0.3,0.1c-0.1,0-0.2,0-0.4,0
	c-0.2,0-0.4,0-0.6-0.1c-0.3-0.1-0.6-0.1-1-0.3c-0.1-0.1-0.2-0.1-0.3-0.1c-0.1,0-0.2,0-0.2-0.1c-0.1,0-0.2-0.1-0.2-0.1
	c-0.1,0-0.1-0.1-0.2-0.1l-0.4-0.1l0.9-3.2c0.1-0.2,0.2-0.5,0.4-0.6c0.2-0.2,0.5-0.2,0.8-0.1c0.5,0.1,0.8,0.4,1,0.6
	c0.2,0.3,0.4,0.6,0.5,0.9c0.1,0.3,0.2,0.5,0.4,0.8c0.2,0.2,0.5,0.4,0.9,0.6c0.4,0.1,0.8,0.1,1,0c0.2-0.1,0.4-0.3,0.4-0.5l1-3.4
	c0-0.2,0-0.3-0.1-0.4c-0.1-0.1-0.2-0.2-0.4-0.3l-8.3-2.4c-0.4-0.1-0.6-0.1-0.7,0.2c0,0.1,0,0.2,0,0.3
	C313.8,71,313.8,71.1,313.9,71.1L313.9,71.1z"/>
<path class="st0" d="M323,99.3c-0.1,0-0.2,0.1-0.2,0.1c-0.1,0-0.1,0.1-0.2,0.2c-0.1,0.2,0.1,0.4,0.5,0.6l3.4,1.6
	c0.4,0.2,0.6,0.2,0.7,0c0.1-0.1,0.1-0.2,0.1-0.3c0-0.1,0-0.1,0-0.2l0,0c-0.1-0.1-0.1-0.3-0.1-0.6c0-0.3,0.1-0.7,0.3-1.2l3.1-6.6
	c0.9-0.1,1.8-0.3,2.9-0.7c1.1-0.4,2.2-0.9,3.2-1.6c1.1-0.7,2.1-1.6,3.1-2.6c1-1.1,1.8-2.3,2.5-3.9c0.2-0.4,0.2-0.7,0.2-1.2
	c0-0.4-0.1-0.8-0.4-1.3c-0.2-0.4-0.5-0.8-0.9-1.2c-0.4-0.4-0.8-0.7-1.3-0.9l-6.1-2.8c-0.4-0.2-0.6-0.2-0.7,0.1
	c-0.1,0.1-0.1,0.2-0.1,0.3c0,0.1,0,0.1,0.1,0.2l0,0c0.1,0.1,0.1,0.3,0.1,0.6c0,0.3-0.1,0.7-0.3,1.2L324.2,98c-0.3,0.5-0.5,0.9-0.7,1
	C323.3,99.2,323.1,99.3,323,99.3L323,99.3z M335.4,82.1c0.1-0.3,0.3-0.4,0.5-0.5c0.2-0.1,0.6,0,1.1,0.2c0.3,0.1,0.5,0.3,0.6,0.5
	c0.1,0.2,0.2,0.4,0.2,0.6c0,0.2,0,0.5-0.1,0.7c-0.1,0.2-0.1,0.5-0.2,0.6c-0.3,0.6-0.6,1.1-1.1,1.7c-0.4,0.5-0.9,1-1.4,1.5
	c-0.5,0.4-1,0.8-1.5,1.1c-0.5,0.3-1,0.5-1.4,0.6L335.4,82.1z"/>
<path class="st0" d="M334.8,104.1c0,0.6,0.1,1.1,0.4,1.6c0.3,0.5,0.6,0.9,1,1.3c0.4,0.4,0.9,0.7,1.3,1c0.5,0.3,1,0.5,1.6,0.7
	c0.6,0.2,1.1,0.3,1.6,0.2c0.5,0,1.1-0.2,1.5-0.4c0.5-0.3,0.9-0.7,1.2-1.3l9.6-16.3c0.3-0.6,0.5-1.1,0.5-1.7c0-0.5-0.1-1.1-0.4-1.5
	c-0.2-0.5-0.6-0.9-1-1.3c-0.4-0.4-0.9-0.8-1.3-1c-0.5-0.3-1-0.5-1.6-0.7c-0.6-0.2-1.1-0.2-1.6-0.2c-0.5,0-1,0.2-1.5,0.4
	c-0.5,0.3-0.9,0.7-1.2,1.3l-9.6,16.3C335,103,334.8,103.5,334.8,104.1z M338.7,103.7c0.1-0.1,0.1-0.3,0.2-0.4l8.6-14.6
	c0.2-0.4,0.4-0.6,0.7-0.7c0.2-0.1,0.6-0.1,1.1,0.2c0.5,0.3,0.7,0.6,0.7,0.8c0,0.3-0.1,0.6-0.3,0.9l-8.6,14.6
	c-0.1,0.1-0.1,0.2-0.2,0.3c-0.1,0.1-0.2,0.2-0.4,0.3c-0.1,0.1-0.3,0.1-0.5,0.1c-0.2,0-0.4-0.1-0.6-0.2c-0.2-0.1-0.4-0.3-0.5-0.5
	c-0.1-0.2-0.1-0.3-0.1-0.5C338.6,104,338.6,103.9,338.7,103.7z"/>
<path class="st0" d="M357.4,92.4c-1.8,2.9-3.6,5.9-5.5,8.9c-1.9,3-3.7,6-5.5,8.9c-0.3,0.5-0.6,0.9-0.7,1.2c-0.1,0.3-0.2,0.6-0.2,0.8
	c0,0.2,0.1,0.4,0.3,0.5c0.2,0.1,0.4,0.3,0.6,0.5l0.8,0.6c0.3,0.2,0.5,0.3,0.7,0.4c0.2,0.1,0.4,0.1,0.6,0c0.2-0.1,0.4-0.2,0.7-0.4
	c0.3-0.2,0.6-0.5,1-0.9c0.5-0.4,1-0.9,1.4-1.4c0.5-0.5,0.9-0.9,1.4-1.3l0.2,0.2l-1.8,3.5c-0.3,0.5-0.5,0.9-0.6,1.2
	c-0.1,0.3-0.2,0.6-0.2,0.8c0,0.2,0.1,0.4,0.2,0.5c0.1,0.2,0.3,0.3,0.6,0.5l0.7,0.6c0.3,0.2,0.5,0.4,0.7,0.5c0.2,0.1,0.4,0.2,0.6,0.1
	c0.2,0,0.4-0.2,0.7-0.4c0.3-0.2,0.6-0.6,1-1l14.3-15.2c0.4-0.4,0.7-0.7,0.9-0.7c0.2-0.1,0.4-0.1,0.6-0.2c0.2,0,0.3-0.1,0.4-0.2
	l-0.2-0.6l-3.1-2.4c-0.3-0.3-0.6-0.4-0.8-0.2c-0.1,0.1-0.1,0.2-0.1,0.3c0,0.1,0,0.1,0,0.2c0,0.2,0,0.4-0.1,0.6
	c-0.1,0.2-0.3,0.6-0.6,1c-1.7,1.9-3.5,3.9-5.4,6c-1.9,2.1-3.7,4.1-5.4,6l-0.2-0.2l7.5-10.8c0.3-0.5,0.6-0.8,0.8-0.9
	c0.2-0.1,0.4-0.2,0.5-0.2c0.1,0,0.1,0,0.2-0.1c0.1,0,0.1-0.1,0.2-0.2c0.1-0.2,0-0.4-0.4-0.7l-2.4-1.9c-0.3-0.2-0.5-0.3-0.7-0.1
	c-0.1,0.1-0.1,0.2-0.1,0.3c0,0.1,0,0.1,0,0.2c0,0.2,0,0.3,0,0.6c0,0.2-0.3,0.6-0.7,1c-1.4,1.7-2.8,3.3-4.3,5c-1.4,1.7-2.9,3.3-4.3,5
	l-0.2-0.2l8.8-13.4c0.3-0.5,0.6-0.7,0.8-0.9c0.2-0.1,0.4-0.2,0.6-0.2c0.1,0,0.1,0,0.2-0.1c0.1,0,0.1-0.1,0.2-0.2
	c0-0.3-0.1-0.5-0.3-0.7l-3.1-2.4c-0.3-0.3-0.6-0.3-0.7-0.1c-0.1,0.1-0.1,0.2-0.1,0.3c0,0.1,0,0.1,0,0.2c0,0.2,0,0.4,0,0.6
	C357.9,91.6,357.7,91.9,357.4,92.4z"/>
<path class="st0" d="M357.4,120.5c-0.2,0.1-0.4,0.1-0.6,0.1l0,0c-0.1,0-0.1,0-0.2,0c-0.1,0-0.2,0.1-0.3,0.2
	c-0.2,0.2-0.1,0.4,0.2,0.7l6.1,6c0.1,0.1,0.3,0.2,0.4,0.2c0.2,0,0.3,0,0.4-0.1l2.5-2.5c0.2-0.2,0.2-0.4,0.2-0.6
	c0-0.3-0.2-0.6-0.5-0.9c-0.3-0.3-0.6-0.5-0.9-0.5c-0.3,0-0.6,0-0.9,0c-0.3,0-0.7,0-1,0c-0.3,0-0.7-0.2-1-0.6
	c-0.2-0.2-0.3-0.5-0.3-0.7c0-0.3,0.1-0.5,0.3-0.7l8-8.2c0.1,0,0.2,0.1,0.2,0.1c0,0,0.1,0.1,0.2,0.2c0,0,0.1,0.1,0.1,0.1
	c0,0,0.1,0.1,0.1,0.1c0.1,0,0.1,0.1,0.2,0.2c0.1,0.1,0.1,0.1,0.2,0.2c0.6,0.6,0.9,1,1.1,1.2c0.1,0.3,0.2,0.5,0.3,0.6
	c0,0.1,0,0.2,0.1,0.3c0,0.1,0.1,0.2,0.2,0.3c0.2,0.2,0.4,0.1,0.6-0.1l2-2c0.2-0.2,0.3-0.5,0.1-0.7c-0.1-0.1-0.2-0.2-0.3-0.2
	c-0.1,0-0.2,0-0.3-0.1c-0.1,0-0.2,0-0.3-0.1c-0.1,0-0.2-0.1-0.4-0.2c-0.1-0.1-0.3-0.2-0.5-0.4c-0.2-0.2-0.4-0.4-0.7-0.7
	c-0.1-0.1-0.1-0.2-0.2-0.2c-0.1-0.1-0.1-0.1-0.2-0.2c-0.1-0.1-0.1-0.1-0.2-0.2c0-0.1-0.1-0.1-0.2-0.2l-0.3-0.3l2.3-2.3
	c0.2-0.2,0.4-0.3,0.7-0.3c0.3,0,0.5,0.1,0.7,0.3c0.4,0.3,0.5,0.7,0.6,1c0,0.3,0,0.7,0,1c0,0.3-0.1,0.6,0,0.9c0,0.3,0.2,0.6,0.5,0.9
	c0.3,0.3,0.6,0.5,0.9,0.5c0.3,0,0.5-0.1,0.6-0.3l2.5-2.5c0.1-0.1,0.2-0.3,0.1-0.4c0-0.2-0.1-0.3-0.2-0.4l-6.1-6
	c-0.3-0.3-0.5-0.3-0.7-0.2c-0.1,0.1-0.1,0.2-0.2,0.3c0,0.1,0,0.1,0,0.2l0,0c0,0.2,0,0.4-0.1,0.6c-0.1,0.2-0.3,0.6-0.7,1l-14.5,14.8
	C358,120.2,357.7,120.5,357.4,120.5z"/>
<path class="st0" d="M365.3,128.4c-0.2,0-0.5,0-0.6,0l0,0c-0.1,0-0.2,0-0.2,0c-0.1,0-0.2,0-0.3,0.1c-0.2,0.1-0.1,0.4,0.2,0.7
	l2.4,2.9c0.3,0.3,0.5,0.4,0.6,0.3c0.1-0.1,0.2-0.2,0.2-0.2c0-0.1,0-0.1,0-0.2l0,0c0-0.2,0.1-0.3,0.1-0.6c0.1-0.2,0.4-0.5,0.8-0.9
	l5.9-4.9c0.1,0.1,0.3,0.1,0.4,0.1c0.2,0,0.4,0,0.6,0.1c0.1,0,0.2,0,0.3,0.1c0.1,0,0.3,0,0.4,0l-5.9,6.8c-0.4,0.4-0.7,0.7-0.9,0.8
	c-0.3,0.1-0.5,0.1-0.7,0c-0.1,0-0.1,0-0.2,0c-0.1,0-0.2,0-0.2,0.1c-0.2,0.1-0.1,0.4,0.1,0.7l2.5,3c0.3,0.3,0.5,0.4,0.6,0.3
	c0.1-0.1,0.2-0.2,0.2-0.3c0-0.1,0-0.2,0.1-0.3c0-0.2,0.1-0.4,0.2-0.7c0.1-0.3,0.3-0.5,0.6-0.8c1.3-1.5,2.6-3,3.9-4.5
	c1.3-1.5,2.6-3,3.9-4.5c0.5,0,1.1,0,1.7-0.2c0.7-0.2,1.4-0.4,2.1-0.7c0.7-0.3,1.4-0.7,2.2-1.1c0.7-0.4,1.4-0.9,2-1.4
	c0.3-0.2,0.5-0.6,0.7-1c0.2-0.4,0.2-0.8,0.2-1.3c0-0.5-0.1-0.9-0.3-1.4c-0.2-0.5-0.4-0.9-0.8-1.4l-4.3-5.2c-0.3-0.3-0.5-0.4-0.7-0.3
	c-0.1,0.1-0.2,0.2-0.2,0.2c0,0.1,0,0.2,0,0.2l0,0c0,0.2-0.1,0.3-0.1,0.6c-0.1,0.2-0.4,0.6-0.8,0.9l-16,13.2
	C365.9,128.1,365.5,128.3,365.3,128.4z M383.4,118.2c0.2-0.2,0.5-0.3,0.7-0.2c0.3,0,0.6,0.2,0.9,0.6c0.2,0.2,0.3,0.5,0.3,0.7
	c0,0.2,0,0.5-0.1,0.7c-0.1,0.2-0.2,0.4-0.3,0.6c-0.2,0.2-0.3,0.3-0.5,0.5c-0.5,0.4-1,0.8-1.6,1c-0.6,0.3-1.2,0.5-1.8,0.6
	c-0.6,0.1-1.2,0.2-1.7,0.3c-0.6,0-1.1,0-1.5,0L383.4,118.2z"/>
<path class="st0" d="M373.2,138.2c-0.3,0-0.5,0-0.6,0l0,0c-0.1,0-0.1,0-0.2,0c-0.1,0-0.2,0-0.3,0.1c-0.2,0.1-0.2,0.4,0.1,0.7
	l4.9,7.3c0.1,0.2,0.2,0.3,0.4,0.3c0.1,0.1,0.3,0,0.4-0.1l7.8-5.2c0.1-0.1,0.2-0.2,0.2-0.4c0-0.2-0.1-0.3-0.2-0.5l-1.6-2.5
	c-0.1-0.1-0.2-0.2-0.4-0.2c-0.2,0-0.3,0-0.4,0.1c-0.2,0.1-0.2,0.2-0.3,0.3c0,0.1,0,0.1,0,0.2c0,0.1,0,0.2,0,0.4
	c0,0.1-0.2,0.3-0.4,0.4l-4.1,2.8c-0.2,0.1-0.3,0.1-0.5,0c-0.2-0.1-0.4-0.2-0.5-0.5l-0.2-0.4c-0.1-0.2-0.2-0.4-0.2-0.6
	c0-0.2,0.1-0.4,0.2-0.5l16.3-10.8c0.5-0.3,0.9-0.5,1.1-0.5c0.3,0,0.5,0,0.6,0l0,0c0.1,0,0.1,0,0.2,0c0.1,0,0.2,0,0.3-0.1
	c0.2-0.1,0.2-0.4,0-0.7l-2.1-3.1c0,0,0-0.1-0.1-0.1c0,0,0,0-0.1-0.1c-0.2-0.2-0.4-0.3-0.5-0.2c-0.1,0.1-0.2,0.1-0.2,0.2
	c0,0.1-0.1,0.1-0.1,0.2l0,0c0,0.2-0.1,0.3-0.2,0.6c-0.1,0.2-0.4,0.5-0.9,0.8l-17.2,11.5C373.9,138,373.5,138.2,373.2,138.2z"/>
<path class="st0" d="M379.4,147.8c-0.3,0-0.5,0-0.6-0.1l0,0c-0.1,0-0.1,0-0.2,0c-0.1,0-0.2,0-0.3,0.1c-0.2,0.1-0.2,0.3,0,0.7
	l1.8,3.3c0.2,0.4,0.4,0.5,0.6,0.4c0.1-0.1,0.2-0.1,0.2-0.2c0-0.1,0.1-0.1,0.1-0.2l0,0c0-0.1,0.1-0.3,0.3-0.5c0.1-0.2,0.5-0.5,1-0.8
	l18.1-10.1c0.5-0.3,0.9-0.4,1.2-0.4c0.3,0,0.5,0,0.6,0.1l0,0c0.1,0,0.1,0,0.2,0c0.1,0,0.2,0,0.3-0.1c0.2-0.1,0.2-0.4,0-0.7l-1.8-3.3
	c0,0,0-0.1-0.1-0.1c0,0,0,0-0.1-0.1c-0.2-0.2-0.4-0.3-0.5-0.2c-0.1,0.1-0.2,0.1-0.2,0.2c0,0.1-0.1,0.1-0.1,0.2l0,0
	c0,0.1-0.1,0.3-0.3,0.5c-0.1,0.2-0.5,0.5-1,0.8l-18.1,10.1C380,147.6,379.6,147.8,379.4,147.8z"/>
<path class="st0" d="M402.4,144.1l-18.8,8.7c-0.5,0.3-1,0.4-1.2,0.3c-0.3,0-0.4-0.1-0.6-0.1l0,0c-0.1,0-0.1,0-0.2,0
	c-0.1,0-0.2,0-0.3,0.1c-0.2,0.1-0.2,0.3,0,0.7l1.6,3.4c0.2,0.4,0.4,0.5,0.6,0.4c0.1-0.1,0.2-0.1,0.2-0.2c0-0.1,0.1-0.1,0.1-0.2l0,0
	c0.1-0.1,0.1-0.3,0.3-0.5c0.1-0.2,0.5-0.4,1-0.7l11.8-5.5c0.1,0.1,0.1,0.1,0.2,0.2c0,0.1,0.1,0.1,0.1,0.2c0,0.1,0.1,0.1,0.1,0.2
	c0,0,0.1,0.1,0.1,0.2c0.1,0.1,0.1,0.1,0.1,0.2c0,0.1,0.1,0.2,0.1,0.3c0.3,0.7,0.5,1.2,0.6,1.5c0,0.3,0.1,0.5,0,0.7
	c0,0.1,0,0.2,0,0.3c0,0.1,0,0.2,0.1,0.3c0.1,0.2,0.3,0.3,0.6,0.1l2.6-1.2c0.3-0.1,0.4-0.3,0.3-0.6c-0.1-0.1-0.1-0.2-0.2-0.3
	c-0.1,0-0.1-0.1-0.2-0.1c-0.1,0-0.1-0.1-0.2-0.2c-0.1-0.1-0.2-0.2-0.3-0.3c-0.1-0.1-0.2-0.3-0.4-0.5c-0.1-0.2-0.3-0.5-0.4-0.9
	c0-0.1-0.1-0.2-0.1-0.3c0-0.1-0.1-0.1-0.1-0.2c0-0.1-0.1-0.2-0.1-0.2c0-0.1-0.1-0.1-0.1-0.2l-0.2-0.4l3-1.4c0.2-0.1,0.5-0.1,0.8-0.1
	c0.3,0.1,0.5,0.2,0.6,0.5c0.2,0.5,0.3,0.8,0.2,1.2c-0.1,0.3-0.2,0.6-0.3,0.9c-0.1,0.3-0.3,0.5-0.3,0.8c-0.1,0.3,0,0.6,0.2,1
	c0.2,0.4,0.4,0.7,0.7,0.8c0.2,0.1,0.5,0.1,0.7,0l3.2-1.5c0.2-0.1,0.3-0.2,0.3-0.3c0-0.2,0-0.3-0.1-0.5l-3.6-7.8
	c-0.2-0.4-0.4-0.5-0.6-0.4c-0.1,0.1-0.2,0.1-0.2,0.2c0,0.1-0.1,0.1-0.1,0.2l0,0c-0.1,0.1-0.1,0.3-0.3,0.5
	C403.3,143.6,403,143.9,402.4,144.1z"/>
<path class="st0" d="M405.6,156.2c-0.2,0.2-0.2,0.4-0.1,0.7c0.1,0.3,0.3,0.6,0.5,0.7c0.2,0.1,0.5,0.2,0.7,0.2c0.2,0,0.3,0.1,0.5,0.2
	s0.3,0.3,0.4,0.5c0.1,0.2,0.1,0.4,0.1,0.5c0,0.1-0.2,0.1-0.4,0.2l-18.1,6.4c-0.6,0.2-1,0.3-1.2,0.2c-0.2-0.1-0.4-0.1-0.6-0.2l0,0
	c-0.1,0-0.1,0-0.2-0.1c-0.1,0-0.2,0-0.3,0c-0.2,0.1-0.2,0.3-0.1,0.7l1.2,3.5c0.1,0.4,0.3,0.5,0.5,0.5c0.1,0,0.2-0.1,0.3-0.2
	c0-0.1,0.1-0.1,0.1-0.2l0,0c0.1-0.1,0.2-0.3,0.3-0.5c0.2-0.2,0.5-0.4,1.1-0.6l18.1-6.4c0.2-0.1,0.4-0.1,0.5-0.1
	c0.1,0,0.1,0.2,0.2,0.5c0.1,0.2,0.1,0.4,0,0.6c-0.1,0.2-0.2,0.3-0.3,0.5l0,0c-0.1,0.2-0.3,0.4-0.4,0.6c-0.1,0.2-0.1,0.5,0,0.9
	c0.1,0.3,0.3,0.4,0.5,0.5c0.3,0,0.5,0,0.6,0l3.3-1.2c0.2-0.1,0.3-0.2,0.3-0.3c0-0.2,0-0.3,0-0.5l-3-8.7c-0.1-0.4-0.4-0.6-0.7-0.4
	l-3.3,1.2C405.9,156,405.8,156.1,405.6,156.2z"/>
<path class="st0" d="M413.1,168.2c-0.2,0.2-0.6,0.3-1.1,0.5l-20,5.3c-0.6,0.2-1,0.2-1.2,0.1c-0.2-0.1-0.4-0.1-0.6-0.2l0,0
	c-0.1,0-0.1-0.1-0.2-0.1c-0.1,0-0.2,0-0.3,0c-0.2,0.1-0.3,0.3-0.2,0.7l1,3.6c0.1,0.4,0.3,0.6,0.5,0.5c0.1,0,0.2-0.1,0.3-0.1
	c0.1-0.1,0.1-0.1,0.1-0.2l0,0c0.1-0.1,0.2-0.3,0.4-0.5c0.2-0.2,0.6-0.3,1.1-0.5l20-5.3c0.6-0.2,1-0.2,1.2-0.1
	c0.2,0.1,0.4,0.1,0.6,0.2l0,0c0.1,0,0.1,0.1,0.2,0.1c0.1,0,0.2,0,0.3,0c0.2-0.1,0.3-0.3,0.2-0.7l-1-3.6c0,0,0-0.1,0-0.1
	c0,0,0,0,0-0.1c-0.1-0.3-0.3-0.4-0.4-0.4c-0.1,0-0.2,0.1-0.3,0.1c-0.1,0.1-0.1,0.1-0.1,0.2l0,0C413.4,167.8,413.2,168,413.1,168.2z"
	/>
<path class="st0" d="M415.1,176c-0.2,0.2-0.6,0.3-1.2,0.4l-20.4,3.6c-0.6,0.1-1,0.1-1.2,0c-0.2-0.1-0.4-0.2-0.5-0.3l0,0
	c-0.1,0-0.1-0.1-0.2-0.1c-0.1,0-0.2,0-0.3,0c-0.2,0-0.3,0.3-0.2,0.7l0.7,3.7c0.1,0.4,0.2,0.6,0.4,0.6c0.1,0,0.2-0.1,0.3-0.1
	c0.1-0.1,0.1-0.1,0.1-0.2l0,0c0.1-0.1,0.2-0.3,0.4-0.4c0.2-0.2,0.6-0.3,1.2-0.4l9.9-1.8c0.5-0.1,0.7-0.1,0.7,0
	c0,0.1-0.2,0.2-0.4,0.3l0,0c0,0-0.1,0.1-0.1,0.1c0,0,0,0-0.1,0c0,0,0,0,0,0c0,0,0,0,0,0c-1.6,0.8-3.1,1.6-4.7,2.4
	c-1.6,0.8-3.2,1.6-4.8,2.4c-0.3,0.1-0.5,0.2-0.8,0.1c-0.2-0.1-0.5-0.1-0.7-0.3c-0.1-0.1-0.2-0.1-0.4-0.2c-0.1,0-0.3-0.1-0.4,0
	c-0.2,0-0.3,0.3-0.2,0.7l0.7,3.7c0.1,0.4,0.2,0.6,0.4,0.6c0.1,0,0.2-0.1,0.3-0.1c0.1-0.1,0.1-0.1,0.1-0.2l0,0
	c0.1-0.1,0.2-0.3,0.4-0.4c0.2-0.2,0.6-0.3,1.2-0.4l20.4-3.6c0.6-0.1,1-0.1,1.2,0c0.2,0.1,0.4,0.2,0.5,0.3l0,0c0.1,0,0.1,0.1,0.2,0.1
	c0.1,0,0.2,0,0.3,0c0.2,0,0.3-0.3,0.2-0.7l-0.7-3.7c0,0,0-0.1,0-0.1c0,0,0,0,0-0.1c-0.1-0.3-0.2-0.4-0.4-0.4c-0.1,0-0.2,0.1-0.3,0.1
	c-0.1,0.1-0.1,0.1-0.1,0.2l0,0c-0.1,0.1-0.2,0.3-0.4,0.4c-0.2,0.2-0.6,0.3-1.2,0.4l-10,1.8c-0.4,0.1-0.6,0.1-0.6,0
	c0-0.1,0.1-0.2,0.3-0.3l0,0.1l0.1-0.1c0,0,0.1-0.1,0.1-0.1l9.6-4.7c0.2-0.1,0.4-0.2,0.5-0.2c0.4,0,0.6,0,0.8,0.1
	c0.2,0.1,0.3,0.2,0.4,0.2c0.1,0,0.1,0.1,0.2,0.1c0.1,0,0.2,0,0.3,0c0.2,0,0.3-0.3,0.2-0.7l-0.7-3.7c0,0,0-0.1,0-0.1c0,0,0,0,0-0.1
	c-0.1-0.3-0.2-0.4-0.4-0.4c-0.1,0-0.2,0.1-0.3,0.1c-0.1,0.1-0.1,0.1-0.1,0.2l0,0C415.4,175.6,415.3,175.8,415.1,176z"/>
<path class="st0" d="M417.7,191.6c-0.8-0.6-1.8-0.9-2.9-0.8l-15.7,1.1c-0.8,0.1-1.6,0.3-2.3,0.6c-0.7,0.3-1.3,0.8-1.8,1.3
	c-0.5,0.5-0.9,1.1-1.1,1.7c-0.3,0.6-0.4,1.3-0.3,2l0.2,3.4c0,0.4,0.1,0.7,0.2,0.8c0.1,0.2,0.4,0.2,0.8,0.2l16.8-1.2
	c0.2,0,0.3-0.1,0.4-0.2c0.1-0.1,0.1-0.3,0.1-0.5l-0.2-3.3c0-0.5-0.2-0.7-0.6-0.6l-1.7,0.1c-0.2,0-0.3,0.1-0.4,0.2
	c-0.1,0.1-0.1,0.3-0.1,0.4c0,0.3,0,0.4-0.1,0.5c-0.1,0-0.2,0.1-0.4,0.1l-10.8,0.8c-0.3,0-0.5,0-0.7,0c-0.2,0-0.3-0.2-0.4-0.5
	c0-0.3,0-0.5,0.2-0.8c0.1-0.3,0.3-0.5,0.6-0.7c0.2-0.2,0.5-0.4,0.7-0.5c0.2-0.1,0.5-0.2,0.7-0.2l15.9-1.2c0.3,0,0.5,0,0.6,0.1
	c0.1,0.1,0.3,0.2,0.3,0.4c0.1,0.2,0.1,0.3,0.2,0.5c0,0.2,0,0.4,0.1,0.5c0,0.5-0.1,0.9-0.4,1.2c-0.3,0.3-0.6,0.5-0.9,0.7
	c-0.3,0.2-0.6,0.4-0.8,0.7c-0.2,0.3-0.3,0.6-0.3,1c0,0.5,0.1,0.8,0.3,0.9c0.2,0.2,0.4,0.2,0.7,0.2l3.3-0.2c0.5,0,0.9-0.2,1.1-0.6
	c0.2-0.4,0.3-0.9,0.3-1.4l-0.3-3.8C418.9,193.2,418.5,192.2,417.7,191.6z"/>
<path class="st0" d="M147.2,352.2c0,0,0,0.1,0,0.2c0,0.1,0.1,0.2,0.4,0.2h3.9c0.4,0,0.8-0.1,1.1-0.2c0.3-0.1,0.5-0.3,0.7-0.5
	c0.2-0.2,0.3-0.5,0.4-0.7c0.1-0.3,0.1-0.6,0.1-0.9c0-0.6,0-1.1-0.1-1.6c-0.1-0.5-0.2-0.9-0.3-1.3c-0.1-0.4-0.3-0.8-0.5-1.2
	c-0.2-0.4-0.4-0.8-0.6-1.2c-0.1-0.2-0.2-0.3-0.3-0.5c0.2-0.2,0.3-0.4,0.5-0.8c0.2-0.3,0.4-0.7,0.6-1.2c0.2-0.4,0.3-0.9,0.4-1.4
	c0.1-0.5,0.2-1,0.2-1.5c0-0.2-0.1-0.4-0.2-0.7c-0.1-0.2-0.3-0.4-0.5-0.6c-0.2-0.2-0.4-0.3-0.7-0.4c-0.3-0.1-0.6-0.1-0.9-0.1h-3.9
	c-0.2,0-0.4,0.1-0.4,0.2c0,0.1,0,0.1,0,0.2c0,0,0,0.1,0.1,0.1v0c0.1,0.1,0.1,0.2,0.2,0.3c0.1,0.1,0.1,0.4,0.1,0.7v11.9
	c0,0.3,0,0.6-0.1,0.7C147.4,352,147.3,352.1,147.2,352.2L147.2,352.2C147.2,352.1,147.2,352.2,147.2,352.2z M149.6,340.1
	c0-0.2,0.1-0.3,0.2-0.4c0.1-0.1,0.3-0.2,0.6-0.2c0.2,0,0.3,0,0.4,0.1c0.1,0.1,0.2,0.2,0.3,0.3c0.1,0.1,0.1,0.2,0.1,0.4
	c0,0.1,0,0.3,0,0.4c0,0.4,0,0.7-0.1,1.1c-0.1,0.4-0.2,0.7-0.4,1c-0.1,0.3-0.3,0.6-0.5,0.9c-0.2,0.3-0.4,0.5-0.6,0.7V340.1z
	 M149.6,346.8l0.8-0.8c0.1,0.2,0.2,0.5,0.4,0.8c0.1,0.3,0.2,0.6,0.3,1c0.1,0.3,0.2,0.7,0.2,1.1c0.1,0.4,0.1,0.7,0.1,1.1
	c0,0.1,0,0.2,0,0.3c0,0.1,0,0.2-0.1,0.3c-0.1,0.1-0.1,0.2-0.3,0.2c-0.1,0.1-0.3,0.1-0.5,0.1c-0.2,0-0.5,0-0.7-0.1
	c-0.2-0.1-0.3-0.2-0.3-0.5V346.8z"/>
<path class="st0" d="M156.9,339.8c0.1-0.1,0.3-0.2,0.5-0.2c0.2,0,0.4,0.1,0.5,0.2c0.1,0.1,0.2,0.2,0.3,0.3c0.1,0.1,0.2,0.2,0.3,0.3
	c0.1,0.1,0.3,0.1,0.5,0.1c0.3,0,0.4-0.1,0.5-0.2c0.1-0.1,0.2-0.2,0.2-0.4v-1.5c0-0.1-0.1-0.2-0.2-0.3c-0.1-0.1-0.3-0.2-0.5-0.3
	c-0.2-0.1-0.5-0.1-0.7-0.2c-0.3-0.1-0.6-0.1-0.9-0.1c-0.3,0-0.7,0-1,0.1c-0.3,0.1-0.6,0.2-0.9,0.4c-0.3,0.2-0.5,0.4-0.6,0.7
	c-0.2,0.3-0.2,0.6-0.2,1v10.8c0,0.4,0.1,0.7,0.2,1c0.2,0.3,0.4,0.5,0.6,0.7c0.3,0.2,0.6,0.3,0.9,0.4c0.3,0.1,0.7,0.1,1,0.1
	c0.3,0,0.6,0,0.9-0.1c0.3,0,0.5-0.1,0.7-0.2c0.2-0.1,0.4-0.2,0.5-0.3c0.1-0.1,0.2-0.2,0.2-0.3v-1.7c0-0.1,0-0.3-0.1-0.4
	c-0.1-0.1-0.3-0.2-0.5-0.2c-0.2,0-0.4,0.1-0.5,0.2c-0.1,0.1-0.2,0.2-0.3,0.4c-0.1,0.1-0.2,0.3-0.3,0.4c-0.1,0.1-0.3,0.2-0.5,0.2
	c-0.2,0-0.3,0-0.4-0.1c-0.1,0-0.2-0.1-0.2-0.2c-0.1-0.1-0.1-0.2-0.1-0.3c0-0.1,0-0.2,0-0.2v-9.7C156.7,340.2,156.8,340,156.9,339.8z
	"/>
<path class="st0" d="M163.1,339.7c0.1-0.1,0.2-0.2,0.4-0.2c0.3,0,0.5,0.1,0.7,0.2c0.1,0.1,0.3,0.3,0.4,0.4c0.1,0.1,0.2,0.3,0.3,0.4
	c0.1,0.1,0.3,0.2,0.6,0.2c0.3,0,0.4-0.1,0.5-0.2c0.1-0.1,0.2-0.2,0.2-0.4v-2c0-0.1,0-0.2-0.1-0.2c-0.1-0.1-0.2-0.1-0.3-0.1h-4.9
	c-0.2,0-0.4,0.1-0.4,0.2c0,0.1,0,0.1,0,0.2c0,0,0,0.1,0.1,0.1v0c0.1,0.1,0.1,0.2,0.2,0.3c0.1,0.1,0.1,0.4,0.1,0.7v11.9
	c0,0.3,0,0.6-0.1,0.7c-0.1,0.1-0.1,0.2-0.2,0.3v0c0,0,0,0.1-0.1,0.1c0,0,0,0.1,0,0.2c0,0.1,0.1,0.2,0.4,0.2h4.9c0.1,0,0.2,0,0.3-0.1
	c0.1-0.1,0.1-0.1,0.1-0.2v-2c0-0.1-0.1-0.3-0.2-0.4c-0.1-0.1-0.3-0.2-0.5-0.2c-0.2,0-0.4,0.1-0.6,0.2c-0.1,0.1-0.2,0.2-0.3,0.4
	c-0.1,0.1-0.3,0.3-0.4,0.4c-0.1,0.1-0.4,0.2-0.7,0.2c-0.2,0-0.3-0.1-0.4-0.2c-0.1-0.1-0.1-0.3-0.1-0.4v-6.6c0.1,0,0.1,0,0.1,0
	c0,0,0.1,0,0.1,0c0,0,0.1,0,0.1,0c0,0,0.1,0,0.1,0c0,0,0.1,0,0.2,0c0.1,0,0.1,0,0.2,0c0.5,0,0.8,0,0.9,0.1c0.2,0.1,0.3,0.1,0.4,0.1
	c0,0,0.1,0.1,0.1,0.1c0.1,0,0.1,0,0.2,0c0.1,0,0.2-0.1,0.2-0.3V342c0-0.2-0.1-0.3-0.2-0.3c-0.1,0-0.1,0-0.2,0c0,0-0.1,0-0.1,0.1
	c0,0-0.1,0.1-0.1,0.1c-0.1,0-0.1,0.1-0.2,0.1c-0.1,0-0.2,0-0.4,0.1c-0.1,0-0.3,0-0.6,0c-0.1,0-0.1,0-0.2,0c0,0-0.1,0-0.1,0
	c0,0-0.1,0-0.1,0c0,0-0.1,0-0.1,0H163v-1.9C163,340,163,339.9,163.1,339.7z"/>
<path class="st0" d="M177.2,338.2c0,0,0-0.1,0-0.2c0-0.1-0.1-0.2-0.4-0.2h-2.1c-0.2,0-0.5,0.1-0.7,0.2c-0.2,0.1-0.5,0.2-0.7,0.4
	c-0.2,0.2-0.4,0.4-0.6,0.6c-0.2,0.2-0.3,0.4-0.4,0.6c0,0.1,0,0.1,0,0.1c0,0.1-0.1,0.1-0.3,0.1c-0.1,0-0.1-0.1-0.3-0.2
	c0,0-0.1-0.1-0.1-0.1c-0.1-0.2-0.2-0.4-0.4-0.6c-0.2-0.2-0.3-0.4-0.6-0.6c-0.2-0.2-0.4-0.3-0.7-0.4c-0.2-0.1-0.5-0.2-0.7-0.2h-2.1
	c0,0,0,0,0,0c0,0,0,0,0,0c-0.2,0-0.3,0.1-0.3,0.2c0,0.1,0,0.1,0,0.2c0,0,0,0.1,0.1,0.1v0c0.1,0.1,0.1,0.2,0.2,0.3
	c0.1,0.1,0.1,0.4,0.1,0.7v11.9c0,0.3,0,0.6-0.1,0.7c-0.1,0.1-0.1,0.2-0.2,0.3v0c0,0,0,0.1-0.1,0.1c0,0,0,0.1,0,0.2
	c0,0.1,0.1,0.2,0.4,0.2h2.1c0.2,0,0.4-0.1,0.4-0.2c0-0.1,0-0.1,0-0.2c0,0,0-0.1-0.1-0.1v0c-0.1-0.1-0.1-0.2-0.2-0.3
	c-0.1-0.1-0.1-0.4-0.1-0.7v-11.3c0-0.1,0.1-0.1,0.3-0.1c0.2,0.1,0.4,0.2,0.6,0.4c0.2,0.2,0.4,0.5,0.6,0.9c0.2,0.4,0.3,0.9,0.3,1.5
	v8.6c0,0.3,0,0.6-0.1,0.7c-0.1,0.1-0.1,0.2-0.2,0.3v0c0,0-0.1,0.1-0.1,0.1c0,0,0,0.1,0,0.2c0,0.1,0.1,0.2,0.4,0.2h2.1
	c0.2,0,0.4-0.1,0.4-0.2c0-0.1,0-0.1,0-0.2c0,0-0.1-0.1-0.1-0.1v0c-0.1-0.1-0.1-0.2-0.2-0.3c-0.1-0.1-0.1-0.4-0.1-0.7v-8.6
	c0-0.6,0.1-1.1,0.3-1.5c0.2-0.4,0.4-0.7,0.6-0.9c0.2-0.2,0.4-0.3,0.6-0.4c0.2,0,0.3,0,0.3,0.1v11.1c0,0.3,0,0.6-0.1,0.7
	c-0.1,0.1-0.1,0.2-0.2,0.3v0c0,0,0,0.1-0.1,0.1c0,0,0,0.1,0,0.2c0,0.1,0.1,0.2,0.4,0.2h2.1c0.2,0,0.4-0.1,0.4-0.2c0-0.1,0-0.1,0-0.2
	c0,0,0-0.1-0.1-0.1v0c-0.1-0.1-0.1-0.2-0.2-0.3c-0.1-0.1-0.1-0.4-0.1-0.7v-11.9c0-0.3,0-0.6,0.1-0.7
	C177,338.4,177.1,338.3,177.2,338.2L177.2,338.2C177.2,338.3,177.2,338.2,177.2,338.2z"/>
<path class="st0" d="M182.1,352.2c0,0,0,0.1,0,0.2c0,0.1,0.1,0.2,0.4,0.2h2.2c0.2,0,0.4-0.1,0.4-0.2c0-0.1,0-0.1,0-0.2
	c0,0,0-0.1-0.1-0.1v0c-0.1-0.1-0.1-0.2-0.2-0.3c-0.1-0.1-0.1-0.4-0.1-0.7v-11.9c0-0.3,0-0.6,0.1-0.7c0.1-0.1,0.1-0.2,0.2-0.3v0
	c0,0,0-0.1,0.1-0.1c0,0,0-0.1,0-0.2c0-0.1-0.1-0.2-0.4-0.2h-2.2c0,0,0,0,0,0c0,0,0,0,0,0c-0.2,0-0.3,0.1-0.3,0.2c0,0.1,0,0.1,0,0.2
	c0,0,0,0.1,0.1,0.1v0c0.1,0.1,0.1,0.2,0.2,0.3c0.1,0.1,0.1,0.4,0.1,0.7v0.7l-1.9,5.5v-6.2c0-0.3,0-0.6,0.1-0.7
	c0.1-0.1,0.1-0.2,0.2-0.3v0c0,0,0-0.1,0.1-0.1c0,0,0-0.1,0-0.2c0-0.1-0.1-0.2-0.4-0.2h-2.2c0,0,0,0,0,0c0,0,0,0,0,0
	c-0.2,0-0.3,0.1-0.3,0.2c0,0.1,0,0.1,0,0.2c0,0,0,0.1,0.1,0.1v0c0.1,0.1,0.1,0.2,0.2,0.3c0.1,0.1,0.1,0.4,0.1,0.7v11.9
	c0,0.3,0,0.6-0.1,0.7c-0.1,0.1-0.1,0.2-0.2,0.3v0c0,0-0.1,0.1-0.1,0.1c0,0,0,0.1,0,0.2c0,0.1,0.1,0.2,0.4,0.2h2.2
	c0.2,0,0.4-0.1,0.4-0.2c0-0.1,0-0.1,0-0.2c0,0,0-0.1-0.1-0.1v0c-0.1-0.1-0.1-0.2-0.2-0.3c-0.1-0.1-0.1-0.4-0.1-0.7v-1l1.9-5.5v6.5
	c0,0.3,0,0.6-0.1,0.7C182.3,352,182.3,352.1,182.1,352.2L182.1,352.2C182.2,352.1,182.1,352.2,182.1,352.2z"/>
<path class="st0" d="M185.9,352.2c0,0,0,0.1,0,0.2c0,0.1,0.1,0.2,0.4,0.2h2.1c0.2,0,0.4-0.1,0.4-0.2c0-0.1,0-0.1,0-0.2
	c0,0,0-0.1-0.1-0.1v0c-0.1-0.1-0.1-0.2-0.2-0.3c-0.1-0.1-0.1-0.4-0.1-0.7V347c0.4-0.2,0.9-0.6,1.3-1c0.5-0.4,0.9-1,1.3-1.6
	c0.4-0.6,0.7-1.3,1-2.1c0.3-0.8,0.4-1.7,0.4-2.6c0-0.2-0.1-0.4-0.2-0.7c-0.1-0.2-0.3-0.4-0.5-0.6c-0.2-0.2-0.4-0.3-0.7-0.4
	c-0.3-0.1-0.6-0.1-0.9-0.1h-3.8c-0.2,0-0.4,0.1-0.4,0.2c0,0.1,0,0.1,0,0.2c0,0,0.1,0.1,0.1,0.1v0c0.1,0.1,0.1,0.2,0.2,0.3
	c0.1,0.1,0.1,0.4,0.1,0.7v11.9c0,0.3,0,0.6-0.1,0.7C186.1,352,186,352.1,185.9,352.2l0.1-0.1C185.9,352.2,185.9,352.2,185.9,352.2z
	 M188.3,340.1c0-0.2,0.1-0.3,0.2-0.4c0.1-0.1,0.3-0.2,0.6-0.2c0.2,0,0.3,0,0.4,0.1c0.1,0.1,0.2,0.2,0.3,0.3c0.1,0.1,0.1,0.2,0.1,0.4
	c0,0.1,0,0.3,0,0.4c0,0.4-0.1,0.7-0.1,1.1c-0.1,0.4-0.2,0.8-0.4,1.1c-0.2,0.3-0.3,0.7-0.5,0.9c-0.2,0.3-0.4,0.5-0.6,0.6V340.1z"/>
<path class="st0" d="M193.1,352.2c0,0,0,0.1,0,0.2c0,0.1,0.1,0.2,0.4,0.2h2.2c0.2,0,0.4-0.1,0.4-0.2c0-0.1,0-0.1,0-0.2
	c0,0-0.1-0.1-0.1-0.1v0c-0.1-0.1-0.1-0.2-0.2-0.3c-0.1-0.1-0.1-0.4-0.1-0.7v-7.4c0.1,0,0.2,0,0.4-0.1c0.1,0,0.3,0,0.4,0h0.3
	c0.2,0,0.3,0,0.5,0c0.1,0,0.2,0,0.3,0v7.5c0,0.3,0,0.6-0.1,0.7c-0.1,0.1-0.1,0.2-0.2,0.3v0c0,0,0,0.1-0.1,0.1c0,0,0,0.1,0,0.2
	c0,0.1,0.1,0.2,0.4,0.2h2.2c0.2,0,0.4-0.1,0.4-0.2c0-0.1,0-0.1,0-0.2c0,0,0-0.1-0.1-0.1v0c-0.1-0.1-0.1-0.2-0.2-0.3
	c-0.1-0.1-0.1-0.4-0.1-0.7v-11.9c0-0.3,0-0.6,0.1-0.7c0.1-0.1,0.1-0.2,0.2-0.3v0c0,0,0-0.1,0.1-0.1c0,0,0-0.1,0-0.2
	c0-0.1-0.1-0.2-0.4-0.2h-2.2c0,0,0,0,0,0c0,0,0,0,0,0c-0.2,0-0.3,0.1-0.3,0.2c0,0.1,0,0.1,0,0.2c0,0,0,0.1,0.1,0.1v0
	c0.1,0.1,0.1,0.2,0.2,0.3c0.1,0.1,0.1,0.4,0.1,0.7v2.8c-0.1,0-0.2,0-0.3,0c-0.1,0-0.3,0-0.5,0h-0.3c-0.2,0-0.3,0-0.5,0
	c-0.1,0-0.2,0-0.3,0v-2.8c0-0.3,0-0.6,0.1-0.7c0.1-0.1,0.1-0.2,0.2-0.3v0c0,0,0-0.1,0.1-0.1c0,0,0-0.1,0-0.2c0-0.1-0.1-0.2-0.4-0.2
	h-2.2c0,0,0,0,0,0c0,0,0,0,0,0c-0.2,0-0.3,0.1-0.3,0.2c0,0.1,0,0.1,0,0.2c0,0,0,0.1,0.1,0.1v0c0.1,0.1,0.1,0.2,0.2,0.3
	c0.1,0.1,0.1,0.4,0.1,0.7v11.9c0,0.3,0,0.6-0.1,0.7C193.3,352,193.3,352.1,193.1,352.2L193.1,352.2
	C193.2,352.1,193.1,352.2,193.1,352.2z"/>
<path class="st0" d="M200.9,351.8c-0.1,0.1-0.2,0.2-0.3,0.3c-0.1,0.1-0.2,0.1-0.2,0.2c0,0.1,0.1,0.2,0.4,0.2h2.2
	c0.2,0,0.4-0.1,0.4-0.2c0-0.1,0-0.2-0.1-0.2h0c0-0.1-0.1-0.2-0.1-0.3c0-0.1,0-0.4,0-0.7l0.5-5.6c0-0.3,0.1-0.4,0.4-0.4h0.4
	c0.2,0,0.3,0.1,0.3,0.4v5.6c0,0.3,0,0.6-0.1,0.7c-0.1,0.1-0.1,0.2-0.2,0.3v0c0,0-0.1,0.1-0.1,0.1c0,0,0,0.1,0,0.2
	c0,0.1,0.1,0.2,0.4,0.2h2.2c0.2,0,0.4-0.1,0.4-0.2c0-0.1,0-0.1,0-0.2c0,0,0-0.1-0.1-0.1v0c-0.1-0.1-0.1-0.2-0.2-0.3
	c-0.1-0.1-0.1-0.4-0.1-0.7v-11.6c0-0.2,0-0.4,0.1-0.5c0.1-0.1,0.2-0.2,0.3-0.3c0.1-0.1,0.1-0.2,0.2-0.2c0.1-0.1,0.1-0.2,0.1-0.4
	c0-0.1,0-0.1-0.1-0.2c-0.1-0.1-0.1-0.1-0.2-0.1h-5.3c-0.2,0-0.4,0.1-0.4,0.3l-0.6,1.6c0,0.1,0,0.1,0,0.2c0,0.1,0.1,0.1,0.2,0.1h1.1
	l-1,11C201.1,351.5,201,351.7,200.9,351.8z M204,340.2c0-0.3,0.1-0.4,0.4-0.4h0.1c0.2,0,0.3,0.1,0.3,0.4v2.8c0,0.3-0.1,0.4-0.3,0.4
	h-0.4c-0.2,0-0.4-0.1-0.3-0.4L204,340.2z"/>
<path class="st0" d="M208.7,351.1c0,0.2-0.1,0.4-0.1,0.6c-0.1,0.1-0.1,0.2-0.2,0.3c0,0.1-0.1,0.1-0.1,0.1c0,0,0,0.1,0,0.2
	c0,0.1,0.1,0.2,0.4,0.2h2.2c0.2,0,0.4-0.1,0.4-0.2c0,0,0-0.1,0-0.1c0,0,0-0.1-0.1-0.1c-0.1-0.1-0.2-0.2-0.2-0.3
	c-0.1-0.1-0.1-0.4,0-0.7l0.8-5.1c0.1,0.1,0.1,0.1,0.2,0.2c0.1,0.1,0.1,0.1,0.1,0.1c0.1,0.1,0.2,0.2,0.3,0.2c0.1,0.1,0.1,0.1,0.2,0.1
	v4.4c0,0.3,0,0.6-0.1,0.7c-0.1,0.1-0.1,0.2-0.2,0.3v0c0,0-0.1,0.1-0.1,0.1c0,0,0,0.1,0,0.2c0,0.1,0.1,0.2,0.4,0.2h2.1
	c0.2,0,0.4-0.1,0.4-0.2c0-0.1,0-0.1,0-0.2c0,0-0.1-0.1-0.1-0.1v0c-0.1-0.1-0.1-0.2-0.2-0.3c-0.1-0.1-0.1-0.4-0.1-0.7v-11.9
	c0-0.3,0-0.6,0.1-0.7c0.1-0.1,0.1-0.2,0.2-0.3v0c0,0,0.1-0.1,0.1-0.1c0,0,0-0.1,0-0.2c0-0.1-0.1-0.2-0.4-0.2h-3.8
	c-0.3,0-0.6,0.1-0.9,0.1c-0.3,0.1-0.5,0.2-0.7,0.4c-0.2,0.2-0.4,0.4-0.5,0.6c-0.1,0.2-0.2,0.4-0.2,0.7c0,0.5,0,0.9,0.1,1.4
	c0.1,0.5,0.2,0.9,0.3,1.4c0.1,0.4,0.3,0.8,0.5,1.2c0.2,0.3,0.4,0.6,0.6,0.8c-0.2,1.1-0.4,2.3-0.5,3.4
	C209.1,348.9,208.9,350,208.7,351.1z M210.9,340.3c0-0.1,0.1-0.3,0.1-0.4c0.1-0.1,0.2-0.2,0.3-0.3c0.1-0.1,0.3-0.1,0.4-0.1
	c0.3,0,0.5,0.1,0.6,0.2c0.1,0.1,0.2,0.2,0.2,0.4v4.2c-0.2-0.2-0.4-0.4-0.6-0.7c-0.2-0.3-0.4-0.5-0.5-0.9c-0.2-0.3-0.3-0.7-0.4-1
	c-0.1-0.4-0.1-0.7-0.1-1.1C210.8,340.6,210.8,340.5,210.9,340.3z"/>
<path class="st0" d="M221.6,339.4c-0.5,0-1,0.1-1.3,0.3c-0.3,0.2-0.6,0.5-0.7,0.8c-0.2,0.3-0.3,0.7-0.3,1.1c0,0.4,0,0.8,0,1.2
	c0,0.4,0.1,0.8,0.2,1.2c0.1,0.4,0.2,0.7,0.3,1c0.2,0.6,0.4,1.1,0.7,1.6c0.3,0.5,0.6,0.9,0.9,1.3c0.3,0.4,0.6,0.7,0.9,1
	c0.3,0.3,0.6,0.5,0.9,0.7v1.6c0,0.3,0,0.6-0.1,0.7c-0.1,0.1-0.1,0.2-0.2,0.3v0c0,0,0,0.1-0.1,0.1c0,0,0,0.1,0,0.2
	c0,0.1,0.1,0.2,0.4,0.2h1.2h1.1c0.2,0,0.4-0.1,0.4-0.2c0-0.1,0-0.1,0-0.2c0,0-0.1-0.1-0.1-0.1v0c-0.1-0.1-0.1-0.2-0.2-0.3
	c-0.1-0.1-0.1-0.4-0.1-0.7v-1.6c0.2-0.2,0.5-0.4,0.8-0.8c0.3-0.3,0.7-0.7,1-1.2c0.3-0.5,0.7-1,1-1.6c0.3-0.6,0.6-1.2,0.8-1.9
	c0.1-0.3,0.1-0.6,0.2-0.9c0.1-0.3,0.1-0.7,0.1-1c0-0.4,0-0.7,0-1c0-0.3-0.1-0.6-0.3-0.9c-0.2-0.3-0.4-0.5-0.7-0.6
	c-0.3-0.2-0.7-0.2-1.2-0.2h-1.9l0-0.1c0-0.3,0-0.6,0.1-0.7c0.1-0.1,0.1-0.2,0.2-0.3v0c0,0,0.1-0.1,0.1-0.1c0,0,0-0.1,0-0.2
	c0-0.1-0.1-0.2-0.4-0.2h-1.1h-1c-0.2,0-0.4,0.1-0.4,0.2c0,0.1,0,0.1,0,0.2c0,0,0.1,0.1,0.1,0.1v0c0.1,0.1,0.1,0.2,0.2,0.3
	c0.1,0.1,0.1,0.4,0.1,0.7l0,0.1H221.6z M225.3,341.7c0-0.2,0.1-0.3,0.2-0.5c0.1-0.1,0.3-0.2,0.6-0.2c0.2,0,0.4,0.1,0.6,0.2
	c0.2,0.1,0.3,0.2,0.4,0.3c0.1,0.1,0.1,0.3,0.2,0.4c0,0.2,0,0.3,0,0.4c0,0.4-0.1,0.8-0.2,1.3c-0.1,0.5-0.3,0.9-0.5,1.3
	c-0.2,0.4-0.4,0.8-0.6,1.2c-0.2,0.3-0.4,0.6-0.6,0.8V341.7z M223.3,341.7v5.2c-0.2-0.2-0.4-0.4-0.6-0.8c-0.2-0.3-0.4-0.7-0.6-1.1
	c-0.2-0.4-0.3-0.9-0.4-1.3c-0.1-0.5-0.2-0.9-0.2-1.3c0-0.1,0-0.3,0.1-0.4c0-0.2,0.1-0.3,0.2-0.4c0.1-0.1,0.2-0.3,0.3-0.3
	c0.1-0.1,0.3-0.1,0.5-0.1c0.3,0,0.5,0.1,0.6,0.2C223.3,341.4,223.3,341.6,223.3,341.7z"/>
<path class="st0" d="M230.3,352.2c0,0,0,0.1,0,0.2c0,0.1,0.1,0.2,0.4,0.2h4.9c0.1,0,0.2,0,0.3-0.1c0.1-0.1,0.1-0.1,0.1-0.2v-2
	c0-0.1-0.1-0.3-0.2-0.4c-0.1-0.1-0.3-0.2-0.5-0.2c-0.2,0-0.4,0.1-0.6,0.2c-0.1,0.1-0.2,0.2-0.3,0.4c-0.1,0.1-0.3,0.3-0.4,0.4
	c-0.1,0.1-0.4,0.2-0.7,0.2c-0.2,0-0.3-0.1-0.4-0.2c-0.1-0.1-0.1-0.3-0.1-0.4v-6.6c0.1,0,0.1,0,0.1,0c0,0,0.1,0,0.1,0
	c0,0,0.1,0,0.1,0c0,0,0.1,0,0.1,0c0,0,0.1,0,0.2,0c0.1,0,0.1,0,0.2,0c0.5,0,0.8,0,0.9,0.1c0.2,0.1,0.3,0.1,0.4,0.1
	c0,0,0.1,0.1,0.1,0.1c0.1,0,0.1,0,0.2,0c0.1,0,0.2-0.1,0.2-0.3V342c0-0.2-0.1-0.3-0.2-0.3c-0.1,0-0.1,0-0.2,0c0,0-0.1,0-0.1,0.1
	c0,0-0.1,0.1-0.1,0.1c-0.1,0-0.1,0.1-0.2,0.1c-0.1,0-0.2,0-0.4,0.1c-0.1,0-0.3,0-0.6,0c-0.1,0-0.1,0-0.2,0c0,0-0.1,0-0.1,0
	s-0.1,0-0.1,0c0,0-0.1,0-0.1,0h-0.2v-1.9c0-0.1,0-0.3,0.1-0.4c0.1-0.1,0.2-0.2,0.4-0.2c0.3,0,0.5,0.1,0.7,0.2
	c0.1,0.1,0.3,0.3,0.4,0.4c0.1,0.1,0.2,0.3,0.3,0.4c0.1,0.1,0.3,0.2,0.6,0.2c0.3,0,0.4-0.1,0.5-0.2c0.1-0.1,0.2-0.2,0.2-0.4v-2
	c0-0.1,0-0.2-0.1-0.2c-0.1-0.1-0.2-0.1-0.3-0.1h-4.9c-0.2,0-0.4,0.1-0.4,0.2c0,0.1,0,0.1,0,0.2c0,0,0,0.1,0.1,0.1v0
	c0.1,0.1,0.1,0.2,0.2,0.3c0.1,0.1,0.1,0.4,0.1,0.7v11.9c0,0.3,0,0.6-0.1,0.7C230.5,352,230.4,352.1,230.3,352.2L230.3,352.2
	C230.4,352.1,230.3,352.2,230.3,352.2z"/>
<path class="st0" d="M237.1,350.5c-0.2,0-0.4,0.1-0.4,0.3v2c0,0.1,0,0.2,0.1,0.3c0.1,0.1,0.2,0.2,0.4,0.2c0.2,0,0.4-0.1,0.5-0.2
	c0.1-0.1,0.2-0.2,0.2-0.3c0-0.1,0.1-0.2,0.2-0.2c0.1-0.1,0.2-0.1,0.4-0.1h4.3c0.1,0,0.2,0,0.3,0.1c0.1,0.1,0.1,0.2,0.2,0.3h0
	c0.1,0.1,0.1,0.2,0.2,0.3c0.1,0.1,0.3,0.2,0.5,0.2c0.2,0,0.3-0.1,0.4-0.2c0.1-0.1,0.1-0.2,0.1-0.3v-2c0-0.1,0-0.2-0.1-0.2
	c-0.1-0.1-0.2-0.1-0.3-0.1h-0.8v-10.9c0-0.2,0-0.4,0.1-0.5c0.1-0.1,0.2-0.2,0.3-0.3c0.1-0.1,0.1-0.2,0.2-0.2
	c0.1-0.1,0.1-0.2,0.1-0.4c0-0.1,0-0.1-0.1-0.2c-0.1-0.1-0.1-0.1-0.2-0.1h-5.1c-0.1,0-0.2,0-0.3,0.1c-0.1,0.1-0.1,0.1-0.1,0.2
	l-0.5,1.6c0,0.1,0,0.1,0,0.2c0,0.1,0.1,0.1,0.2,0.1c0,0,0.1,0,0.2,0c0.1,0,0.2,0,0.3,0c0.1,0,0.2,0,0.4,0l-0.9,10.4H237.1z
	 M240.5,340.2c0-0.3,0.1-0.4,0.4-0.4h0.1c0.2,0,0.3,0.1,0.3,0.4l0,9.3v1H241h-0.7h-0.6L240.5,340.2z"/>
<path class="st0" d="M245.3,352.2c0,0,0,0.1,0,0.2c0,0.1,0.1,0.2,0.4,0.2h4.9c0.1,0,0.2,0,0.3-0.1c0.1-0.1,0.1-0.1,0.1-0.2v-2
	c0-0.1-0.1-0.3-0.2-0.4c-0.1-0.1-0.3-0.2-0.5-0.2c-0.2,0-0.4,0.1-0.6,0.2c-0.1,0.1-0.2,0.2-0.3,0.4c-0.1,0.1-0.3,0.3-0.4,0.4
	c-0.1,0.1-0.4,0.2-0.7,0.2c-0.2,0-0.3-0.1-0.4-0.2c-0.1-0.1-0.1-0.3-0.1-0.4v-6.6c0.1,0,0.1,0,0.1,0c0,0,0.1,0,0.1,0
	c0,0,0.1,0,0.1,0c0,0,0.1,0,0.1,0c0,0,0.1,0,0.2,0c0.1,0,0.1,0,0.2,0c0.5,0,0.8,0,0.9,0.1c0.2,0.1,0.3,0.1,0.4,0.1
	c0,0,0.1,0.1,0.1,0.1c0.1,0,0.1,0,0.2,0c0.1,0,0.2-0.1,0.2-0.3V342c0-0.2-0.1-0.3-0.2-0.3c-0.1,0-0.1,0-0.2,0c0,0-0.1,0-0.1,0.1
	c0,0-0.1,0.1-0.1,0.1c-0.1,0-0.1,0.1-0.2,0.1c-0.1,0-0.2,0-0.4,0.1c-0.1,0-0.3,0-0.6,0c-0.1,0-0.1,0-0.2,0c0,0-0.1,0-0.1,0
	s-0.1,0-0.1,0c0,0-0.1,0-0.1,0h-0.2v-1.9c0-0.1,0-0.3,0.1-0.4c0.1-0.1,0.2-0.2,0.4-0.2c0.3,0,0.5,0.1,0.7,0.2
	c0.1,0.1,0.3,0.3,0.4,0.4c0.1,0.1,0.2,0.3,0.3,0.4c0.1,0.1,0.3,0.2,0.6,0.2c0.3,0,0.4-0.1,0.5-0.2c0.1-0.1,0.2-0.2,0.2-0.4v-2
	c0-0.1,0-0.2-0.1-0.2c-0.1-0.1-0.2-0.1-0.3-0.1h-4.9c-0.2,0-0.4,0.1-0.4,0.2c0,0.1,0,0.1,0,0.2c0,0,0,0.1,0.1,0.1v0
	c0.1,0.1,0.1,0.2,0.2,0.3c0.1,0.1,0.1,0.4,0.1,0.7v11.9c0,0.3,0,0.6-0.1,0.7C245.5,352,245.4,352.1,245.3,352.2L245.3,352.2
	C245.3,352.1,245.3,352.2,245.3,352.2z"/>
<path class="st0" d="M251.7,352.2c0,0,0,0.1,0,0.2c0,0.1,0.1,0.2,0.4,0.2h2.1c0.2,0,0.4-0.1,0.4-0.2c0-0.1,0-0.1,0-0.2
	c0,0,0-0.1-0.1-0.1v0c-0.1-0.1-0.1-0.2-0.2-0.3c-0.1-0.1-0.1-0.4-0.1-0.7V347c0.4-0.2,0.9-0.6,1.3-1c0.5-0.4,0.9-1,1.3-1.6
	c0.4-0.6,0.7-1.3,1-2.1c0.3-0.8,0.4-1.7,0.4-2.6c0-0.2-0.1-0.4-0.2-0.7c-0.1-0.2-0.3-0.4-0.5-0.6c-0.2-0.2-0.4-0.3-0.7-0.4
	c-0.3-0.1-0.6-0.1-0.9-0.1h-3.8c-0.2,0-0.4,0.1-0.4,0.2c0,0.1,0,0.1,0,0.2c0,0,0.1,0.1,0.1,0.1v0c0.1,0.1,0.1,0.2,0.2,0.3
	c0.1,0.1,0.1,0.4,0.1,0.7v11.9c0,0.3,0,0.6-0.1,0.7C252,352,251.9,352.1,251.7,352.2l0.1-0.1C251.8,352.2,251.8,352.2,251.7,352.2z
	 M254.1,340.1c0-0.2,0.1-0.3,0.2-0.4c0.1-0.1,0.3-0.2,0.6-0.2c0.2,0,0.3,0,0.4,0.1c0.1,0.1,0.2,0.2,0.3,0.3c0.1,0.1,0.1,0.2,0.1,0.4
	c0,0.1,0,0.3,0,0.4c0,0.4-0.1,0.7-0.1,1.1c-0.1,0.4-0.2,0.8-0.4,1.1c-0.2,0.3-0.3,0.7-0.5,0.9c-0.2,0.3-0.4,0.5-0.6,0.6V340.1z"/>
<path class="st0" d="M259.4,351.8c-0.1,0.1-0.2,0.2-0.3,0.3c-0.1,0.1-0.2,0.1-0.2,0.2c0,0.1,0.1,0.2,0.4,0.2h2.2
	c0.2,0,0.4-0.1,0.4-0.2c0-0.1,0-0.2-0.1-0.2h0c0-0.1-0.1-0.2-0.1-0.3c0-0.1,0-0.4,0-0.7l0.5-5.6c0-0.3,0.1-0.4,0.4-0.4h0.4
	c0.2,0,0.3,0.1,0.3,0.4v5.6c0,0.3,0,0.6-0.1,0.7c-0.1,0.1-0.1,0.2-0.2,0.3v0c0,0-0.1,0.1-0.1,0.1c0,0,0,0.1,0,0.2
	c0,0.1,0.1,0.2,0.4,0.2h2.2c0.2,0,0.4-0.1,0.4-0.2c0-0.1,0-0.1,0-0.2c0,0,0-0.1-0.1-0.1v0c-0.1-0.1-0.1-0.2-0.2-0.3
	c-0.1-0.1-0.1-0.4-0.1-0.7v-11.6c0-0.2,0-0.4,0.1-0.5c0.1-0.1,0.2-0.2,0.3-0.3c0.1-0.1,0.1-0.2,0.2-0.2c0.1-0.1,0.1-0.2,0.1-0.4
	c0-0.1,0-0.1-0.1-0.2c-0.1-0.1-0.1-0.1-0.2-0.1h-5.3c-0.2,0-0.4,0.1-0.4,0.3l-0.6,1.6c0,0.1,0,0.1,0,0.2c0,0.1,0.1,0.1,0.2,0.1h1.1
	l-1,11C259.6,351.5,259.5,351.7,259.4,351.8z M262.5,340.2c0-0.3,0.1-0.4,0.4-0.4h0.1c0.2,0,0.3,0.1,0.3,0.4v2.8
	c0,0.3-0.1,0.4-0.3,0.4h-0.4c-0.2,0-0.4-0.1-0.3-0.4L262.5,340.2z"/>
<path class="st0" d="M266.7,352.2c0,0,0,0.1,0,0.2c0,0.1,0.1,0.2,0.3,0.2c0,0,0,0,0,0c0,0,0,0,0,0h5.6c0.1,0,0.2,0,0.3,0.1
	c0.1,0.1,0.1,0.2,0.2,0.3h0c0.1,0.1,0.1,0.2,0.2,0.3c0.1,0.1,0.3,0.2,0.5,0.2c0.2,0,0.3-0.1,0.4-0.2c0.1-0.1,0.1-0.2,0.1-0.3v-2
	c0-0.1,0-0.2-0.1-0.2c-0.1-0.1-0.2-0.1-0.3-0.1H273v-11.3c0-0.3,0-0.6,0.1-0.7c0.1-0.1,0.1-0.2,0.2-0.3v0c0,0,0-0.1,0.1-0.1
	c0,0,0-0.1,0-0.2c0-0.1-0.1-0.2-0.4-0.2h-2.2c-0.2,0-0.4,0.1-0.4,0.2c0,0.1,0,0.1,0,0.2c0,0,0,0.1,0.1,0.1v0
	c0.1,0.1,0.1,0.2,0.2,0.3c0.1,0.1,0.1,0.4,0.1,0.7v10.4c0,0.2,0,0.4,0,0.6c0,0.1-0.1,0.3-0.1,0.3c-0.1,0.1-0.2,0.1-0.3,0.2
	c-0.1,0-0.3,0-0.5,0c-0.4,0-0.6-0.1-0.7-0.2c-0.1-0.1-0.2-0.4-0.2-0.8v-10.5c0-0.3,0-0.6,0.1-0.7c0.1-0.1,0.1-0.2,0.2-0.3v0
	c0,0,0-0.1,0.1-0.1c0,0,0-0.1,0-0.2c0-0.1-0.1-0.2-0.4-0.2H267c-0.2,0-0.4,0.1-0.4,0.2c0,0.1,0,0.1,0,0.2c0,0,0,0.1,0.1,0.1v0
	c0.1,0.1,0.1,0.2,0.2,0.3c0.1,0.1,0.1,0.4,0.1,0.7v11.9c0,0.3,0,0.6-0.1,0.7C266.9,352,266.9,352.1,266.7,352.2L266.7,352.2
	C266.8,352.1,266.7,352.2,266.7,352.2z"/>
<path class="st0" d="M275.3,352.2c0,0,0,0.1,0,0.2c0,0.1,0.1,0.2,0.4,0.2h2.2c0.2,0,0.4-0.1,0.4-0.2c0-0.1,0-0.1,0-0.2
	c0,0,0-0.1-0.1-0.1v0c-0.1-0.1-0.1-0.2-0.2-0.3c-0.1-0.1-0.1-0.4-0.1-0.7v-1l1.9-5.5v6.5c0,0.3,0,0.6-0.1,0.7
	c-0.1,0.1-0.1,0.2-0.2,0.3v0c0,0,0,0.1-0.1,0.1c0,0,0,0.1,0,0.2c0,0.1,0.1,0.2,0.4,0.2h2.2c0.2,0,0.4-0.1,0.4-0.2c0-0.1,0-0.1,0-0.2
	c0,0,0-0.1-0.1-0.1v0c-0.1-0.1-0.1-0.2-0.2-0.3c-0.1-0.1-0.1-0.4-0.1-0.7v-11.9c0-0.3,0-0.6,0.1-0.7c0.1-0.1,0.1-0.2,0.2-0.3v0
	c0,0,0-0.1,0.1-0.1c0,0,0-0.1,0-0.2c0-0.1-0.1-0.2-0.4-0.2h-2.2c0,0,0,0,0,0c0,0,0,0,0,0c-0.2,0-0.3,0.1-0.3,0.2c0,0.1,0,0.1,0,0.2
	c0,0,0,0.1,0.1,0.1v0c0.1,0.1,0.1,0.2,0.2,0.3c0.1,0.1,0.1,0.4,0.1,0.7v0.7l-1.9,5.5v-6.2c0-0.3,0-0.6,0.1-0.7
	c0.1-0.1,0.1-0.2,0.2-0.3v0c0,0,0-0.1,0.1-0.1c0,0,0-0.1,0-0.2c0-0.1-0.1-0.2-0.4-0.2h-2.2c0,0,0,0,0,0c0,0,0,0,0,0
	c-0.2,0-0.3,0.1-0.3,0.2c0,0.1,0,0.1,0,0.2c0,0,0,0.1,0.1,0.1v0c0.1,0.1,0.1,0.2,0.2,0.3c0.1,0.1,0.1,0.4,0.1,0.7v11.9
	c0,0.3,0,0.6-0.1,0.7C275.5,352,275.4,352.1,275.3,352.2L275.3,352.2C275.4,352.1,275.3,352.2,275.3,352.2z"/>
<path class="st0" d="M283.5,351.1c0,0.2-0.1,0.4-0.1,0.6c-0.1,0.1-0.1,0.2-0.2,0.3c0,0.1-0.1,0.1-0.1,0.1c0,0,0,0.1,0,0.2
	c0,0.1,0.1,0.2,0.4,0.2h2.2c0.2,0,0.4-0.1,0.4-0.2c0,0,0-0.1,0-0.1c0,0,0-0.1-0.1-0.1c-0.1-0.1-0.2-0.2-0.2-0.3
	c-0.1-0.1-0.1-0.4,0-0.7l0.8-5.1c0.1,0.1,0.1,0.1,0.2,0.2c0.1,0.1,0.1,0.1,0.1,0.1c0.1,0.1,0.2,0.2,0.2,0.2c0.1,0.1,0.1,0.1,0.2,0.1
	v4.4c0,0.3,0,0.6-0.1,0.7c-0.1,0.1-0.1,0.2-0.2,0.3v0c0,0,0,0.1-0.1,0.1c0,0,0,0.1,0,0.2c0,0.1,0.1,0.2,0.4,0.2h2.1
	c0.2,0,0.4-0.1,0.4-0.2c0-0.1,0-0.1,0-0.2c0,0-0.1-0.1-0.1-0.1v0c-0.1-0.1-0.1-0.2-0.2-0.3c-0.1-0.1-0.1-0.4-0.1-0.7v-11.9
	c0-0.3,0-0.6,0.1-0.7c0.1-0.1,0.1-0.2,0.2-0.3v0c0,0,0.1-0.1,0.1-0.1c0,0,0-0.1,0-0.2c0-0.1-0.1-0.2-0.4-0.2h-3.8
	c-0.3,0-0.6,0.1-0.9,0.1c-0.3,0.1-0.5,0.2-0.7,0.4c-0.2,0.2-0.4,0.4-0.5,0.6c-0.1,0.2-0.2,0.4-0.2,0.7c0,0.5,0,0.9,0.1,1.4
	c0.1,0.5,0.2,0.9,0.3,1.4c0.1,0.4,0.3,0.8,0.5,1.2c0.2,0.3,0.4,0.6,0.6,0.8c-0.2,1.1-0.4,2.3-0.5,3.4
	C283.8,348.9,283.6,350,283.5,351.1z M285.6,340.3c0-0.1,0.1-0.3,0.1-0.4c0.1-0.1,0.2-0.2,0.3-0.3c0.1-0.1,0.3-0.1,0.4-0.1
	c0.3,0,0.5,0.1,0.6,0.2c0.1,0.1,0.2,0.2,0.2,0.4v4.2c-0.2-0.2-0.4-0.4-0.6-0.7c-0.2-0.3-0.4-0.5-0.5-0.9c-0.2-0.3-0.3-0.7-0.4-1
	c-0.1-0.4-0.1-0.7-0.1-1.1C285.5,340.6,285.6,340.5,285.6,340.3z"/>
<path class="st0" d="M296.4,339.8c0.1-0.1,0.3-0.2,0.5-0.2c0.2,0,0.4,0.1,0.5,0.2c0.1,0.1,0.2,0.2,0.3,0.3c0.1,0.1,0.2,0.2,0.3,0.3
	c0.1,0.1,0.3,0.1,0.5,0.1c0.3,0,0.4-0.1,0.5-0.2c0.1-0.1,0.2-0.2,0.2-0.4v-1.5c0-0.1-0.1-0.2-0.2-0.3c-0.1-0.1-0.3-0.2-0.5-0.3
	c-0.2-0.1-0.5-0.1-0.7-0.2c-0.3-0.1-0.6-0.1-0.9-0.1c-0.3,0-0.7,0-1,0.1c-0.3,0.1-0.6,0.2-0.9,0.4c-0.3,0.2-0.5,0.4-0.6,0.7
	c-0.2,0.3-0.2,0.6-0.2,1v10.8c0,0.4,0.1,0.7,0.2,1c0.2,0.3,0.4,0.5,0.6,0.7c0.3,0.2,0.6,0.3,0.9,0.4c0.3,0.1,0.7,0.1,1,0.1
	c0.3,0,0.6,0,0.9-0.1c0.3,0,0.5-0.1,0.7-0.2c0.2-0.1,0.4-0.2,0.5-0.3c0.1-0.1,0.2-0.2,0.2-0.3v-1.7c0-0.1-0.1-0.3-0.1-0.4
	c-0.1-0.1-0.3-0.2-0.5-0.2c-0.2,0-0.4,0.1-0.5,0.2c-0.1,0.1-0.2,0.2-0.3,0.4c-0.1,0.1-0.2,0.3-0.3,0.4c-0.1,0.1-0.3,0.2-0.5,0.2
	c-0.2,0-0.3,0-0.4-0.1c-0.1,0-0.2-0.1-0.2-0.2c0-0.1-0.1-0.2-0.1-0.3c0-0.1,0-0.2,0-0.2v-9.7C296.2,340.2,296.2,340,296.4,339.8z"/>
<path class="st0" d="M306.8,338.2c0,0,0-0.1,0-0.2c0-0.1-0.1-0.2-0.4-0.2h-2.2c0,0,0,0,0,0c0,0,0,0,0,0c-0.2,0-0.3,0.1-0.3,0.2
	c0,0.1,0,0.1,0,0.2c0,0,0.1,0.1,0.1,0.1v0c0.1,0.1,0.1,0.2,0.2,0.3c0.1,0.1,0.1,0.4,0.1,0.7v0.7l-1.9,5.5v-6.2c0-0.3,0-0.6,0.1-0.7
	c0.1-0.1,0.1-0.2,0.2-0.3v0c0,0,0-0.1,0.1-0.1c0,0,0-0.1,0-0.2c0-0.1-0.1-0.2-0.4-0.2h-2.2c0,0,0,0,0,0c0,0,0,0,0,0
	c-0.2,0-0.3,0.1-0.3,0.2c0,0.1,0,0.1,0,0.2c0,0,0,0.1,0.1,0.1v0c0.1,0.1,0.1,0.2,0.2,0.3c0.1,0.1,0.1,0.4,0.1,0.7v11.9
	c0,0.3,0,0.6-0.1,0.7c-0.1,0.1-0.1,0.2-0.2,0.3v0c0,0,0,0.1-0.1,0.1c0,0,0,0.1,0,0.2c0,0.1,0.1,0.2,0.4,0.2h2.2
	c0.2,0,0.4-0.1,0.4-0.2c0-0.1,0-0.1,0-0.2c0,0,0-0.1-0.1-0.1v0c-0.1-0.1-0.1-0.2-0.2-0.3c-0.1-0.1-0.1-0.4-0.1-0.7v-1l1.9-5.5v6.5
	c0,0.3,0,0.6-0.1,0.7c-0.1,0.1-0.1,0.2-0.2,0.3v0c0,0-0.1,0.1-0.1,0.1c0,0,0,0.1,0,0.2c0,0.1,0.1,0.2,0.4,0.2h2.2
	c0.2,0,0.4-0.1,0.4-0.2c0-0.1,0-0.1,0-0.2c0,0-0.1-0.1-0.1-0.1v0c-0.1-0.1-0.1-0.2-0.2-0.3c-0.1-0.1-0.1-0.4-0.1-0.7v-11.9
	c0-0.3,0-0.6,0.1-0.7C306.6,338.4,306.7,338.3,306.8,338.2L306.8,338.2C306.8,338.3,306.8,338.2,306.8,338.2z"/>
<path class="st0" d="M314.3,338.2c0,0,0-0.1,0-0.2c0-0.1-0.1-0.2-0.4-0.2h-4.9c-0.2,0-0.4,0.1-0.4,0.3l-0.6,1.6c0,0.1,0,0.1,0,0.2
	c0,0.1,0.1,0.1,0.2,0.1h0.9c-0.2,0.4-0.4,0.8-0.6,1.3c-0.2,0.5-0.3,1.1-0.3,1.8v7.8c0,0.3,0,0.6-0.1,0.7c-0.1,0.1-0.1,0.2-0.2,0.3v0
	c0,0-0.1,0.1-0.1,0.1c0,0,0,0.1,0,0.2c0,0.1,0.1,0.2,0.4,0.2h2.1c0.2,0,0.4-0.1,0.4-0.2c0-0.1,0-0.1,0-0.2c0,0-0.1-0.1-0.1-0.1v0
	c-0.1-0.1-0.1-0.2-0.2-0.3c-0.1-0.1-0.1-0.4-0.1-0.7l0-7.4c0-0.4,0-0.8,0.1-1.2c0.1-0.4,0.2-0.8,0.4-1.1c0.2-0.3,0.3-0.5,0.5-0.7
	c0.2-0.2,0.4-0.3,0.6-0.2l0,10.7c0,0.3,0,0.6-0.1,0.7c-0.1,0.1-0.1,0.2-0.2,0.3v0c0,0-0.1,0.1-0.1,0.1c0,0,0,0.1,0,0.2
	c0,0.1,0.1,0.2,0.4,0.2h2.1c0.2,0,0.4-0.1,0.4-0.2c0-0.1,0-0.1,0-0.2c0,0-0.1-0.1-0.1-0.1v0c-0.1-0.1-0.1-0.2-0.2-0.3
	c-0.1-0.1-0.1-0.4-0.1-0.7v-11.9c0-0.3,0-0.6,0.1-0.7C314.1,338.4,314.1,338.3,314.3,338.2L314.3,338.2
	C314.2,338.3,314.3,338.2,314.3,338.2z"/>
<path class="st0" d="M319,337.8c-0.3-0.1-0.6-0.1-1-0.1c-0.3,0-0.7,0-1,0.1c-0.3,0.1-0.6,0.2-0.9,0.4c-0.3,0.2-0.5,0.4-0.6,0.7
	c-0.2,0.3-0.2,0.6-0.2,1v4v6.8c0,0.4,0.1,0.7,0.3,1c0.2,0.3,0.4,0.5,0.7,0.7c0.3,0.2,0.6,0.3,0.9,0.4c0.3,0.1,0.6,0.1,0.9,0.1
	c0.3,0,0.6,0,1-0.1c0.3-0.1,0.6-0.2,0.9-0.4c0.3-0.2,0.5-0.4,0.6-0.7c0.2-0.3,0.2-0.6,0.2-1v-10.8c0-0.4-0.1-0.7-0.2-1
	c-0.2-0.3-0.4-0.5-0.6-0.7C319.6,338,319.3,337.9,319,337.8z M318.7,350.1c0,0.1,0,0.2,0,0.2c0,0.1,0,0.2-0.1,0.3
	c0,0.1-0.1,0.1-0.2,0.2c-0.1,0.1-0.2,0.1-0.4,0.1c-0.2,0-0.3,0-0.4-0.1c-0.1,0-0.2-0.1-0.2-0.2c-0.1-0.1-0.1-0.2-0.1-0.3
	s0-0.2,0-0.2v-6v-3.7c0-0.2,0-0.4,0.1-0.6c0.1-0.1,0.3-0.2,0.6-0.2c0.3,0,0.5,0.1,0.6,0.2c0.1,0.1,0.1,0.3,0.1,0.6V350.1z"/>
<path class="st0" d="M321.7,352.2c0,0,0,0.1,0,0.2c0,0.1,0.1,0.2,0.4,0.2h3.9c0.4,0,0.8-0.1,1.1-0.2c0.3-0.1,0.5-0.3,0.7-0.5
	c0.2-0.2,0.3-0.5,0.4-0.7c0.1-0.3,0.1-0.6,0.1-0.9c0-0.6,0-1.1-0.1-1.6c-0.1-0.5-0.2-0.9-0.3-1.3c-0.1-0.4-0.3-0.8-0.5-1.2
	c-0.2-0.4-0.4-0.8-0.6-1.2c-0.1-0.2-0.2-0.3-0.3-0.5c0.2-0.2,0.3-0.4,0.5-0.8c0.2-0.3,0.4-0.7,0.6-1.2c0.2-0.4,0.3-0.9,0.4-1.4
	c0.1-0.5,0.2-1,0.2-1.5c0-0.2-0.1-0.4-0.2-0.7c-0.1-0.2-0.3-0.4-0.5-0.6c-0.2-0.2-0.4-0.3-0.7-0.4c-0.3-0.1-0.6-0.1-0.9-0.1h-3.9
	c-0.2,0-0.4,0.1-0.4,0.2c0,0.1,0,0.1,0,0.2c0,0,0,0.1,0.1,0.1v0c0.1,0.1,0.1,0.2,0.2,0.3c0.1,0.1,0.1,0.4,0.1,0.7v11.9
	c0,0.3,0,0.6-0.1,0.7C321.9,352,321.9,352.1,321.7,352.2L321.7,352.2C321.8,352.1,321.8,352.2,321.7,352.2z M324.1,340.1
	c0-0.2,0.1-0.3,0.2-0.4c0.1-0.1,0.3-0.2,0.6-0.2c0.2,0,0.3,0,0.4,0.1c0.1,0.1,0.2,0.2,0.3,0.3c0.1,0.1,0.1,0.2,0.1,0.4
	c0,0.1,0,0.3,0,0.4c0,0.4,0,0.7-0.1,1.1c-0.1,0.4-0.2,0.7-0.4,1c-0.1,0.3-0.3,0.6-0.5,0.9c-0.2,0.3-0.4,0.5-0.6,0.7V340.1z
	 M324.1,346.8l0.8-0.8c0.1,0.2,0.2,0.5,0.4,0.8c0.1,0.3,0.2,0.6,0.3,1c0.1,0.3,0.2,0.7,0.2,1.1c0.1,0.4,0.1,0.7,0.1,1.1
	c0,0.1,0,0.2,0,0.3c0,0.1,0,0.2-0.1,0.3c-0.1,0.1-0.1,0.2-0.3,0.2c-0.1,0.1-0.3,0.1-0.5,0.1c-0.2,0-0.5,0-0.7-0.1
	c-0.2-0.1-0.3-0.2-0.3-0.5V346.8z"/>
<path class="st0" d="M330.9,352.7c0.3,0.1,0.6,0.1,0.9,0.1c0.3,0,0.6,0,1-0.1c0.3-0.1,0.6-0.2,0.9-0.4c0.3-0.2,0.5-0.4,0.6-0.7
	c0.2-0.3,0.2-0.6,0.2-1v-10.8c0-0.4-0.1-0.7-0.2-1c-0.2-0.3-0.4-0.5-0.6-0.7c-0.3-0.2-0.6-0.3-0.9-0.4c-0.3-0.1-0.6-0.1-1-0.1
	c-0.3,0-0.7,0-1,0.1c-0.3,0.1-0.6,0.2-0.9,0.4c-0.3,0.2-0.5,0.4-0.6,0.7c-0.2,0.3-0.2,0.6-0.2,1v4v6.8c0,0.4,0.1,0.7,0.3,1
	c0.2,0.3,0.4,0.5,0.7,0.7C330.3,352.5,330.6,352.6,330.9,352.7z M331.2,344.1v-3.7c0-0.2,0-0.4,0.1-0.6c0.1-0.1,0.3-0.2,0.6-0.2
	c0.3,0,0.5,0.1,0.6,0.2c0.1,0.1,0.1,0.3,0.1,0.6v9.7c0,0.1,0,0.2,0,0.2c0,0.1,0,0.2-0.1,0.3c0,0.1-0.1,0.1-0.2,0.2
	c-0.1,0.1-0.2,0.1-0.4,0.1c-0.2,0-0.3,0-0.4-0.1c-0.1,0-0.2-0.1-0.2-0.2c-0.1-0.1-0.1-0.2-0.1-0.3c0-0.1,0-0.2,0-0.2V344.1z"/>
<path class="st0" d="M335.5,352.2c0,0,0,0.1,0,0.2c0,0.1,0.1,0.2,0.4,0.2h2.2c0.2,0,0.4-0.1,0.4-0.2c0-0.1,0-0.1,0-0.2
	c0,0-0.1-0.1-0.1-0.1v0c-0.1-0.1-0.1-0.2-0.2-0.3c-0.1-0.1-0.1-0.4-0.1-0.7v-7.4v-3.6c0-0.1,0-0.3,0.1-0.4c0.1-0.1,0.2-0.2,0.4-0.2
	c0.3,0,0.5,0.1,0.7,0.2c0.1,0.1,0.3,0.3,0.4,0.4c0.1,0.1,0.2,0.3,0.3,0.4c0.1,0.1,0.3,0.2,0.6,0.2c0.3,0,0.4-0.1,0.5-0.2
	c0.1-0.1,0.2-0.2,0.2-0.4v-2c0-0.1,0-0.2-0.1-0.2c-0.1-0.1-0.2-0.1-0.3-0.1h-4.9c-0.2,0-0.4,0.1-0.4,0.2c0,0.1,0,0.1,0,0.2
	c0,0,0.1,0.1,0.1,0.1v0c0.1,0.1,0.1,0.2,0.2,0.3c0.1,0.1,0.1,0.4,0.1,0.7v11.9c0,0.3,0,0.6-0.1,0.7
	C335.7,352,335.6,352.1,335.5,352.2L335.5,352.2C335.5,352.1,335.5,352.2,335.5,352.2z"/>
<path class="st0" d="M343.8,352.7c0.3,0.1,0.6,0.1,0.9,0.1c0.3,0,0.6,0,1-0.1c0.3-0.1,0.6-0.2,0.9-0.4c0.3-0.2,0.5-0.4,0.6-0.7
	c0.2-0.3,0.2-0.6,0.2-1v-10.8c0-0.4-0.1-0.7-0.2-1c-0.2-0.3-0.4-0.5-0.6-0.7c-0.3-0.2-0.6-0.3-0.9-0.4c-0.3-0.1-0.6-0.1-1-0.1
	c-0.3,0-0.7,0-1,0.1c-0.3,0.1-0.6,0.2-0.9,0.4c-0.3,0.2-0.5,0.4-0.6,0.7c-0.2,0.3-0.2,0.6-0.2,1v4v6.8c0,0.4,0.1,0.7,0.3,1
	c0.2,0.3,0.4,0.5,0.7,0.7C343.2,352.5,343.5,352.6,343.8,352.7z M344.1,344.1v-3.7c0-0.2,0-0.4,0.1-0.6c0.1-0.1,0.3-0.2,0.6-0.2
	s0.5,0.1,0.6,0.2c0.1,0.1,0.1,0.3,0.1,0.6v9.7c0,0.1,0,0.2,0,0.2c0,0.1,0,0.2-0.1,0.3c0,0.1-0.1,0.1-0.2,0.2
	c-0.1,0.1-0.2,0.1-0.4,0.1c-0.2,0-0.3,0-0.4-0.1c-0.1,0-0.2-0.1-0.2-0.2c-0.1-0.1-0.1-0.2-0.1-0.3c0-0.1,0-0.2,0-0.2V344.1z"/>
<path class="st0" d="M356.9,340.5c0.1,0.1,0.3,0.2,0.5,0.2c0.2,0,0.3-0.1,0.4-0.2c0.1-0.1,0.1-0.2,0.1-0.3v-2c0-0.1,0-0.2-0.1-0.2
	c-0.1-0.1-0.2-0.1-0.3-0.1h-5.3c-0.2,0-0.4,0.1-0.4,0.3v2c0,0.1,0,0.2,0.1,0.3c0.1,0.1,0.2,0.2,0.4,0.2c0.2,0,0.4-0.1,0.5-0.2
	c0.1-0.1,0.2-0.2,0.2-0.3c0-0.1,0.1-0.2,0.2-0.2c0.1-0.1,0.2-0.1,0.4-0.1c0.1,0,0.2,0,0.3,0c0,0,0,0.1,0,0.3v11c0,0.3,0,0.6-0.1,0.7
	c-0.1,0.1-0.1,0.2-0.2,0.3v0c0,0-0.1,0.1-0.1,0.1c0,0,0,0.1,0,0.2c0,0.1,0.1,0.2,0.4,0.2h2.1c0.2,0,0.4-0.1,0.4-0.2
	c0-0.1,0-0.1,0-0.2c0,0,0-0.1-0.1-0.1v0c-0.1-0.1-0.1-0.2-0.2-0.3c-0.1-0.1-0.1-0.4-0.1-0.7v-11c0-0.1,0-0.2,0-0.3c0,0,0.1,0,0.3,0
	c0.1,0,0.2,0,0.3,0.1c0.1,0.1,0.1,0.2,0.2,0.3h0C356.7,340.3,356.8,340.4,356.9,340.5z"/>
<path class="st0" d="M358.6,352.2c0,0,0,0.1,0,0.2c0,0.1,0.1,0.2,0.4,0.2h2.1c0.2,0,0.4-0.1,0.4-0.2c0-0.1,0-0.1,0-0.2
	c0,0,0-0.1-0.1-0.1v0c-0.1-0.1-0.1-0.2-0.2-0.3c-0.1-0.1-0.1-0.4-0.1-0.7V347c0.4-0.2,0.9-0.6,1.3-1c0.5-0.4,0.9-1,1.3-1.6
	c0.4-0.6,0.7-1.3,1-2.1c0.3-0.8,0.4-1.7,0.4-2.6c0-0.2-0.1-0.4-0.2-0.7c-0.1-0.2-0.3-0.4-0.5-0.6c-0.2-0.2-0.4-0.3-0.7-0.4
	c-0.3-0.1-0.6-0.1-0.9-0.1H359c-0.2,0-0.4,0.1-0.4,0.2c0,0.1,0,0.1,0,0.2c0,0,0.1,0.1,0.1,0.1v0c0.1,0.1,0.1,0.2,0.2,0.3
	c0.1,0.1,0.1,0.4,0.1,0.7v11.9c0,0.3,0,0.6-0.1,0.7C358.9,352,358.8,352.1,358.6,352.2l0.1-0.1C358.7,352.2,358.7,352.2,358.6,352.2
	z M361,340.1c0-0.2,0.1-0.3,0.2-0.4c0.1-0.1,0.3-0.2,0.6-0.2c0.2,0,0.3,0,0.4,0.1c0.1,0.1,0.2,0.2,0.3,0.3c0.1,0.1,0.1,0.2,0.1,0.4
	c0,0.1,0,0.3,0,0.4c0,0.4,0,0.7-0.1,1.1c-0.1,0.4-0.2,0.8-0.4,1.1c-0.2,0.3-0.3,0.7-0.5,0.9c-0.2,0.3-0.4,0.5-0.6,0.6V340.1z"/>
<path class="st0" d="M367.7,352.7c0.3,0.1,0.6,0.1,0.9,0.1c0.3,0,0.6,0,1-0.1c0.3-0.1,0.6-0.2,0.9-0.4c0.3-0.2,0.5-0.4,0.6-0.7
	c0.2-0.3,0.2-0.6,0.2-1v-10.8c0-0.4-0.1-0.7-0.2-1c-0.2-0.3-0.4-0.5-0.6-0.7c-0.3-0.2-0.6-0.3-0.9-0.4c-0.3-0.1-0.6-0.1-1-0.1
	c-0.3,0-0.7,0-1,0.1c-0.3,0.1-0.6,0.2-0.9,0.4c-0.3,0.2-0.5,0.4-0.6,0.7c-0.2,0.3-0.2,0.6-0.2,1v4v6.8c0,0.4,0.1,0.7,0.3,1
	c0.2,0.3,0.4,0.5,0.7,0.7C367.1,352.5,367.4,352.6,367.7,352.7z M368,344.1v-3.7c0-0.2,0-0.4,0.1-0.6c0.1-0.1,0.3-0.2,0.6-0.2
	c0.3,0,0.5,0.1,0.6,0.2c0.1,0.1,0.1,0.3,0.1,0.6v9.7c0,0.1,0,0.2,0,0.2c0,0.1,0,0.2-0.1,0.3c0,0.1-0.1,0.1-0.2,0.2
	c-0.1,0.1-0.2,0.1-0.4,0.1c-0.2,0-0.3,0-0.4-0.1c-0.1,0-0.2-0.1-0.2-0.2c-0.1-0.1-0.1-0.2-0.1-0.3c0-0.1,0-0.2,0-0.2V344.1z"/>
<path class="st0" d="M374.8,339.7c0.1-0.1,0.2-0.2,0.4-0.2c0.3,0,0.5,0.1,0.7,0.2c0.1,0.1,0.3,0.3,0.4,0.4c0.1,0.1,0.2,0.3,0.3,0.4
	c0.1,0.1,0.3,0.2,0.6,0.2c0.3,0,0.4-0.1,0.5-0.2c0.1-0.1,0.2-0.2,0.2-0.4v-2c0-0.1,0-0.2-0.1-0.2c-0.1-0.1-0.2-0.1-0.3-0.1h-4.9
	c-0.2,0-0.4,0.1-0.4,0.2c0,0.1,0,0.1,0,0.2c0,0,0.1,0.1,0.1,0.1v0c0.1,0.1,0.1,0.2,0.2,0.3c0.1,0.1,0.1,0.4,0.1,0.7v11.9
	c0,0.3,0,0.6-0.1,0.7c-0.1,0.1-0.1,0.2-0.2,0.3v0c0,0-0.1,0.1-0.1,0.1c0,0,0,0.1,0,0.2c0,0.1,0.1,0.2,0.4,0.2h4.9
	c0.1,0,0.2,0,0.3-0.1c0.1-0.1,0.1-0.1,0.1-0.2v-2c0-0.1-0.1-0.3-0.2-0.4c-0.1-0.1-0.3-0.2-0.5-0.2c-0.2,0-0.4,0.1-0.6,0.2
	c-0.1,0.1-0.2,0.2-0.3,0.4c-0.1,0.1-0.3,0.3-0.4,0.4c-0.1,0.1-0.4,0.2-0.7,0.2c-0.2,0-0.3-0.1-0.4-0.2c-0.1-0.1-0.1-0.3-0.1-0.4
	v-6.6c0.1,0,0.1,0,0.1,0c0,0,0.1,0,0.1,0c0,0,0.1,0,0.1,0c0,0,0.1,0,0.1,0c0.1,0,0.1,0,0.2,0c0.1,0,0.1,0,0.2,0c0.5,0,0.8,0,0.9,0.1
	c0.2,0.1,0.3,0.1,0.4,0.1c0,0,0.1,0.1,0.1,0.1c0.1,0,0.1,0,0.2,0c0.1,0,0.2-0.1,0.2-0.3V342c0-0.2-0.1-0.3-0.2-0.3
	c-0.1,0-0.1,0-0.2,0c0,0-0.1,0-0.1,0.1c0,0-0.1,0.1-0.1,0.1c-0.1,0-0.1,0.1-0.2,0.1c-0.1,0-0.2,0-0.4,0.1c-0.1,0-0.3,0-0.6,0
	c-0.1,0-0.1,0-0.2,0c0,0-0.1,0-0.1,0c-0.1,0-0.1,0-0.1,0c0,0-0.1,0-0.1,0h-0.2v-1.9C374.6,340,374.7,339.9,374.8,339.7z"/>
<path class="st0" d="M378.7,352.2c0,0,0,0.1,0,0.2c0,0.1,0.1,0.2,0.4,0.2h3.8c0.7,0,1.2-0.2,1.5-0.5c0.3-0.3,0.6-0.7,0.7-1.1
	c0.1-0.4,0.1-0.9,0.1-1.4c-0.1-0.5-0.1-1-0.2-1.4c-0.2-0.7-0.4-1.4-0.7-2.1c-0.3-0.6-0.6-1.2-0.9-1.7c-0.3-0.5-0.7-1-1.1-1.3
	c-0.4-0.4-0.8-0.7-1.1-0.9l0-2c0-0.1,0-0.3,0.1-0.4c0.1-0.1,0.2-0.2,0.4-0.2c0.3,0,0.5,0.1,0.7,0.2c0.1,0.1,0.3,0.3,0.4,0.4
	c0.1,0.1,0.2,0.3,0.3,0.4c0.1,0.1,0.3,0.2,0.6,0.2c0.3,0,0.4-0.1,0.5-0.2c0.1-0.1,0.2-0.2,0.2-0.4v-2c0-0.1,0-0.2-0.1-0.2
	c-0.1-0.1-0.2-0.1-0.3-0.1H379c-0.2,0-0.4,0.1-0.4,0.2c0,0.1,0,0.1,0,0.2c0,0,0,0.1,0.1,0.1v0c0.1,0.1,0.1,0.2,0.2,0.3
	c0.1,0.1,0.1,0.4,0.1,0.7v11.9c0,0.3,0,0.6-0.1,0.7C378.9,352,378.8,352.1,378.7,352.2L378.7,352.2
	C378.8,352.1,378.7,352.2,378.7,352.2z M381.1,344.9c0.2,0.2,0.4,0.4,0.6,0.7c0.2,0.3,0.4,0.7,0.5,1.1c0.2,0.4,0.3,0.8,0.4,1.3
	c0.1,0.4,0.2,0.9,0.2,1.3c0,0.1,0,0.3-0.1,0.5c0,0.2-0.1,0.4-0.2,0.5c-0.1,0.2-0.2,0.3-0.3,0.4c-0.1,0.1-0.3,0.2-0.4,0.2
	c-0.3,0-0.5-0.1-0.6-0.2c-0.1-0.1-0.2-0.2-0.2-0.4V344.9z"/>
<path class="st0" d="M389.7,337.8c-0.3-0.1-0.6-0.1-1-0.1c-0.3,0-0.7,0-1,0.1c-0.3,0.1-0.6,0.2-0.9,0.4c-0.3,0.2-0.5,0.4-0.6,0.7
	c-0.2,0.3-0.2,0.6-0.2,1v4v6.8c0,0.4,0.1,0.7,0.3,1c0.2,0.3,0.4,0.5,0.7,0.7c0.3,0.2,0.6,0.3,0.9,0.4c0.3,0.1,0.6,0.1,0.9,0.1
	c0.3,0,0.6,0,1-0.1c0.3-0.1,0.6-0.2,0.9-0.4c0.3-0.2,0.5-0.4,0.6-0.7c0.2-0.3,0.2-0.6,0.2-1v-10.8c0-0.4-0.1-0.7-0.2-1
	c-0.2-0.3-0.4-0.5-0.6-0.7C390.3,338,390,337.9,389.7,337.8z M389.4,350.1c0,0.1,0,0.2,0,0.2c0,0.1,0,0.2-0.1,0.3
	c0,0.1-0.1,0.1-0.2,0.2c-0.1,0.1-0.2,0.1-0.4,0.1c-0.2,0-0.3,0-0.4-0.1c-0.1,0-0.2-0.1-0.2-0.2c-0.1-0.1-0.1-0.2-0.1-0.3
	c0-0.1,0-0.2,0-0.2v-6v-3.7c0-0.2,0-0.4,0.1-0.6c0.1-0.1,0.3-0.2,0.6-0.2c0.3,0,0.5,0.1,0.6,0.2c0.1,0.1,0.1,0.3,0.1,0.6V350.1z"/>
<path class="st0" d="M396,345.9c0.5-0.4,0.9-1,1.3-1.6c0.4-0.6,0.7-1.3,1-2.1c0.3-0.8,0.4-1.7,0.4-2.6c0-0.2-0.1-0.4-0.2-0.7
	c-0.1-0.2-0.3-0.4-0.5-0.6c-0.2-0.2-0.4-0.3-0.7-0.4c-0.3-0.1-0.6-0.1-0.9-0.1h-3.8c-0.2,0-0.4,0.1-0.4,0.2c0,0.1,0,0.1,0,0.2
	c0,0,0.1,0.1,0.1,0.1v0c0.1,0.1,0.1,0.2,0.2,0.3c0.1,0.1,0.1,0.4,0.1,0.7v11.9c0,0.3,0,0.6-0.1,0.7c-0.1,0.1-0.1,0.2-0.2,0.3v0
	c0,0-0.1,0.1-0.1,0.1c0,0,0,0.1,0,0.2c0,0.1,0.1,0.2,0.4,0.2h2.1c0.2,0,0.4-0.1,0.4-0.2c0-0.1,0-0.1,0-0.2c0,0,0-0.1-0.1-0.1v0
	c-0.1-0.1-0.1-0.2-0.2-0.3c-0.1-0.1-0.1-0.4-0.1-0.7V347C395.1,346.7,395.6,346.4,396,345.9z M394.7,340.1c0-0.2,0.1-0.3,0.2-0.4
	c0.1-0.1,0.3-0.2,0.6-0.2c0.2,0,0.3,0,0.4,0.1c0.1,0.1,0.2,0.2,0.3,0.3c0.1,0.1,0.1,0.2,0.1,0.4c0,0.1,0,0.3,0,0.4
	c0,0.4,0,0.7-0.1,1.1c-0.1,0.4-0.2,0.8-0.4,1.1c-0.2,0.3-0.3,0.7-0.5,0.9c-0.2,0.3-0.4,0.5-0.6,0.6V340.1z"/>
<path class="st0" d="M399.6,352.2c0,0,0,0.1,0,0.2c0,0.1,0.1,0.2,0.4,0.2h3.8c0.7,0,1.2-0.2,1.5-0.5c0.3-0.3,0.6-0.7,0.7-1.1
	c0.1-0.4,0.1-0.9,0.1-1.4c-0.1-0.5-0.1-1-0.2-1.4c-0.2-0.7-0.4-1.4-0.7-2.1c-0.3-0.6-0.6-1.2-0.9-1.7s-0.7-1-1.1-1.3
	c-0.4-0.4-0.8-0.7-1.1-0.9l0-2c0-0.9,0-1.5,0.1-1.6c0.1-0.1,0.1-0.2,0.2-0.3v0c0,0,0-0.1,0.1-0.1c0,0,0-0.1,0-0.2
	c0-0.1-0.1-0.2-0.4-0.2h-0.9h-1.2c-0.2,0-0.4,0.1-0.4,0.2c0,0.1,0,0.1,0,0.2c0,0,0,0.1,0.1,0.1v0c0.1,0.1,0.1,0.2,0.2,0.3
	c0.1,0.1,0.1,0.4,0.1,0.7v11.9c0,0.3,0,0.6-0.1,0.7C399.8,352,399.7,352.1,399.6,352.2L399.6,352.2
	C399.6,352.1,399.6,352.2,399.6,352.2z M402,344.9c0.2,0.2,0.4,0.4,0.6,0.7c0.2,0.3,0.4,0.7,0.5,1.1c0.2,0.4,0.3,0.8,0.4,1.3
	c0.1,0.4,0.2,0.9,0.2,1.3c0,0.1,0,0.3-0.1,0.5c0,0.2-0.1,0.4-0.2,0.5c-0.1,0.2-0.2,0.3-0.3,0.4c-0.1,0.1-0.3,0.2-0.4,0.2
	c-0.3,0-0.5-0.1-0.6-0.2c-0.1-0.1-0.2-0.2-0.2-0.4V344.9z"/>
<path class="st0" d="M413.5,338.2c0,0,0-0.1,0-0.2c0-0.1-0.1-0.2-0.4-0.2h-3.8c-0.3,0-0.6,0.1-0.9,0.1c-0.3,0.1-0.5,0.2-0.7,0.4
	c-0.2,0.2-0.4,0.4-0.5,0.6c-0.1,0.2-0.2,0.4-0.2,0.7c0,0.5,0,0.9,0.1,1.4c0.1,0.5,0.2,0.9,0.3,1.4c0.1,0.4,0.3,0.8,0.5,1.2
	c0.2,0.3,0.4,0.6,0.6,0.8c-0.2,1.1-0.4,2.3-0.5,3.4c-0.2,1.1-0.4,2.3-0.5,3.4c0,0.2-0.1,0.4-0.1,0.6c-0.1,0.1-0.1,0.2-0.2,0.3
	c0,0.1-0.1,0.1-0.1,0.1c0,0,0,0.1,0,0.2c0,0.1,0.1,0.2,0.4,0.2h2.2c0.2,0,0.4-0.1,0.4-0.2c0,0,0-0.1,0-0.1c0,0,0-0.1-0.1-0.1
	c-0.1-0.1-0.2-0.2-0.2-0.3c-0.1-0.1-0.1-0.4,0-0.7l0.8-5.1c0.1,0.1,0.1,0.1,0.2,0.2c0.1,0.1,0.1,0.1,0.1,0.1
	c0.1,0.1,0.2,0.2,0.2,0.2c0.1,0.1,0.1,0.1,0.2,0.1v4.4c0,0.3,0,0.6-0.1,0.7c-0.1,0.1-0.1,0.2-0.2,0.3v0c0,0,0,0.1-0.1,0.1
	c0,0,0,0.1,0,0.2c0,0.1,0.1,0.2,0.4,0.2h2.1c0.2,0,0.4-0.1,0.4-0.2c0-0.1,0-0.1,0-0.2c0,0-0.1-0.1-0.1-0.1v0
	c-0.1-0.1-0.1-0.2-0.2-0.3c-0.1-0.1-0.1-0.4-0.1-0.7v-11.9c0-0.3,0-0.6,0.1-0.7C413.2,338.4,413.3,338.3,413.5,338.2L413.5,338.2
	C413.4,338.3,413.4,338.2,413.5,338.2z M411.1,344.4c-0.2-0.2-0.4-0.4-0.6-0.7c-0.2-0.3-0.4-0.5-0.5-0.9c-0.2-0.3-0.3-0.7-0.4-1
	c-0.1-0.4-0.1-0.7-0.1-1.1c0-0.1,0-0.3,0-0.4c0-0.1,0.1-0.3,0.1-0.4c0.1-0.1,0.2-0.2,0.3-0.3c0.1-0.1,0.3-0.1,0.4-0.1
	c0.3,0,0.5,0.1,0.6,0.2c0.1,0.1,0.2,0.2,0.2,0.4V344.4z"/>
</svg>
