<?xml version="1.0" encoding="utf-8"?>
<!-- Generator: Adobe Illustrator 22.1.0, SVG Export Plug-In . SVG Version: 6.00 Build 0)  -->
<svg version="1.1" xmlns="http://www.w3.org/2000/svg" xmlns:xlink="http://www.w3.org/1999/xlink" x="0px" y="0px"
	 viewBox="0 0 589 309" style="enable-background:new 0 0 589 309;" xml:space="preserve">
<style type="text/css">
	.st0{clip-path:url(#SVGID_2_);}
	.st1{fill:none;}
	.st2{fill:url(#SVGID_3_);}
	.st3{fill:url(#SVGID_4_);}
	.st4{fill:url(#SVGID_5_);}
	.st5{fill:url(#SVGID_6_);}
	.st6{fill:url(#SVGID_7_);}
	.st7{fill:url(#SVGID_8_);}
	.st8{fill:url(#SVGID_9_);}
	.st9{fill:url(#SVGID_10_);}
	.st10{fill:url(#SVGID_11_);}
	.st11{fill:url(#SVGID_12_);}
	.st12{fill:#CCCCCC;}
	.st13{fill:url(#SVGID_13_);}
	.st14{fill:url(#SVGID_14_);}
	.st15{fill:url(#SVGID_15_);}
	.st16{fill:url(#SVGID_16_);}
	.st17{fill:url(#SVGID_17_);}
	.st18{fill:url(#SVGID_18_);}
	.st19{fill:url(#SVGID_19_);}
	.st20{fill:url(#SVGID_20_);}
	.st21{fill:url(#SVGID_21_);}
	.st22{fill:url(#SVGID_22_);}
	.st23{fill:url(#SVGID_23_);}
	.st24{fill:url(#SVGID_24_);}
	.st25{fill:url(#SVGID_25_);}
	.st26{fill:url(#SVGID_26_);}
	.st27{fill:url(#SVGID_27_);}
	.st28{fill:url(#SVGID_28_);}
	.st29{fill:#FFFFFF;}
	.st30{fill:#D1D3D4;}
	.st31{fill:url(#SVGID_29_);}
	.st32{fill:url(#SVGID_30_);}
	.st33{fill:url(#SVGID_31_);}
	.st34{fill:url(#SVGID_32_);}
	.st35{fill:url(#SVGID_33_);}
	.st36{fill:url(#SVGID_34_);}
	.st37{fill:url(#SVGID_35_);}
	.st38{fill:url(#SVGID_36_);}
	.st39{fill:url(#SVGID_37_);}
</style>
<g id="Layer_2">
</g>
<g id="Layer_1">
</g>
<g id="Layer_3">
</g>
<g id="Layer_4">
	<g>
		
			<radialGradient id="SVGID_2_" cx="299.8511" cy="136.5455" r="175.4498" gradientTransform="matrix(0.9859 0 0 1.0491 -1.4957 18.2164)" gradientUnits="userSpaceOnUse">
			<stop  offset="1.818180e-02" style="stop-color:#C4161C"/>
			<stop  offset="5.167935e-02" style="stop-color:#BC141A"/>
			<stop  offset="0.2069" style="stop-color:#9C0A0E"/>
			<stop  offset="0.3644" style="stop-color:#820000"/>
			<stop  offset="0.5221" style="stop-color:#6F0000"/>
			<stop  offset="0.6803" style="stop-color:#600000"/>
			<stop  offset="0.8391" style="stop-color:#570000"/>
			<stop  offset="1" style="stop-color:#540000"/>
		</radialGradient>
		<path style="fill:url(#SVGID_2_);" d="M391.5,147.8c-4.5-41.7-32.1-76-68.8-88.1v13.9c29.8,11.5,52,39.9,56.3,74.2h-27
			c0-19.5,0-40.1,0-48.7c-26.2-8.3-43.3-21.5-59.1-48.1c-15.8,26.6-33,39.7-59.1,48.1c0,8.7,0,29.3,0,48.7h-26
			c4.3-34,26-62.1,55.3-73.8V60c-36.2,12.4-63.2,46.4-67.7,87.8H72.6v18.7h122.2c2.5,43.9,30.3,80.5,68.2,93.5v-13.9
			c-30.9-12.4-53.4-43.1-55.8-79.6h26.5c0,6.2,0,11.6,0,15.8c0,0,0,0,0,0c1.4,0,3.5,2.2,6.2,5.8c15.2,15.3,26.2,61.9,30.9,83.9
			c0.9-2.3,1.9-4.4,3.1-6.3c0-31.4,0-100.9,0-100.9l-22.5-8.2l-6.2-21.6l39.3,23.4V213l8.4,8.6l8.4-8.6v-54.6l39.3-23.4l-6.2,21.6
			l-22.5,8.2c0,0,0,69.5,0,100.9c0.9,1.5,1.7,3.2,2.5,4.9c5.4-23.5,17.8-71.2,34.9-86.6c0.3-0.2,0.5-0.5,0.7-0.6
			c0.7-0.6,1.4-1.2,2-1.8c0-4.1,0-9.2,0-15.1h27.5c-2.4,36.9-25.4,67.9-56.9,80v13.9c38.4-12.7,66.7-49.6,69.2-93.9h123.7v-18.7
			H391.5z"/>
		
			<radialGradient id="SVGID_3_" cx="299.8516" cy="139.7305" r="182.1128" gradientTransform="matrix(0.9859 0 0 1.0491 -1.4957 18.2164)" gradientUnits="userSpaceOnUse">
			<stop  offset="1.818180e-02" style="stop-color:#C4161C"/>
			<stop  offset="5.167935e-02" style="stop-color:#BC141A"/>
			<stop  offset="0.2069" style="stop-color:#9C0A0E"/>
			<stop  offset="0.3644" style="stop-color:#820000"/>
			<stop  offset="0.5221" style="stop-color:#6F0000"/>
			<stop  offset="0.6803" style="stop-color:#600000"/>
			<stop  offset="0.8391" style="stop-color:#570000"/>
			<stop  offset="1" style="stop-color:#540000"/>
		</radialGradient>
		<path class="st2" d="M292.9,51c15.8,26.6,33,39.7,59.1,48.1c0,8.7,0,29.3,0,48.7h27c-4.3-34.4-26.5-62.8-56.3-74.2V59.7
			c36.7,12.1,64.2,46.4,68.8,88.1h124.2v18.7H391.9c-2.5,44.3-30.8,81.2-69.2,93.9v-13.9c31.4-12.1,54.4-43.1,56.9-80h-27.5
			c0,5.8,0,11,0,15.1c-0.7,0.6-1.4,1.2-2,1.8c-0.2,0.2-0.5,0.4-0.7,0.6c-17.1,15.5-29.5,63.2-34.9,86.6c-0.8-1.8-1.6-3.4-2.5-4.9
			c0-31.3,0-100.9,0-100.9l22.5-8.2l6.2-21.6l-39.3,23.4V213l-8.4,8.6l-8.4-8.6v-54.6l-39.3-23.4l6.2,21.6l22.5,8.2
			c0,0,0,69.5,0,100.9c-1.1,1.9-2.2,4-3.1,6.3c-4.7-22-15.7-68.7-30.9-83.9c-2.6-3.6-4.8-5.7-6.2-5.8c0,0,0,0,0,0
			c0-4.2,0-9.6,0-15.8h-26.5c2.4,36.5,24.9,67.2,55.8,79.6V260c-37.8-13-65.7-49.6-68.2-93.5H72.6v-18.7h122.7
			c4.5-41.3,31.6-75.3,67.7-87.8v13.9c-29.3,11.7-51,39.9-55.3,73.8h26c0-19.5,0-40.1,0-48.7C260,90.7,277.1,77.6,292.9,51
			 M292.9,41.8l-3.9,6.5c-6.6,11.2-13.5,19.9-21.4,26.9v-1.3V60v-6.7l-6,2.1c-37.1,12.7-64.3,46.8-70.3,87.5H72.6H68v4.9v18.7v4.9
			h4.6h118c2,20.6,9.4,40.1,21.5,56.5c12.8,17.3,29.9,30.1,49.6,36.8l3.1,1.1c0.5,2.4,1.1,4.8,1.6,7.3l3.2,14.7l5.5-13.9
			c0.8-2,1.7-3.9,2.7-5.6l0.7-1.2v-1.4V164.8v-3.5l-3.1-1.1l-20.3-7.3l-2.2-7.5l27,16V213v2.1l1.4,1.4l8.4,8.6l3.2,3.3l3.2-3.3
			l8.4-8.6l1.4-1.4V213v-51.7l27-16l-2.2,7.5l-20.3,7.3l-3.1,1.1v3.5v100.9v1.4l0.7,1.2c0.8,1.4,1.5,2.8,2.2,4.4l5.5,12.9l3.1-13.8
			c0.4-1.8,0.8-3.6,1.3-5.4l4-1.3c39.4-13,67.9-50.3,72.1-93.7h119.5h4.6v-4.9v-18.7v-4.9h-4.6H395.5c-6.1-41.2-33.7-75.4-71.4-87.9
			l-6-2v6.6v13.9v1.7c-7.9-7-14.7-15.7-21.3-26.9L292.9,41.8L292.9,41.8z M342.5,90.3c-7.7-3.2-14.4-7.1-20.5-11.9
			C329.5,81.4,336.3,85.4,342.5,90.3L342.5,90.3z M245.7,89.3c5.2-4,10.9-7.3,17-10C257.5,83.2,251.9,86.5,245.7,89.3L245.7,89.3z
			 M356.6,142.9v-38.1c8.4,10.9,14.3,23.9,17,38.1H356.6L356.6,142.9z M213.2,142.9c2.6-13.6,8.1-26.2,16-36.8v36.8H213.2
			L213.2,142.9z M356.6,171.4h17.9c-3.7,29.7-21.5,55.4-47.1,67.8c7.9-26,16.5-43.9,24.9-51.5l0.1-0.1l0.1-0.1
			c0.1-0.1,0.3-0.2,0.4-0.4l0.1-0.1l0.1-0.1c0.6-0.6,1.3-1.1,1.9-1.7l1.7-1.5v-2.3V171.4L356.6,171.4z M212.3,171.4h16.9v10.9v4.9
			h3.8c0.5,0.4,1.5,1.4,3.3,3.9l0.2,0.3l0.3,0.3c5.3,5.3,12.7,17.8,21,46.8C233.1,225.6,215.9,200.4,212.3,171.4L212.3,171.4z"/>
		<path class="st29" d="M292.9,51c15.8,26.6,33,39.7,59.1,48.1c0,8.7,0,29.3,0,48.7h27c-4.3-34.4-26.5-62.8-56.3-74.2V59.7
			c36.7,12.1,64.2,46.4,68.8,88.1h124.2v18.7H391.9c-2.5,44.3-30.8,81.2-69.2,93.9v-13.9c31.4-12.1,54.4-43.1,56.9-80h-27.5
			c0,5.8,0,11,0,15.1c-0.7,0.6-1.4,1.2-2,1.8c-0.2,0.2-0.5,0.4-0.7,0.6c-17.1,15.5-29.5,63.2-34.9,86.6c-0.8-1.8-1.6-3.4-2.5-4.9
			c0-31.3,0-100.9,0-100.9l22.5-8.2l6.2-21.6l-39.3,23.4V213l-8.4,8.6l-8.4-8.6v-54.6l-39.3-23.4l6.2,21.6l22.5,8.2
			c0,0,0,69.5,0,100.9c-1.1,1.9-2.2,4-3.1,6.3c-4.7-22-15.7-68.7-30.9-83.9c-2.6-3.6-4.8-5.7-6.2-5.8c0,0,0,0,0,0
			c0-4.2,0-9.6,0-15.8h-26.5c2.4,36.5,24.9,67.2,55.8,79.6V260c-37.8-13-65.7-49.6-68.2-93.5H72.6v-18.7h122.7
			c4.5-41.3,31.6-75.3,67.7-87.8v13.9c-29.3,11.7-51,39.9-55.3,73.8h26c0-19.5,0-40.1,0-48.7C260,90.7,277.1,77.6,292.9,51
			 M292.9,47.3l-1.6,2.6c-15.2,25.5-31.5,38.7-58.1,47.2l-0.5,0.2c8.5-9.3,19-16.8,31-21.5l1.2-0.5v-1.4V60v-2.7l-2.4,0.8
			c-36.9,12.7-63.7,46.9-68.8,87.7H72.6h-1.8v2v18.7v2h1.8h120.5c1.5,21.1,8.8,41,21.1,57.6c12.5,16.9,29.1,29.3,48.2,35.8l2.4,0.8
			V260v-5.8c1.4,5.6,2.8,11.7,4.2,18.2l1.3,5.9l2.2-5.6c0.9-2.2,1.8-4.2,2.9-6l0.3-0.5v-0.6V164.8v-1.4l-1.2-0.5l-21.6-7.8l-4.6-16
			l34.4,20.4V213v0.8l0.6,0.6l8.4,8.6l1.3,1.3l1.3-1.3l8.4-8.6l0.6-0.6V213v-53.4l34.4-20.4l-4.6,16l-21.6,7.8l-1.2,0.5v1.4v100.9
			v0.6l0.3,0.5c0.9,1.5,1.7,3,2.4,4.7l2.2,5.2l1.3-5.5c1.3-5.6,2.9-12.1,4.7-19.1v8.4v2.7l2.4-0.8c39.1-12.9,67.2-50.5,70.4-93.8
			h122h1.8v-2v-18.7v-2h-1.8H393.1c-5.1-41.2-32.4-75.6-69.8-88l-2.4-0.8v2.7v13.9v1.4l1.2,0.5c29.1,11.2,50,38.1,54.8,70.4h-23V99
			v-1.5l-1.3-0.4c-26.7-8.5-42.9-21.7-58.1-47.2L292.9,47.3L292.9,47.3z M209.9,145.8c2.7-18.2,10.5-34.7,22-47.6V99v46.8H209.9
			L209.9,145.8z M353.9,168.4h23.7c-3,34.2-24.2,63.8-54.6,75.9c6.6-23.1,16.1-48.5,27.4-58.8c0.2-0.2,0.4-0.4,0.6-0.5l0,0l0.1-0.1
			c0.7-0.6,1.3-1.2,2-1.8l0.7-0.6v-0.9V168.4L353.9,168.4z M209.2,168.4h22.7v13.8v2h1.8c0,0,1.3,0.3,4.7,5l0.1,0.1l0.1,0.1
			c5.9,5.9,14.2,20.1,23.5,54.2C232.7,231.1,212.2,201.9,209.2,168.4L209.2,168.4z"/>
		<g>
			<path class="st30" d="M268.5,239.4c-6.4-23.2-13.3-40-20.4-50v-28.1l20.4,7.4V239.4z M329,164.5l9.9-3.6l7.8-27.4V179
				c0,0-0.1,0-0.1,0.1c-0.3,0.3-0.6,0.6-1,0.9c-5.7,5.2-11.3,13.8-16.6,25.8V164.5z M248.2,130.4V99.5c16.7-7.3,29.2-17.3,40.5-32.4
				l0,87.3L248.2,130.4z M333.5,97.6c4.1,2,8.4,3.8,13.1,5.4v22l-13.1,7.8V97.6z"/>
			<path class="st30" d="M288,69.1l0,84.2L248.8,130v-30C264.8,92.9,277.1,83.3,288,69.1 M334.2,98.7c3.7,1.8,7.6,3.4,11.8,4.9v21.1
				l-11.8,7.1V98.7 M346,138.1v40.5c-0.3,0.3-0.6,0.5-0.8,0.8c-5.3,4.8-10.6,12.7-15.6,23.3V165l9.1-3.3l0.6-0.2l0.2-0.7L346,138.1
				 M248.8,162.3l19.1,6.9v65.5c-6-20.8-12.4-36.1-19.1-45.5V162.3 M289.3,65.2c-11.5,15.9-24.6,26.4-41.8,33.9v31.7l41.8,24.9
				L289.3,65.2L289.3,65.2z M332.9,96.5V134l14.4-8.6v-22.9C342.2,100.8,337.4,98.8,332.9,96.5L332.9,96.5z M347.3,128.9l-9,31.5
				l-10,3.6v44.8c5.2-12.1,11.1-22.3,17.7-28.4c0.3-0.3,0.6-0.6,0.9-0.8c0.1-0.1,0.2-0.2,0.4-0.3V128.9L347.3,128.9z M247.5,160.3
				v29.4c7.6,10.6,14.9,28.8,21.7,54.6v-76.1L247.5,160.3L247.5,160.3L247.5,160.3z"/>
		</g>
		<g>
			<path class="st30" d="M288.4,67.8l0,86.2l-40-23.8V99.7C264.8,92.5,277.3,82.6,288.4,67.8 M333.7,98c4,1.9,8.2,3.7,12.7,5.3v21.7
				l-12.7,7.6V98 M346.4,135v43.8c0,0,0,0,0,0c-0.4,0.3-0.7,0.6-1,0.9c-5.6,5.1-11,13.4-16.3,24.9v-40l9.4-3.4l0.4-0.2l0.1-0.5
				L346.4,135 M248.4,161.6l19.9,7.2v69c-6.3-22.4-13-38.7-19.9-48.5V161.6 M289.3,65.2c-11.5,15.9-24.6,26.4-41.8,33.9v31.7
				l41.8,24.9L289.3,65.2L289.3,65.2z M332.9,96.5V134l14.4-8.6v-22.9C342.2,100.8,337.4,98.8,332.9,96.5L332.9,96.5z M347.3,128.9
				l-9,31.5l-10,3.6v44.8c5.2-12.1,11.1-22.3,17.7-28.4c0.3-0.3,0.6-0.6,0.9-0.8c0.1-0.1,0.2-0.2,0.4-0.3V128.9L347.3,128.9z
				 M247.5,160.3v29.4c7.6,10.6,14.9,28.8,21.7,54.6v-76.1L247.5,160.3L247.5,160.3L247.5,160.3z"/>
		</g>
		
			<radialGradient id="SVGID_4_" cx="470.5857" cy="132.3986" r="78.3508" gradientTransform="matrix(0.9859 0 0 1.0491 -1.4957 18.2164)" gradientUnits="userSpaceOnUse">
			<stop  offset="1.818180e-02" style="stop-color:#C4161C"/>
			<stop  offset="5.167935e-02" style="stop-color:#BC141A"/>
			<stop  offset="0.2069" style="stop-color:#9C0A0E"/>
			<stop  offset="0.3644" style="stop-color:#820000"/>
			<stop  offset="0.5221" style="stop-color:#6F0000"/>
			<stop  offset="0.6803" style="stop-color:#600000"/>
			<stop  offset="0.8391" style="stop-color:#570000"/>
			<stop  offset="1" style="stop-color:#540000"/>
		</radialGradient>
		<path class="st3" d="M485.8,260.1H440l-28.2-30.6v-49.9h44.4V217h12.6V97.2h-12.6v23.4h9.7v43.1h-54.1V84.6l27.4-30.5h45.2
			l28.8,30.6v144.7L485.8,260.1z"/>
		
			<radialGradient id="SVGID_5_" cx="127.6532" cy="132.3986" r="78.3473" gradientTransform="matrix(0.9859 0 0 1.0491 -1.4957 18.2164)" gradientUnits="userSpaceOnUse">
			<stop  offset="1.818180e-02" style="stop-color:#C4161C"/>
			<stop  offset="5.167935e-02" style="stop-color:#BC141A"/>
			<stop  offset="0.2069" style="stop-color:#9C0A0E"/>
			<stop  offset="0.3644" style="stop-color:#820000"/>
			<stop  offset="0.5221" style="stop-color:#6F0000"/>
			<stop  offset="0.6803" style="stop-color:#600000"/>
			<stop  offset="0.8391" style="stop-color:#570000"/>
			<stop  offset="1" style="stop-color:#540000"/>
		</radialGradient>
		<path class="st4" d="M147.7,260.1h-45.2l-28.7-30.6V84.8l27.4-30.7h45.8l28.2,30.6v49.9h-44.4V97.2h-12.6V217h12.6v-23.4h-9.7v-43
			h54.1v79.1L147.7,260.1z"/>
		<path class="st29" d="M118.9,60v31.3h-4.6h-1.7v1.8v127.9v1.8h1.7h4.6v31.3h-14.1l-25.5-27.1V87.2L103.5,60H118.9 M120.6,58.2
			h-17.9L77.5,86.5v141.4L104,256h16.5v-34.9h-6.3V93.2h6.3V58.2L120.6,58.2z"/>
		<path class="st29" d="M170.6,156.4v70.8l-24.2,27h-16.7v-31.3h5.9h1.7v-1.8v-31.6v-1.8h-1.7h-8v-31.3H170.6 M172.3,154.6h-46.5
			v34.9h9.7v31.6h-7.6V256h19.2l25.2-28V154.6L172.3,154.6z"/>
		<path class="st29" d="M144.5,60l25,27.2v41.6h-33.4V93.2v-1.8h-1.7h-5.9V60H144.5 M145.3,58.2h-18.4v34.9h7.6v37.4h36.8V86.5
			L145.3,58.2L145.3,58.2z"/>
		<path class="st29" d="M482.1,60l25.5,27.2v139.9l-24.2,27.1H468v-31.3h4.6h1.7v-1.8V93.2v-1.8h-1.7H468V60H482.1 M482.8,58.2
			h-16.5v34.9h6.3v127.9h-6.3V256h17.8l25.2-28.2V86.5L482.8,58.2L482.8,58.2z"/>
		<path class="st29" d="M458.3,60v31.3h-5.9h-1.7v1.8v31.6v1.8h1.7h8v31.3h-43.1V87l24.3-27H458.3 M460,58.2h-19.2l-25.2,28.1v73.4
			h46.5v-34.9h-9.7V93.2h7.6V58.2L460,58.2z"/>
		<path class="st29" d="M450.7,185.5v35.6v1.8h1.7h5.9v31.3h-16l-25-27.1v-41.6H450.7 M452.4,183.7h-36.8v44.1l26,28.2H460v-34.9
			h-7.6V183.7L452.4,183.7z"/>
	</g>
</g>
</svg>
